; NON-PLATED HOLES START AT T1
; THROUGH (PLATED) HOLES START AT T100
M48
INCH
T100C0.035000
T101C0.040000
T102C0.038194
T103C0.038000
%
T100
X021066Y009047
X023066Y013047
X023066Y009047
X021066Y013047
T101
X004066Y010047
X027066Y011047
X006066Y016047
X021066Y006047
X023066Y015047
X008066Y016047
X023066Y006047
X011066Y016047
X016066Y016047
X025066Y006047
X032565Y017047
X005066Y016047
X014066Y010047
X032565Y011047
X011066Y010047
X002066Y016047
X027066Y006047
X032565Y015047
X012066Y006047
X032565Y013047
X018066Y016047
X016066Y006047
X006066Y010047
X017066Y016047
X019066Y006047
X016066Y010047
X032565Y009047
X003066Y016047
X013066Y010047
X002066Y010047
X005066Y010047
X012066Y016047
X017066Y010047
X018066Y010047
X006066Y006047
X007066Y010047
X014066Y016047
X008066Y006047
X004066Y016047
X032565Y007047
X027066Y017047
X032565Y005047
X008066Y010047
X021066Y015047
X004066Y006047
X009066Y010047
X003066Y010047
X015066Y010047
X032565Y003047
X007066Y016047
X027066Y015047
X012066Y010047
X010066Y006047
X014066Y006047
X013066Y016047
X009066Y016047
X027066Y013047
X015066Y016047
X004066Y004047
X029066Y006047
T102
X025066Y020047
X028066Y020047
X038066Y004047
X022066Y020047
X019066Y020047
X012066Y001047
X014066Y001047
X037066Y005047
X032066Y020047
X037066Y008047
X027066Y020047
X012466Y020047
X037066Y009047
X033066Y001047
X038066Y020047
X037066Y014047
X017066Y001047
X037066Y019047
X036066Y001047
X038066Y013047
X038066Y018047
X038066Y019047
X011066Y001047
X020066Y001047
X038066Y006047
X038066Y010047
X029066Y001047
X029066Y020047
X031066Y020047
X030066Y020047
X008466Y020047
X037066Y013047
X038066Y007047
X015066Y001047
X009466Y020047
X038066Y008047
X024066Y020047
X018066Y001047
X013466Y020047
X037066Y016047
X015466Y020047
X035066Y001047
X038066Y016047
X037066Y011047
X037066Y018047
X033066Y020047
X030066Y001047
X038066Y011047
X038066Y014047
X023066Y001047
X037066Y017047
X038066Y009047
X037066Y004047
X037066Y007047
X038066Y015047
X021066Y020047
X022066Y001047
X034066Y020047
X016066Y001047
X014466Y020047
X038066Y003047
X038066Y005047
X018066Y020047
X038066Y017047
X024066Y001047
X007466Y020047
X013066Y001047
X037066Y012047
X034066Y001047
X038066Y012047
X027066Y001047
X010466Y020047
X031066Y001047
X021066Y001047
X037066Y020047
X032066Y001047
X023066Y020047
X016466Y020047
X026066Y001047
X020066Y020047
X037066Y003047
X011466Y020047
X037066Y006047
X037066Y015047
X037066Y010047
X025066Y001047
T103
X031066Y018824
T00
M30
