G04 MADE WITH FRITZING*
G04 WWW.FRITZING.ORG*
G04 DOUBLE SIDED*
G04 HOLES PLATED*
G04 CONTOUR ON CENTER OF CONTOUR VECTOR*
%ASAXBY*%
%FSLAX23Y23*%
%MOIN*%
%OFA0B0*%
%SFA1.0B1.0*%
%ADD10C,0.072917*%
%ADD11C,0.074000*%
%ADD12C,0.080000*%
%ADD13C,0.075000*%
%ADD14C,0.078000*%
%ADD15R,0.079986X0.080000*%
%ADD16R,0.080000X0.080000*%
%ADD17R,0.080000X0.079986*%
%ADD18C,0.024000*%
%ADD19R,0.001000X0.001000*%
%LNCOPPER0*%
G90*
G70*
G54D10*
X3007Y105D03*
X1407Y105D03*
X3107Y105D03*
X3207Y105D03*
X3307Y105D03*
X3407Y105D03*
X3707Y1505D03*
X3507Y105D03*
X3607Y105D03*
X1447Y2005D03*
X2007Y105D03*
X2107Y105D03*
X2207Y105D03*
X2307Y105D03*
X3707Y705D03*
X2407Y105D03*
X2507Y105D03*
X2607Y105D03*
X2707Y105D03*
X2207Y2005D03*
X3707Y1905D03*
X3707Y1105D03*
X3707Y305D03*
X1047Y2005D03*
X1807Y105D03*
X1807Y2005D03*
X3707Y1705D03*
X3707Y1305D03*
X3707Y905D03*
X3407Y2005D03*
X3707Y505D03*
X3307Y2005D03*
X3207Y2005D03*
X3107Y2005D03*
X3007Y2005D03*
X2907Y2005D03*
X2807Y2005D03*
X2707Y2005D03*
X847Y2005D03*
X1247Y2005D03*
X1647Y2005D03*
X1207Y105D03*
X1607Y105D03*
X2407Y2005D03*
X2007Y2005D03*
X3707Y2005D03*
X3707Y1805D03*
X3707Y1605D03*
X3707Y1405D03*
X3707Y1205D03*
X3707Y1005D03*
X3707Y805D03*
X3707Y605D03*
X3707Y405D03*
X747Y2005D03*
X947Y2005D03*
X1147Y2005D03*
X1347Y2005D03*
X1547Y2005D03*
X1107Y105D03*
X1307Y105D03*
X1507Y105D03*
X1707Y105D03*
X2507Y2005D03*
X2307Y2005D03*
X2107Y2005D03*
X1907Y2005D03*
X3807Y2005D03*
X3807Y1905D03*
X3807Y1805D03*
X3807Y1705D03*
X3807Y1605D03*
X3807Y1505D03*
X3807Y1405D03*
X3807Y1305D03*
X3807Y1205D03*
X3807Y1105D03*
X3807Y1005D03*
X3807Y905D03*
X3807Y805D03*
X3807Y705D03*
X3807Y605D03*
X3807Y505D03*
X3807Y405D03*
X3807Y305D03*
X2907Y105D03*
G54D11*
X907Y1005D03*
X807Y1005D03*
X707Y1005D03*
X607Y1005D03*
X507Y1005D03*
X407Y1005D03*
X307Y1005D03*
X207Y1005D03*
X207Y1605D03*
X307Y1605D03*
X407Y1605D03*
X507Y1605D03*
X607Y1605D03*
X707Y1605D03*
X807Y1605D03*
X907Y1605D03*
X1807Y1005D03*
X1707Y1005D03*
X1607Y1005D03*
X1507Y1005D03*
X1407Y1005D03*
X1307Y1005D03*
X1207Y1005D03*
X1107Y1005D03*
X1107Y1605D03*
X1207Y1605D03*
X1307Y1605D03*
X1407Y1605D03*
X1507Y1605D03*
X1607Y1605D03*
X1707Y1605D03*
X1807Y1605D03*
G54D12*
X407Y405D03*
X407Y605D03*
G54D13*
X2307Y1305D03*
X2307Y905D03*
X2107Y905D03*
X2107Y1305D03*
G54D12*
X3257Y1705D03*
X3257Y1305D03*
X3257Y1505D03*
X3257Y1105D03*
X3257Y905D03*
X3257Y705D03*
X3257Y505D03*
X3257Y305D03*
X1607Y605D03*
X1407Y605D03*
X1207Y605D03*
X1007Y605D03*
X807Y605D03*
X607Y605D03*
X2907Y605D03*
X2707Y605D03*
X2507Y605D03*
X2307Y605D03*
X2107Y605D03*
X1907Y605D03*
X2707Y1505D03*
X2707Y1305D03*
X2707Y1105D03*
X2707Y1705D03*
X2107Y1505D03*
X2307Y1505D03*
G54D14*
X3107Y1882D03*
G54D15*
X407Y405D03*
G54D16*
X3257Y1705D03*
X1607Y605D03*
X2907Y605D03*
X2707Y1705D03*
G54D17*
X2107Y1505D03*
G54D18*
X1327Y1885D02*
X1433Y1991D01*
D02*
X607Y1625D02*
X607Y1885D01*
D02*
X607Y1885D02*
X1327Y1885D01*
D02*
X1427Y1785D02*
X1633Y1991D01*
D02*
X807Y1625D02*
X807Y1785D01*
D02*
X807Y1785D02*
X1427Y1785D01*
D02*
X1377Y1835D02*
X1533Y1991D01*
D02*
X707Y1835D02*
X1377Y1835D01*
D02*
X707Y1625D02*
X707Y1835D01*
D02*
X1607Y394D02*
X1607Y124D01*
D02*
X427Y405D02*
X1607Y394D01*
D02*
X407Y805D02*
X507Y805D01*
D02*
X507Y805D02*
X507Y405D01*
D02*
X407Y985D02*
X407Y805D01*
D02*
X507Y405D02*
X427Y405D01*
D02*
X1307Y394D02*
X1307Y985D01*
D02*
X1607Y399D02*
X1307Y394D01*
D02*
X427Y405D02*
X907Y405D01*
D02*
X907Y405D02*
X907Y985D01*
D02*
X1607Y399D02*
X1807Y405D01*
D02*
X1807Y405D02*
X1807Y985D01*
D02*
X2112Y716D02*
X2108Y625D01*
D02*
X1818Y721D02*
X2112Y716D01*
D02*
X1807Y405D02*
X1818Y721D01*
D02*
X2707Y716D02*
X2707Y625D01*
D02*
X2112Y716D02*
X2707Y716D01*
D02*
X1907Y721D02*
X1907Y1305D01*
D02*
X1907Y1305D02*
X2089Y1305D01*
D02*
X1818Y721D02*
X1907Y721D01*
D02*
X2124Y1305D02*
X2289Y1305D01*
D02*
X3007Y505D02*
X3237Y505D01*
D02*
X3007Y805D02*
X3007Y505D01*
D02*
X2107Y805D02*
X3007Y805D01*
D02*
X2107Y887D02*
X2107Y805D01*
D02*
X3607Y205D02*
X2907Y205D01*
D02*
X3607Y405D02*
X3607Y205D01*
D02*
X3688Y405D02*
X3607Y405D01*
D02*
X2907Y205D02*
X2907Y585D01*
D02*
X3688Y1105D02*
X3277Y1105D01*
D02*
X2496Y1310D02*
X2324Y1305D01*
D02*
X2687Y1505D02*
X2507Y1505D01*
D02*
X2507Y1505D02*
X2496Y1310D01*
D02*
X2496Y1105D02*
X2687Y1105D01*
D02*
X2496Y1310D02*
X2496Y1105D01*
D02*
X3007Y1105D02*
X3007Y1505D01*
D02*
X3007Y1505D02*
X3237Y1505D01*
D02*
X2727Y1105D02*
X3007Y1105D01*
D02*
X2507Y1505D02*
X2507Y1882D01*
D02*
X2507Y1882D02*
X3088Y1882D01*
G54D19*
X179Y1670D02*
X235Y1670D01*
X279Y1670D02*
X335Y1670D01*
X379Y1670D02*
X435Y1670D01*
X479Y1670D02*
X535Y1670D01*
X579Y1670D02*
X635Y1670D01*
X679Y1670D02*
X735Y1670D01*
X779Y1670D02*
X835Y1670D01*
X879Y1670D02*
X935Y1670D01*
X1079Y1670D02*
X1135Y1670D01*
X1179Y1670D02*
X1235Y1670D01*
X1279Y1670D02*
X1335Y1670D01*
X1379Y1670D02*
X1435Y1670D01*
X1479Y1670D02*
X1535Y1670D01*
X1579Y1670D02*
X1635Y1670D01*
X1679Y1670D02*
X1735Y1670D01*
X1779Y1670D02*
X1835Y1670D01*
X179Y1669D02*
X235Y1669D01*
X279Y1669D02*
X335Y1669D01*
X379Y1669D02*
X435Y1669D01*
X479Y1669D02*
X535Y1669D01*
X579Y1669D02*
X635Y1669D01*
X679Y1669D02*
X735Y1669D01*
X779Y1669D02*
X835Y1669D01*
X879Y1669D02*
X935Y1669D01*
X1079Y1669D02*
X1135Y1669D01*
X1179Y1669D02*
X1235Y1669D01*
X1279Y1669D02*
X1335Y1669D01*
X1379Y1669D02*
X1435Y1669D01*
X1479Y1669D02*
X1535Y1669D01*
X1579Y1669D02*
X1635Y1669D01*
X1679Y1669D02*
X1735Y1669D01*
X1779Y1669D02*
X1835Y1669D01*
X179Y1668D02*
X235Y1668D01*
X279Y1668D02*
X335Y1668D01*
X379Y1668D02*
X435Y1668D01*
X479Y1668D02*
X535Y1668D01*
X579Y1668D02*
X635Y1668D01*
X679Y1668D02*
X735Y1668D01*
X779Y1668D02*
X835Y1668D01*
X879Y1668D02*
X935Y1668D01*
X1079Y1668D02*
X1135Y1668D01*
X1179Y1668D02*
X1235Y1668D01*
X1279Y1668D02*
X1335Y1668D01*
X1379Y1668D02*
X1435Y1668D01*
X1479Y1668D02*
X1535Y1668D01*
X1579Y1668D02*
X1635Y1668D01*
X1679Y1668D02*
X1735Y1668D01*
X1779Y1668D02*
X1835Y1668D01*
X179Y1667D02*
X235Y1667D01*
X279Y1667D02*
X335Y1667D01*
X379Y1667D02*
X435Y1667D01*
X479Y1667D02*
X535Y1667D01*
X579Y1667D02*
X635Y1667D01*
X679Y1667D02*
X735Y1667D01*
X779Y1667D02*
X835Y1667D01*
X879Y1667D02*
X935Y1667D01*
X1079Y1667D02*
X1135Y1667D01*
X1179Y1667D02*
X1235Y1667D01*
X1279Y1667D02*
X1335Y1667D01*
X1379Y1667D02*
X1435Y1667D01*
X1479Y1667D02*
X1535Y1667D01*
X1579Y1667D02*
X1635Y1667D01*
X1679Y1667D02*
X1735Y1667D01*
X1779Y1667D02*
X1835Y1667D01*
X179Y1666D02*
X235Y1666D01*
X279Y1666D02*
X335Y1666D01*
X379Y1666D02*
X435Y1666D01*
X479Y1666D02*
X535Y1666D01*
X579Y1666D02*
X635Y1666D01*
X679Y1666D02*
X735Y1666D01*
X779Y1666D02*
X835Y1666D01*
X879Y1666D02*
X935Y1666D01*
X1079Y1666D02*
X1135Y1666D01*
X1179Y1666D02*
X1235Y1666D01*
X1279Y1666D02*
X1335Y1666D01*
X1379Y1666D02*
X1435Y1666D01*
X1479Y1666D02*
X1535Y1666D01*
X1579Y1666D02*
X1635Y1666D01*
X1679Y1666D02*
X1735Y1666D01*
X1779Y1666D02*
X1835Y1666D01*
X179Y1665D02*
X235Y1665D01*
X279Y1665D02*
X335Y1665D01*
X379Y1665D02*
X435Y1665D01*
X479Y1665D02*
X535Y1665D01*
X579Y1665D02*
X635Y1665D01*
X679Y1665D02*
X735Y1665D01*
X779Y1665D02*
X835Y1665D01*
X879Y1665D02*
X935Y1665D01*
X1079Y1665D02*
X1135Y1665D01*
X1179Y1665D02*
X1235Y1665D01*
X1279Y1665D02*
X1335Y1665D01*
X1379Y1665D02*
X1435Y1665D01*
X1479Y1665D02*
X1535Y1665D01*
X1579Y1665D02*
X1635Y1665D01*
X1679Y1665D02*
X1735Y1665D01*
X1779Y1665D02*
X1835Y1665D01*
X179Y1664D02*
X235Y1664D01*
X279Y1664D02*
X335Y1664D01*
X379Y1664D02*
X435Y1664D01*
X479Y1664D02*
X535Y1664D01*
X579Y1664D02*
X635Y1664D01*
X679Y1664D02*
X735Y1664D01*
X779Y1664D02*
X835Y1664D01*
X879Y1664D02*
X935Y1664D01*
X1079Y1664D02*
X1135Y1664D01*
X1179Y1664D02*
X1235Y1664D01*
X1279Y1664D02*
X1335Y1664D01*
X1379Y1664D02*
X1435Y1664D01*
X1479Y1664D02*
X1535Y1664D01*
X1579Y1664D02*
X1635Y1664D01*
X1679Y1664D02*
X1735Y1664D01*
X1779Y1664D02*
X1835Y1664D01*
X179Y1663D02*
X235Y1663D01*
X279Y1663D02*
X335Y1663D01*
X379Y1663D02*
X435Y1663D01*
X479Y1663D02*
X535Y1663D01*
X579Y1663D02*
X635Y1663D01*
X679Y1663D02*
X735Y1663D01*
X779Y1663D02*
X835Y1663D01*
X879Y1663D02*
X935Y1663D01*
X1079Y1663D02*
X1135Y1663D01*
X1179Y1663D02*
X1235Y1663D01*
X1279Y1663D02*
X1335Y1663D01*
X1379Y1663D02*
X1435Y1663D01*
X1479Y1663D02*
X1535Y1663D01*
X1579Y1663D02*
X1635Y1663D01*
X1679Y1663D02*
X1735Y1663D01*
X1779Y1663D02*
X1835Y1663D01*
X179Y1662D02*
X235Y1662D01*
X279Y1662D02*
X335Y1662D01*
X379Y1662D02*
X435Y1662D01*
X479Y1662D02*
X535Y1662D01*
X579Y1662D02*
X635Y1662D01*
X679Y1662D02*
X735Y1662D01*
X779Y1662D02*
X835Y1662D01*
X879Y1662D02*
X935Y1662D01*
X1079Y1662D02*
X1135Y1662D01*
X1179Y1662D02*
X1235Y1662D01*
X1279Y1662D02*
X1335Y1662D01*
X1379Y1662D02*
X1435Y1662D01*
X1479Y1662D02*
X1535Y1662D01*
X1579Y1662D02*
X1635Y1662D01*
X1679Y1662D02*
X1735Y1662D01*
X1779Y1662D02*
X1835Y1662D01*
X179Y1661D02*
X235Y1661D01*
X279Y1661D02*
X335Y1661D01*
X379Y1661D02*
X435Y1661D01*
X479Y1661D02*
X535Y1661D01*
X579Y1661D02*
X635Y1661D01*
X679Y1661D02*
X735Y1661D01*
X779Y1661D02*
X835Y1661D01*
X879Y1661D02*
X935Y1661D01*
X1079Y1661D02*
X1135Y1661D01*
X1179Y1661D02*
X1235Y1661D01*
X1279Y1661D02*
X1335Y1661D01*
X1379Y1661D02*
X1435Y1661D01*
X1479Y1661D02*
X1535Y1661D01*
X1579Y1661D02*
X1635Y1661D01*
X1679Y1661D02*
X1735Y1661D01*
X1779Y1661D02*
X1835Y1661D01*
X179Y1660D02*
X235Y1660D01*
X279Y1660D02*
X335Y1660D01*
X379Y1660D02*
X435Y1660D01*
X479Y1660D02*
X535Y1660D01*
X579Y1660D02*
X635Y1660D01*
X679Y1660D02*
X735Y1660D01*
X779Y1660D02*
X835Y1660D01*
X879Y1660D02*
X935Y1660D01*
X1079Y1660D02*
X1135Y1660D01*
X1179Y1660D02*
X1235Y1660D01*
X1279Y1660D02*
X1335Y1660D01*
X1379Y1660D02*
X1435Y1660D01*
X1479Y1660D02*
X1535Y1660D01*
X1579Y1660D02*
X1635Y1660D01*
X1679Y1660D02*
X1735Y1660D01*
X1779Y1660D02*
X1835Y1660D01*
X179Y1659D02*
X235Y1659D01*
X279Y1659D02*
X335Y1659D01*
X379Y1659D02*
X435Y1659D01*
X479Y1659D02*
X535Y1659D01*
X579Y1659D02*
X635Y1659D01*
X679Y1659D02*
X735Y1659D01*
X779Y1659D02*
X835Y1659D01*
X879Y1659D02*
X935Y1659D01*
X1079Y1659D02*
X1135Y1659D01*
X1179Y1659D02*
X1235Y1659D01*
X1279Y1659D02*
X1335Y1659D01*
X1379Y1659D02*
X1435Y1659D01*
X1479Y1659D02*
X1535Y1659D01*
X1579Y1659D02*
X1635Y1659D01*
X1679Y1659D02*
X1735Y1659D01*
X1779Y1659D02*
X1835Y1659D01*
X179Y1658D02*
X235Y1658D01*
X279Y1658D02*
X335Y1658D01*
X379Y1658D02*
X435Y1658D01*
X479Y1658D02*
X535Y1658D01*
X579Y1658D02*
X635Y1658D01*
X679Y1658D02*
X735Y1658D01*
X779Y1658D02*
X835Y1658D01*
X879Y1658D02*
X935Y1658D01*
X1079Y1658D02*
X1135Y1658D01*
X1179Y1658D02*
X1235Y1658D01*
X1279Y1658D02*
X1335Y1658D01*
X1379Y1658D02*
X1435Y1658D01*
X1479Y1658D02*
X1535Y1658D01*
X1579Y1658D02*
X1635Y1658D01*
X1679Y1658D02*
X1735Y1658D01*
X1779Y1658D02*
X1835Y1658D01*
X179Y1657D02*
X235Y1657D01*
X279Y1657D02*
X335Y1657D01*
X379Y1657D02*
X435Y1657D01*
X479Y1657D02*
X535Y1657D01*
X579Y1657D02*
X635Y1657D01*
X679Y1657D02*
X735Y1657D01*
X779Y1657D02*
X835Y1657D01*
X879Y1657D02*
X935Y1657D01*
X1079Y1657D02*
X1135Y1657D01*
X1179Y1657D02*
X1235Y1657D01*
X1279Y1657D02*
X1335Y1657D01*
X1379Y1657D02*
X1435Y1657D01*
X1479Y1657D02*
X1535Y1657D01*
X1579Y1657D02*
X1635Y1657D01*
X1679Y1657D02*
X1735Y1657D01*
X1779Y1657D02*
X1835Y1657D01*
X179Y1656D02*
X235Y1656D01*
X279Y1656D02*
X335Y1656D01*
X379Y1656D02*
X435Y1656D01*
X479Y1656D02*
X535Y1656D01*
X579Y1656D02*
X635Y1656D01*
X679Y1656D02*
X735Y1656D01*
X779Y1656D02*
X835Y1656D01*
X879Y1656D02*
X935Y1656D01*
X1079Y1656D02*
X1135Y1656D01*
X1179Y1656D02*
X1235Y1656D01*
X1279Y1656D02*
X1335Y1656D01*
X1379Y1656D02*
X1435Y1656D01*
X1479Y1656D02*
X1535Y1656D01*
X1579Y1656D02*
X1635Y1656D01*
X1679Y1656D02*
X1735Y1656D01*
X1779Y1656D02*
X1835Y1656D01*
X179Y1655D02*
X235Y1655D01*
X279Y1655D02*
X335Y1655D01*
X379Y1655D02*
X435Y1655D01*
X479Y1655D02*
X535Y1655D01*
X579Y1655D02*
X635Y1655D01*
X679Y1655D02*
X735Y1655D01*
X779Y1655D02*
X835Y1655D01*
X879Y1655D02*
X935Y1655D01*
X1079Y1655D02*
X1135Y1655D01*
X1179Y1655D02*
X1235Y1655D01*
X1279Y1655D02*
X1335Y1655D01*
X1379Y1655D02*
X1435Y1655D01*
X1479Y1655D02*
X1535Y1655D01*
X1579Y1655D02*
X1635Y1655D01*
X1679Y1655D02*
X1735Y1655D01*
X1779Y1655D02*
X1835Y1655D01*
X179Y1654D02*
X235Y1654D01*
X279Y1654D02*
X335Y1654D01*
X379Y1654D02*
X435Y1654D01*
X479Y1654D02*
X535Y1654D01*
X579Y1654D02*
X635Y1654D01*
X679Y1654D02*
X735Y1654D01*
X779Y1654D02*
X835Y1654D01*
X879Y1654D02*
X935Y1654D01*
X1079Y1654D02*
X1135Y1654D01*
X1179Y1654D02*
X1235Y1654D01*
X1279Y1654D02*
X1335Y1654D01*
X1379Y1654D02*
X1435Y1654D01*
X1479Y1654D02*
X1535Y1654D01*
X1579Y1654D02*
X1635Y1654D01*
X1679Y1654D02*
X1735Y1654D01*
X1779Y1654D02*
X1835Y1654D01*
X179Y1653D02*
X235Y1653D01*
X279Y1653D02*
X335Y1653D01*
X379Y1653D02*
X435Y1653D01*
X479Y1653D02*
X535Y1653D01*
X579Y1653D02*
X635Y1653D01*
X679Y1653D02*
X735Y1653D01*
X779Y1653D02*
X835Y1653D01*
X879Y1653D02*
X935Y1653D01*
X1079Y1653D02*
X1135Y1653D01*
X1179Y1653D02*
X1235Y1653D01*
X1279Y1653D02*
X1335Y1653D01*
X1379Y1653D02*
X1435Y1653D01*
X1479Y1653D02*
X1535Y1653D01*
X1579Y1653D02*
X1635Y1653D01*
X1679Y1653D02*
X1735Y1653D01*
X1779Y1653D02*
X1835Y1653D01*
X179Y1652D02*
X235Y1652D01*
X279Y1652D02*
X335Y1652D01*
X379Y1652D02*
X435Y1652D01*
X479Y1652D02*
X535Y1652D01*
X579Y1652D02*
X635Y1652D01*
X679Y1652D02*
X735Y1652D01*
X779Y1652D02*
X835Y1652D01*
X879Y1652D02*
X935Y1652D01*
X1079Y1652D02*
X1135Y1652D01*
X1179Y1652D02*
X1235Y1652D01*
X1279Y1652D02*
X1335Y1652D01*
X1379Y1652D02*
X1435Y1652D01*
X1479Y1652D02*
X1535Y1652D01*
X1579Y1652D02*
X1635Y1652D01*
X1679Y1652D02*
X1735Y1652D01*
X1779Y1652D02*
X1835Y1652D01*
X179Y1651D02*
X235Y1651D01*
X279Y1651D02*
X335Y1651D01*
X379Y1651D02*
X435Y1651D01*
X479Y1651D02*
X535Y1651D01*
X579Y1651D02*
X635Y1651D01*
X679Y1651D02*
X735Y1651D01*
X779Y1651D02*
X835Y1651D01*
X879Y1651D02*
X935Y1651D01*
X1079Y1651D02*
X1135Y1651D01*
X1179Y1651D02*
X1235Y1651D01*
X1279Y1651D02*
X1335Y1651D01*
X1379Y1651D02*
X1435Y1651D01*
X1479Y1651D02*
X1535Y1651D01*
X1579Y1651D02*
X1635Y1651D01*
X1679Y1651D02*
X1735Y1651D01*
X1779Y1651D02*
X1835Y1651D01*
X179Y1650D02*
X235Y1650D01*
X279Y1650D02*
X335Y1650D01*
X379Y1650D02*
X435Y1650D01*
X479Y1650D02*
X535Y1650D01*
X579Y1650D02*
X635Y1650D01*
X679Y1650D02*
X735Y1650D01*
X779Y1650D02*
X835Y1650D01*
X879Y1650D02*
X935Y1650D01*
X1079Y1650D02*
X1135Y1650D01*
X1179Y1650D02*
X1235Y1650D01*
X1279Y1650D02*
X1335Y1650D01*
X1379Y1650D02*
X1435Y1650D01*
X1479Y1650D02*
X1535Y1650D01*
X1579Y1650D02*
X1635Y1650D01*
X1679Y1650D02*
X1735Y1650D01*
X1779Y1650D02*
X1835Y1650D01*
X179Y1649D02*
X235Y1649D01*
X279Y1649D02*
X335Y1649D01*
X379Y1649D02*
X435Y1649D01*
X479Y1649D02*
X535Y1649D01*
X579Y1649D02*
X635Y1649D01*
X679Y1649D02*
X735Y1649D01*
X779Y1649D02*
X835Y1649D01*
X879Y1649D02*
X935Y1649D01*
X1079Y1649D02*
X1135Y1649D01*
X1179Y1649D02*
X1235Y1649D01*
X1279Y1649D02*
X1335Y1649D01*
X1379Y1649D02*
X1435Y1649D01*
X1479Y1649D02*
X1535Y1649D01*
X1579Y1649D02*
X1635Y1649D01*
X1679Y1649D02*
X1735Y1649D01*
X1779Y1649D02*
X1835Y1649D01*
X179Y1648D02*
X235Y1648D01*
X279Y1648D02*
X335Y1648D01*
X379Y1648D02*
X435Y1648D01*
X479Y1648D02*
X535Y1648D01*
X579Y1648D02*
X635Y1648D01*
X679Y1648D02*
X735Y1648D01*
X779Y1648D02*
X835Y1648D01*
X879Y1648D02*
X935Y1648D01*
X1079Y1648D02*
X1135Y1648D01*
X1179Y1648D02*
X1235Y1648D01*
X1279Y1648D02*
X1335Y1648D01*
X1379Y1648D02*
X1435Y1648D01*
X1479Y1648D02*
X1535Y1648D01*
X1579Y1648D02*
X1635Y1648D01*
X1679Y1648D02*
X1735Y1648D01*
X1779Y1648D02*
X1835Y1648D01*
X179Y1647D02*
X235Y1647D01*
X279Y1647D02*
X335Y1647D01*
X379Y1647D02*
X435Y1647D01*
X479Y1647D02*
X535Y1647D01*
X579Y1647D02*
X635Y1647D01*
X679Y1647D02*
X735Y1647D01*
X779Y1647D02*
X835Y1647D01*
X879Y1647D02*
X935Y1647D01*
X1079Y1647D02*
X1135Y1647D01*
X1179Y1647D02*
X1235Y1647D01*
X1279Y1647D02*
X1335Y1647D01*
X1379Y1647D02*
X1435Y1647D01*
X1479Y1647D02*
X1535Y1647D01*
X1579Y1647D02*
X1635Y1647D01*
X1679Y1647D02*
X1735Y1647D01*
X1779Y1647D02*
X1835Y1647D01*
X179Y1646D02*
X235Y1646D01*
X279Y1646D02*
X335Y1646D01*
X379Y1646D02*
X435Y1646D01*
X479Y1646D02*
X535Y1646D01*
X579Y1646D02*
X635Y1646D01*
X679Y1646D02*
X735Y1646D01*
X779Y1646D02*
X835Y1646D01*
X879Y1646D02*
X935Y1646D01*
X1079Y1646D02*
X1135Y1646D01*
X1179Y1646D02*
X1235Y1646D01*
X1279Y1646D02*
X1335Y1646D01*
X1379Y1646D02*
X1435Y1646D01*
X1479Y1646D02*
X1535Y1646D01*
X1579Y1646D02*
X1635Y1646D01*
X1679Y1646D02*
X1735Y1646D01*
X1779Y1646D02*
X1835Y1646D01*
X179Y1645D02*
X235Y1645D01*
X279Y1645D02*
X335Y1645D01*
X379Y1645D02*
X435Y1645D01*
X479Y1645D02*
X535Y1645D01*
X579Y1645D02*
X635Y1645D01*
X679Y1645D02*
X735Y1645D01*
X779Y1645D02*
X835Y1645D01*
X879Y1645D02*
X935Y1645D01*
X1079Y1645D02*
X1135Y1645D01*
X1179Y1645D02*
X1235Y1645D01*
X1279Y1645D02*
X1335Y1645D01*
X1379Y1645D02*
X1435Y1645D01*
X1479Y1645D02*
X1535Y1645D01*
X1579Y1645D02*
X1635Y1645D01*
X1679Y1645D02*
X1735Y1645D01*
X1779Y1645D02*
X1835Y1645D01*
X179Y1644D02*
X235Y1644D01*
X279Y1644D02*
X335Y1644D01*
X379Y1644D02*
X435Y1644D01*
X479Y1644D02*
X535Y1644D01*
X579Y1644D02*
X635Y1644D01*
X679Y1644D02*
X735Y1644D01*
X779Y1644D02*
X835Y1644D01*
X879Y1644D02*
X935Y1644D01*
X1079Y1644D02*
X1135Y1644D01*
X1179Y1644D02*
X1235Y1644D01*
X1279Y1644D02*
X1335Y1644D01*
X1379Y1644D02*
X1435Y1644D01*
X1479Y1644D02*
X1535Y1644D01*
X1579Y1644D02*
X1635Y1644D01*
X1679Y1644D02*
X1735Y1644D01*
X1779Y1644D02*
X1835Y1644D01*
X179Y1643D02*
X235Y1643D01*
X279Y1643D02*
X335Y1643D01*
X379Y1643D02*
X435Y1643D01*
X479Y1643D02*
X535Y1643D01*
X579Y1643D02*
X635Y1643D01*
X679Y1643D02*
X735Y1643D01*
X779Y1643D02*
X835Y1643D01*
X879Y1643D02*
X935Y1643D01*
X1079Y1643D02*
X1135Y1643D01*
X1179Y1643D02*
X1235Y1643D01*
X1279Y1643D02*
X1335Y1643D01*
X1379Y1643D02*
X1435Y1643D01*
X1479Y1643D02*
X1535Y1643D01*
X1579Y1643D02*
X1635Y1643D01*
X1679Y1643D02*
X1735Y1643D01*
X1779Y1643D02*
X1835Y1643D01*
X179Y1642D02*
X235Y1642D01*
X279Y1642D02*
X335Y1642D01*
X379Y1642D02*
X435Y1642D01*
X479Y1642D02*
X535Y1642D01*
X579Y1642D02*
X635Y1642D01*
X679Y1642D02*
X735Y1642D01*
X779Y1642D02*
X835Y1642D01*
X879Y1642D02*
X935Y1642D01*
X1079Y1642D02*
X1135Y1642D01*
X1179Y1642D02*
X1235Y1642D01*
X1279Y1642D02*
X1335Y1642D01*
X1379Y1642D02*
X1435Y1642D01*
X1479Y1642D02*
X1535Y1642D01*
X1579Y1642D02*
X1635Y1642D01*
X1679Y1642D02*
X1735Y1642D01*
X1779Y1642D02*
X1835Y1642D01*
X179Y1641D02*
X235Y1641D01*
X279Y1641D02*
X335Y1641D01*
X379Y1641D02*
X435Y1641D01*
X479Y1641D02*
X535Y1641D01*
X579Y1641D02*
X635Y1641D01*
X679Y1641D02*
X735Y1641D01*
X779Y1641D02*
X835Y1641D01*
X879Y1641D02*
X935Y1641D01*
X1079Y1641D02*
X1135Y1641D01*
X1179Y1641D02*
X1235Y1641D01*
X1279Y1641D02*
X1335Y1641D01*
X1379Y1641D02*
X1435Y1641D01*
X1479Y1641D02*
X1535Y1641D01*
X1579Y1641D02*
X1635Y1641D01*
X1679Y1641D02*
X1735Y1641D01*
X1779Y1641D02*
X1835Y1641D01*
X179Y1640D02*
X235Y1640D01*
X279Y1640D02*
X335Y1640D01*
X379Y1640D02*
X435Y1640D01*
X479Y1640D02*
X535Y1640D01*
X579Y1640D02*
X635Y1640D01*
X679Y1640D02*
X735Y1640D01*
X779Y1640D02*
X835Y1640D01*
X879Y1640D02*
X935Y1640D01*
X1079Y1640D02*
X1135Y1640D01*
X1179Y1640D02*
X1235Y1640D01*
X1279Y1640D02*
X1335Y1640D01*
X1379Y1640D02*
X1435Y1640D01*
X1479Y1640D02*
X1535Y1640D01*
X1579Y1640D02*
X1635Y1640D01*
X1679Y1640D02*
X1735Y1640D01*
X1779Y1640D02*
X1835Y1640D01*
X179Y1639D02*
X235Y1639D01*
X279Y1639D02*
X335Y1639D01*
X379Y1639D02*
X435Y1639D01*
X479Y1639D02*
X535Y1639D01*
X579Y1639D02*
X635Y1639D01*
X679Y1639D02*
X735Y1639D01*
X779Y1639D02*
X835Y1639D01*
X879Y1639D02*
X935Y1639D01*
X1079Y1639D02*
X1135Y1639D01*
X1179Y1639D02*
X1235Y1639D01*
X1279Y1639D02*
X1335Y1639D01*
X1379Y1639D02*
X1435Y1639D01*
X1479Y1639D02*
X1535Y1639D01*
X1579Y1639D02*
X1635Y1639D01*
X1679Y1639D02*
X1735Y1639D01*
X1779Y1639D02*
X1835Y1639D01*
X179Y1638D02*
X235Y1638D01*
X279Y1638D02*
X335Y1638D01*
X379Y1638D02*
X435Y1638D01*
X479Y1638D02*
X535Y1638D01*
X579Y1638D02*
X635Y1638D01*
X679Y1638D02*
X735Y1638D01*
X779Y1638D02*
X835Y1638D01*
X879Y1638D02*
X935Y1638D01*
X1079Y1638D02*
X1135Y1638D01*
X1179Y1638D02*
X1235Y1638D01*
X1279Y1638D02*
X1335Y1638D01*
X1379Y1638D02*
X1435Y1638D01*
X1479Y1638D02*
X1535Y1638D01*
X1579Y1638D02*
X1635Y1638D01*
X1679Y1638D02*
X1735Y1638D01*
X1779Y1638D02*
X1835Y1638D01*
X179Y1637D02*
X235Y1637D01*
X279Y1637D02*
X335Y1637D01*
X379Y1637D02*
X435Y1637D01*
X479Y1637D02*
X535Y1637D01*
X579Y1637D02*
X635Y1637D01*
X679Y1637D02*
X735Y1637D01*
X779Y1637D02*
X835Y1637D01*
X879Y1637D02*
X935Y1637D01*
X1079Y1637D02*
X1135Y1637D01*
X1179Y1637D02*
X1235Y1637D01*
X1279Y1637D02*
X1335Y1637D01*
X1379Y1637D02*
X1435Y1637D01*
X1479Y1637D02*
X1535Y1637D01*
X1579Y1637D02*
X1635Y1637D01*
X1679Y1637D02*
X1735Y1637D01*
X1779Y1637D02*
X1835Y1637D01*
X179Y1636D02*
X235Y1636D01*
X279Y1636D02*
X335Y1636D01*
X379Y1636D02*
X435Y1636D01*
X479Y1636D02*
X535Y1636D01*
X579Y1636D02*
X635Y1636D01*
X679Y1636D02*
X735Y1636D01*
X779Y1636D02*
X835Y1636D01*
X879Y1636D02*
X935Y1636D01*
X1079Y1636D02*
X1135Y1636D01*
X1179Y1636D02*
X1235Y1636D01*
X1279Y1636D02*
X1335Y1636D01*
X1379Y1636D02*
X1435Y1636D01*
X1479Y1636D02*
X1535Y1636D01*
X1579Y1636D02*
X1635Y1636D01*
X1679Y1636D02*
X1735Y1636D01*
X1779Y1636D02*
X1835Y1636D01*
X179Y1635D02*
X235Y1635D01*
X279Y1635D02*
X335Y1635D01*
X379Y1635D02*
X435Y1635D01*
X479Y1635D02*
X535Y1635D01*
X579Y1635D02*
X635Y1635D01*
X679Y1635D02*
X735Y1635D01*
X779Y1635D02*
X835Y1635D01*
X879Y1635D02*
X935Y1635D01*
X1079Y1635D02*
X1135Y1635D01*
X1179Y1635D02*
X1235Y1635D01*
X1279Y1635D02*
X1335Y1635D01*
X1379Y1635D02*
X1435Y1635D01*
X1479Y1635D02*
X1535Y1635D01*
X1579Y1635D02*
X1635Y1635D01*
X1679Y1635D02*
X1735Y1635D01*
X1779Y1635D02*
X1835Y1635D01*
X179Y1634D02*
X235Y1634D01*
X279Y1634D02*
X335Y1634D01*
X379Y1634D02*
X435Y1634D01*
X479Y1634D02*
X535Y1634D01*
X579Y1634D02*
X635Y1634D01*
X679Y1634D02*
X735Y1634D01*
X779Y1634D02*
X835Y1634D01*
X879Y1634D02*
X935Y1634D01*
X1079Y1634D02*
X1135Y1634D01*
X1179Y1634D02*
X1235Y1634D01*
X1279Y1634D02*
X1335Y1634D01*
X1379Y1634D02*
X1435Y1634D01*
X1479Y1634D02*
X1535Y1634D01*
X1579Y1634D02*
X1635Y1634D01*
X1679Y1634D02*
X1735Y1634D01*
X1779Y1634D02*
X1835Y1634D01*
X179Y1633D02*
X200Y1633D01*
X214Y1633D02*
X235Y1633D01*
X279Y1633D02*
X300Y1633D01*
X314Y1633D02*
X335Y1633D01*
X379Y1633D02*
X400Y1633D01*
X414Y1633D02*
X435Y1633D01*
X479Y1633D02*
X500Y1633D01*
X514Y1633D02*
X535Y1633D01*
X579Y1633D02*
X600Y1633D01*
X614Y1633D02*
X635Y1633D01*
X679Y1633D02*
X700Y1633D01*
X714Y1633D02*
X735Y1633D01*
X779Y1633D02*
X800Y1633D01*
X814Y1633D02*
X835Y1633D01*
X879Y1633D02*
X900Y1633D01*
X914Y1633D02*
X935Y1633D01*
X1079Y1633D02*
X1100Y1633D01*
X1114Y1633D02*
X1135Y1633D01*
X1179Y1633D02*
X1200Y1633D01*
X1214Y1633D02*
X1235Y1633D01*
X1279Y1633D02*
X1300Y1633D01*
X1314Y1633D02*
X1335Y1633D01*
X1379Y1633D02*
X1400Y1633D01*
X1414Y1633D02*
X1435Y1633D01*
X1479Y1633D02*
X1500Y1633D01*
X1514Y1633D02*
X1535Y1633D01*
X1579Y1633D02*
X1600Y1633D01*
X1614Y1633D02*
X1635Y1633D01*
X1679Y1633D02*
X1700Y1633D01*
X1714Y1633D02*
X1735Y1633D01*
X1779Y1633D02*
X1800Y1633D01*
X1814Y1633D02*
X1835Y1633D01*
X179Y1632D02*
X197Y1632D01*
X217Y1632D02*
X235Y1632D01*
X279Y1632D02*
X297Y1632D01*
X317Y1632D02*
X335Y1632D01*
X379Y1632D02*
X397Y1632D01*
X417Y1632D02*
X435Y1632D01*
X479Y1632D02*
X497Y1632D01*
X517Y1632D02*
X535Y1632D01*
X579Y1632D02*
X597Y1632D01*
X617Y1632D02*
X635Y1632D01*
X679Y1632D02*
X697Y1632D01*
X717Y1632D02*
X735Y1632D01*
X779Y1632D02*
X797Y1632D01*
X817Y1632D02*
X835Y1632D01*
X879Y1632D02*
X897Y1632D01*
X917Y1632D02*
X935Y1632D01*
X1079Y1632D02*
X1097Y1632D01*
X1117Y1632D02*
X1135Y1632D01*
X1179Y1632D02*
X1197Y1632D01*
X1217Y1632D02*
X1235Y1632D01*
X1279Y1632D02*
X1297Y1632D01*
X1317Y1632D02*
X1335Y1632D01*
X1379Y1632D02*
X1397Y1632D01*
X1417Y1632D02*
X1435Y1632D01*
X1479Y1632D02*
X1497Y1632D01*
X1517Y1632D02*
X1535Y1632D01*
X1579Y1632D02*
X1597Y1632D01*
X1617Y1632D02*
X1635Y1632D01*
X1679Y1632D02*
X1697Y1632D01*
X1717Y1632D02*
X1735Y1632D01*
X1779Y1632D02*
X1797Y1632D01*
X1817Y1632D02*
X1835Y1632D01*
X179Y1631D02*
X195Y1631D01*
X220Y1631D02*
X235Y1631D01*
X279Y1631D02*
X294Y1631D01*
X320Y1631D02*
X335Y1631D01*
X379Y1631D02*
X394Y1631D01*
X420Y1631D02*
X435Y1631D01*
X479Y1631D02*
X494Y1631D01*
X520Y1631D02*
X535Y1631D01*
X579Y1631D02*
X594Y1631D01*
X620Y1631D02*
X635Y1631D01*
X679Y1631D02*
X694Y1631D01*
X720Y1631D02*
X735Y1631D01*
X779Y1631D02*
X794Y1631D01*
X820Y1631D02*
X835Y1631D01*
X879Y1631D02*
X894Y1631D01*
X920Y1631D02*
X935Y1631D01*
X1079Y1631D02*
X1094Y1631D01*
X1119Y1631D02*
X1135Y1631D01*
X1179Y1631D02*
X1194Y1631D01*
X1219Y1631D02*
X1235Y1631D01*
X1279Y1631D02*
X1294Y1631D01*
X1319Y1631D02*
X1335Y1631D01*
X1379Y1631D02*
X1394Y1631D01*
X1419Y1631D02*
X1435Y1631D01*
X1479Y1631D02*
X1494Y1631D01*
X1519Y1631D02*
X1535Y1631D01*
X1579Y1631D02*
X1594Y1631D01*
X1619Y1631D02*
X1635Y1631D01*
X1679Y1631D02*
X1694Y1631D01*
X1719Y1631D02*
X1735Y1631D01*
X1779Y1631D02*
X1794Y1631D01*
X1819Y1631D02*
X1835Y1631D01*
X179Y1630D02*
X193Y1630D01*
X222Y1630D02*
X235Y1630D01*
X279Y1630D02*
X293Y1630D01*
X322Y1630D02*
X335Y1630D01*
X379Y1630D02*
X393Y1630D01*
X422Y1630D02*
X435Y1630D01*
X479Y1630D02*
X492Y1630D01*
X522Y1630D02*
X535Y1630D01*
X579Y1630D02*
X592Y1630D01*
X622Y1630D02*
X635Y1630D01*
X679Y1630D02*
X692Y1630D01*
X722Y1630D02*
X735Y1630D01*
X779Y1630D02*
X792Y1630D01*
X822Y1630D02*
X835Y1630D01*
X879Y1630D02*
X892Y1630D01*
X921Y1630D02*
X935Y1630D01*
X1079Y1630D02*
X1092Y1630D01*
X1121Y1630D02*
X1135Y1630D01*
X1179Y1630D02*
X1192Y1630D01*
X1221Y1630D02*
X1235Y1630D01*
X1279Y1630D02*
X1292Y1630D01*
X1321Y1630D02*
X1335Y1630D01*
X1379Y1630D02*
X1392Y1630D01*
X1421Y1630D02*
X1435Y1630D01*
X1479Y1630D02*
X1492Y1630D01*
X1521Y1630D02*
X1535Y1630D01*
X1579Y1630D02*
X1592Y1630D01*
X1621Y1630D02*
X1635Y1630D01*
X1679Y1630D02*
X1692Y1630D01*
X1721Y1630D02*
X1735Y1630D01*
X1779Y1630D02*
X1792Y1630D01*
X1821Y1630D02*
X1835Y1630D01*
X179Y1629D02*
X191Y1629D01*
X223Y1629D02*
X235Y1629D01*
X279Y1629D02*
X291Y1629D01*
X323Y1629D02*
X335Y1629D01*
X379Y1629D02*
X391Y1629D01*
X423Y1629D02*
X435Y1629D01*
X479Y1629D02*
X491Y1629D01*
X523Y1629D02*
X535Y1629D01*
X579Y1629D02*
X591Y1629D01*
X623Y1629D02*
X635Y1629D01*
X679Y1629D02*
X691Y1629D01*
X723Y1629D02*
X735Y1629D01*
X779Y1629D02*
X791Y1629D01*
X823Y1629D02*
X835Y1629D01*
X879Y1629D02*
X891Y1629D01*
X923Y1629D02*
X935Y1629D01*
X1079Y1629D02*
X1091Y1629D01*
X1123Y1629D02*
X1135Y1629D01*
X1179Y1629D02*
X1191Y1629D01*
X1223Y1629D02*
X1235Y1629D01*
X1279Y1629D02*
X1291Y1629D01*
X1323Y1629D02*
X1335Y1629D01*
X1379Y1629D02*
X1391Y1629D01*
X1423Y1629D02*
X1435Y1629D01*
X1479Y1629D02*
X1491Y1629D01*
X1523Y1629D02*
X1535Y1629D01*
X1579Y1629D02*
X1591Y1629D01*
X1623Y1629D02*
X1635Y1629D01*
X1679Y1629D02*
X1691Y1629D01*
X1723Y1629D02*
X1735Y1629D01*
X1779Y1629D02*
X1791Y1629D01*
X1823Y1629D02*
X1835Y1629D01*
X179Y1628D02*
X190Y1628D01*
X225Y1628D02*
X235Y1628D01*
X279Y1628D02*
X290Y1628D01*
X325Y1628D02*
X335Y1628D01*
X379Y1628D02*
X390Y1628D01*
X425Y1628D02*
X435Y1628D01*
X479Y1628D02*
X490Y1628D01*
X525Y1628D02*
X535Y1628D01*
X579Y1628D02*
X590Y1628D01*
X624Y1628D02*
X635Y1628D01*
X679Y1628D02*
X690Y1628D01*
X724Y1628D02*
X735Y1628D01*
X779Y1628D02*
X789Y1628D01*
X824Y1628D02*
X835Y1628D01*
X879Y1628D02*
X889Y1628D01*
X924Y1628D02*
X935Y1628D01*
X1079Y1628D02*
X1089Y1628D01*
X1124Y1628D02*
X1135Y1628D01*
X1179Y1628D02*
X1189Y1628D01*
X1224Y1628D02*
X1235Y1628D01*
X1279Y1628D02*
X1289Y1628D01*
X1324Y1628D02*
X1335Y1628D01*
X1379Y1628D02*
X1389Y1628D01*
X1424Y1628D02*
X1435Y1628D01*
X1479Y1628D02*
X1489Y1628D01*
X1524Y1628D02*
X1535Y1628D01*
X1579Y1628D02*
X1589Y1628D01*
X1624Y1628D02*
X1635Y1628D01*
X1679Y1628D02*
X1689Y1628D01*
X1724Y1628D02*
X1735Y1628D01*
X1779Y1628D02*
X1789Y1628D01*
X1824Y1628D02*
X1835Y1628D01*
X179Y1627D02*
X188Y1627D01*
X226Y1627D02*
X235Y1627D01*
X279Y1627D02*
X288Y1627D01*
X326Y1627D02*
X335Y1627D01*
X379Y1627D02*
X388Y1627D01*
X426Y1627D02*
X435Y1627D01*
X479Y1627D02*
X488Y1627D01*
X526Y1627D02*
X535Y1627D01*
X579Y1627D02*
X588Y1627D01*
X626Y1627D02*
X635Y1627D01*
X679Y1627D02*
X688Y1627D01*
X726Y1627D02*
X735Y1627D01*
X779Y1627D02*
X788Y1627D01*
X826Y1627D02*
X835Y1627D01*
X879Y1627D02*
X888Y1627D01*
X926Y1627D02*
X935Y1627D01*
X1079Y1627D02*
X1088Y1627D01*
X1126Y1627D02*
X1135Y1627D01*
X1179Y1627D02*
X1188Y1627D01*
X1226Y1627D02*
X1235Y1627D01*
X1279Y1627D02*
X1288Y1627D01*
X1326Y1627D02*
X1335Y1627D01*
X1379Y1627D02*
X1388Y1627D01*
X1426Y1627D02*
X1435Y1627D01*
X1479Y1627D02*
X1488Y1627D01*
X1525Y1627D02*
X1535Y1627D01*
X1579Y1627D02*
X1588Y1627D01*
X1625Y1627D02*
X1635Y1627D01*
X1679Y1627D02*
X1688Y1627D01*
X1725Y1627D02*
X1735Y1627D01*
X1779Y1627D02*
X1788Y1627D01*
X1825Y1627D02*
X1835Y1627D01*
X179Y1626D02*
X187Y1626D01*
X227Y1626D02*
X235Y1626D01*
X279Y1626D02*
X287Y1626D01*
X327Y1626D02*
X335Y1626D01*
X379Y1626D02*
X387Y1626D01*
X427Y1626D02*
X435Y1626D01*
X479Y1626D02*
X487Y1626D01*
X527Y1626D02*
X535Y1626D01*
X579Y1626D02*
X587Y1626D01*
X627Y1626D02*
X635Y1626D01*
X679Y1626D02*
X687Y1626D01*
X727Y1626D02*
X735Y1626D01*
X779Y1626D02*
X787Y1626D01*
X827Y1626D02*
X835Y1626D01*
X879Y1626D02*
X887Y1626D01*
X927Y1626D02*
X935Y1626D01*
X1079Y1626D02*
X1087Y1626D01*
X1127Y1626D02*
X1135Y1626D01*
X1179Y1626D02*
X1187Y1626D01*
X1227Y1626D02*
X1235Y1626D01*
X1279Y1626D02*
X1287Y1626D01*
X1327Y1626D02*
X1335Y1626D01*
X1379Y1626D02*
X1387Y1626D01*
X1427Y1626D02*
X1435Y1626D01*
X1479Y1626D02*
X1487Y1626D01*
X1527Y1626D02*
X1535Y1626D01*
X1579Y1626D02*
X1587Y1626D01*
X1627Y1626D02*
X1635Y1626D01*
X1679Y1626D02*
X1687Y1626D01*
X1727Y1626D02*
X1735Y1626D01*
X1779Y1626D02*
X1787Y1626D01*
X1827Y1626D02*
X1835Y1626D01*
X179Y1625D02*
X186Y1625D01*
X228Y1625D02*
X235Y1625D01*
X279Y1625D02*
X286Y1625D01*
X328Y1625D02*
X335Y1625D01*
X379Y1625D02*
X386Y1625D01*
X428Y1625D02*
X435Y1625D01*
X479Y1625D02*
X486Y1625D01*
X528Y1625D02*
X535Y1625D01*
X579Y1625D02*
X586Y1625D01*
X628Y1625D02*
X635Y1625D01*
X679Y1625D02*
X686Y1625D01*
X728Y1625D02*
X735Y1625D01*
X779Y1625D02*
X786Y1625D01*
X828Y1625D02*
X835Y1625D01*
X879Y1625D02*
X886Y1625D01*
X928Y1625D02*
X935Y1625D01*
X1079Y1625D02*
X1086Y1625D01*
X1128Y1625D02*
X1135Y1625D01*
X1179Y1625D02*
X1186Y1625D01*
X1228Y1625D02*
X1235Y1625D01*
X1279Y1625D02*
X1286Y1625D01*
X1328Y1625D02*
X1335Y1625D01*
X1379Y1625D02*
X1386Y1625D01*
X1428Y1625D02*
X1435Y1625D01*
X1479Y1625D02*
X1486Y1625D01*
X1528Y1625D02*
X1535Y1625D01*
X1579Y1625D02*
X1586Y1625D01*
X1628Y1625D02*
X1635Y1625D01*
X1679Y1625D02*
X1686Y1625D01*
X1728Y1625D02*
X1735Y1625D01*
X1779Y1625D02*
X1786Y1625D01*
X1828Y1625D02*
X1835Y1625D01*
X179Y1624D02*
X185Y1624D01*
X229Y1624D02*
X235Y1624D01*
X279Y1624D02*
X285Y1624D01*
X329Y1624D02*
X335Y1624D01*
X379Y1624D02*
X385Y1624D01*
X429Y1624D02*
X435Y1624D01*
X479Y1624D02*
X485Y1624D01*
X529Y1624D02*
X535Y1624D01*
X579Y1624D02*
X585Y1624D01*
X629Y1624D02*
X635Y1624D01*
X679Y1624D02*
X685Y1624D01*
X729Y1624D02*
X735Y1624D01*
X779Y1624D02*
X785Y1624D01*
X829Y1624D02*
X835Y1624D01*
X879Y1624D02*
X885Y1624D01*
X929Y1624D02*
X935Y1624D01*
X1079Y1624D02*
X1085Y1624D01*
X1129Y1624D02*
X1135Y1624D01*
X1179Y1624D02*
X1185Y1624D01*
X1229Y1624D02*
X1235Y1624D01*
X1279Y1624D02*
X1285Y1624D01*
X1329Y1624D02*
X1335Y1624D01*
X1379Y1624D02*
X1385Y1624D01*
X1429Y1624D02*
X1435Y1624D01*
X1479Y1624D02*
X1485Y1624D01*
X1529Y1624D02*
X1535Y1624D01*
X1579Y1624D02*
X1585Y1624D01*
X1629Y1624D02*
X1635Y1624D01*
X1679Y1624D02*
X1685Y1624D01*
X1729Y1624D02*
X1735Y1624D01*
X1779Y1624D02*
X1785Y1624D01*
X1829Y1624D02*
X1835Y1624D01*
X179Y1623D02*
X185Y1623D01*
X230Y1623D02*
X235Y1623D01*
X279Y1623D02*
X284Y1623D01*
X330Y1623D02*
X335Y1623D01*
X379Y1623D02*
X384Y1623D01*
X430Y1623D02*
X435Y1623D01*
X479Y1623D02*
X484Y1623D01*
X530Y1623D02*
X535Y1623D01*
X579Y1623D02*
X584Y1623D01*
X630Y1623D02*
X635Y1623D01*
X679Y1623D02*
X684Y1623D01*
X730Y1623D02*
X735Y1623D01*
X779Y1623D02*
X784Y1623D01*
X830Y1623D02*
X835Y1623D01*
X879Y1623D02*
X884Y1623D01*
X930Y1623D02*
X935Y1623D01*
X1079Y1623D02*
X1084Y1623D01*
X1130Y1623D02*
X1135Y1623D01*
X1179Y1623D02*
X1184Y1623D01*
X1229Y1623D02*
X1235Y1623D01*
X1279Y1623D02*
X1284Y1623D01*
X1329Y1623D02*
X1335Y1623D01*
X1379Y1623D02*
X1384Y1623D01*
X1429Y1623D02*
X1435Y1623D01*
X1479Y1623D02*
X1484Y1623D01*
X1529Y1623D02*
X1535Y1623D01*
X1579Y1623D02*
X1584Y1623D01*
X1629Y1623D02*
X1635Y1623D01*
X1679Y1623D02*
X1684Y1623D01*
X1729Y1623D02*
X1735Y1623D01*
X1779Y1623D02*
X1784Y1623D01*
X1829Y1623D02*
X1835Y1623D01*
X179Y1622D02*
X184Y1622D01*
X231Y1622D02*
X235Y1622D01*
X279Y1622D02*
X284Y1622D01*
X331Y1622D02*
X335Y1622D01*
X379Y1622D02*
X384Y1622D01*
X430Y1622D02*
X435Y1622D01*
X479Y1622D02*
X484Y1622D01*
X530Y1622D02*
X535Y1622D01*
X579Y1622D02*
X584Y1622D01*
X630Y1622D02*
X635Y1622D01*
X679Y1622D02*
X684Y1622D01*
X730Y1622D02*
X735Y1622D01*
X779Y1622D02*
X784Y1622D01*
X830Y1622D02*
X835Y1622D01*
X879Y1622D02*
X884Y1622D01*
X930Y1622D02*
X935Y1622D01*
X1079Y1622D02*
X1083Y1622D01*
X1130Y1622D02*
X1135Y1622D01*
X1179Y1622D02*
X1183Y1622D01*
X1230Y1622D02*
X1235Y1622D01*
X1279Y1622D02*
X1283Y1622D01*
X1330Y1622D02*
X1335Y1622D01*
X1379Y1622D02*
X1383Y1622D01*
X1430Y1622D02*
X1435Y1622D01*
X1479Y1622D02*
X1483Y1622D01*
X1530Y1622D02*
X1535Y1622D01*
X1579Y1622D02*
X1583Y1622D01*
X1630Y1622D02*
X1635Y1622D01*
X1679Y1622D02*
X1683Y1622D01*
X1730Y1622D02*
X1735Y1622D01*
X1779Y1622D02*
X1783Y1622D01*
X1830Y1622D02*
X1835Y1622D01*
X179Y1621D02*
X183Y1621D01*
X231Y1621D02*
X235Y1621D01*
X279Y1621D02*
X283Y1621D01*
X331Y1621D02*
X335Y1621D01*
X379Y1621D02*
X383Y1621D01*
X431Y1621D02*
X435Y1621D01*
X479Y1621D02*
X483Y1621D01*
X531Y1621D02*
X535Y1621D01*
X579Y1621D02*
X583Y1621D01*
X631Y1621D02*
X635Y1621D01*
X679Y1621D02*
X683Y1621D01*
X731Y1621D02*
X735Y1621D01*
X779Y1621D02*
X783Y1621D01*
X831Y1621D02*
X835Y1621D01*
X879Y1621D02*
X883Y1621D01*
X931Y1621D02*
X935Y1621D01*
X1079Y1621D02*
X1083Y1621D01*
X1131Y1621D02*
X1135Y1621D01*
X1179Y1621D02*
X1183Y1621D01*
X1231Y1621D02*
X1235Y1621D01*
X1279Y1621D02*
X1283Y1621D01*
X1331Y1621D02*
X1335Y1621D01*
X1379Y1621D02*
X1383Y1621D01*
X1431Y1621D02*
X1435Y1621D01*
X1479Y1621D02*
X1483Y1621D01*
X1531Y1621D02*
X1535Y1621D01*
X1579Y1621D02*
X1583Y1621D01*
X1631Y1621D02*
X1635Y1621D01*
X1679Y1621D02*
X1683Y1621D01*
X1731Y1621D02*
X1735Y1621D01*
X1779Y1621D02*
X1783Y1621D01*
X1831Y1621D02*
X1835Y1621D01*
X179Y1620D02*
X182Y1620D01*
X232Y1620D02*
X235Y1620D01*
X279Y1620D02*
X282Y1620D01*
X332Y1620D02*
X335Y1620D01*
X379Y1620D02*
X382Y1620D01*
X432Y1620D02*
X435Y1620D01*
X479Y1620D02*
X482Y1620D01*
X532Y1620D02*
X535Y1620D01*
X579Y1620D02*
X582Y1620D01*
X632Y1620D02*
X635Y1620D01*
X679Y1620D02*
X682Y1620D01*
X732Y1620D02*
X735Y1620D01*
X779Y1620D02*
X782Y1620D01*
X832Y1620D02*
X835Y1620D01*
X879Y1620D02*
X882Y1620D01*
X932Y1620D02*
X935Y1620D01*
X1079Y1620D02*
X1082Y1620D01*
X1132Y1620D02*
X1135Y1620D01*
X1179Y1620D02*
X1182Y1620D01*
X1232Y1620D02*
X1235Y1620D01*
X1279Y1620D02*
X1282Y1620D01*
X1332Y1620D02*
X1335Y1620D01*
X1379Y1620D02*
X1382Y1620D01*
X1432Y1620D02*
X1435Y1620D01*
X1479Y1620D02*
X1482Y1620D01*
X1532Y1620D02*
X1535Y1620D01*
X1579Y1620D02*
X1582Y1620D01*
X1632Y1620D02*
X1635Y1620D01*
X1679Y1620D02*
X1682Y1620D01*
X1732Y1620D02*
X1735Y1620D01*
X1779Y1620D02*
X1782Y1620D01*
X1832Y1620D02*
X1835Y1620D01*
X179Y1619D02*
X182Y1619D01*
X233Y1619D02*
X235Y1619D01*
X279Y1619D02*
X282Y1619D01*
X333Y1619D02*
X335Y1619D01*
X379Y1619D02*
X382Y1619D01*
X432Y1619D02*
X435Y1619D01*
X479Y1619D02*
X482Y1619D01*
X532Y1619D02*
X535Y1619D01*
X579Y1619D02*
X582Y1619D01*
X632Y1619D02*
X635Y1619D01*
X679Y1619D02*
X682Y1619D01*
X732Y1619D02*
X735Y1619D01*
X779Y1619D02*
X782Y1619D01*
X832Y1619D02*
X835Y1619D01*
X879Y1619D02*
X882Y1619D01*
X932Y1619D02*
X935Y1619D01*
X1079Y1619D02*
X1081Y1619D01*
X1132Y1619D02*
X1135Y1619D01*
X1179Y1619D02*
X1181Y1619D01*
X1232Y1619D02*
X1235Y1619D01*
X1279Y1619D02*
X1281Y1619D01*
X1332Y1619D02*
X1335Y1619D01*
X1379Y1619D02*
X1381Y1619D01*
X1432Y1619D02*
X1435Y1619D01*
X1479Y1619D02*
X1481Y1619D01*
X1532Y1619D02*
X1535Y1619D01*
X1579Y1619D02*
X1581Y1619D01*
X1632Y1619D02*
X1635Y1619D01*
X1679Y1619D02*
X1681Y1619D01*
X1732Y1619D02*
X1735Y1619D01*
X1779Y1619D02*
X1781Y1619D01*
X1832Y1619D02*
X1835Y1619D01*
X179Y1618D02*
X181Y1618D01*
X233Y1618D02*
X235Y1618D01*
X279Y1618D02*
X281Y1618D01*
X333Y1618D02*
X335Y1618D01*
X379Y1618D02*
X381Y1618D01*
X433Y1618D02*
X435Y1618D01*
X479Y1618D02*
X481Y1618D01*
X533Y1618D02*
X535Y1618D01*
X579Y1618D02*
X581Y1618D01*
X633Y1618D02*
X635Y1618D01*
X679Y1618D02*
X681Y1618D01*
X733Y1618D02*
X735Y1618D01*
X779Y1618D02*
X781Y1618D01*
X833Y1618D02*
X835Y1618D01*
X879Y1618D02*
X881Y1618D01*
X933Y1618D02*
X935Y1618D01*
X1079Y1618D02*
X1081Y1618D01*
X1133Y1618D02*
X1135Y1618D01*
X1179Y1618D02*
X1181Y1618D01*
X1233Y1618D02*
X1235Y1618D01*
X1279Y1618D02*
X1281Y1618D01*
X1333Y1618D02*
X1335Y1618D01*
X1379Y1618D02*
X1381Y1618D01*
X1433Y1618D02*
X1435Y1618D01*
X1479Y1618D02*
X1481Y1618D01*
X1533Y1618D02*
X1535Y1618D01*
X1579Y1618D02*
X1581Y1618D01*
X1633Y1618D02*
X1635Y1618D01*
X1679Y1618D02*
X1681Y1618D01*
X1733Y1618D02*
X1735Y1618D01*
X1779Y1618D02*
X1781Y1618D01*
X1833Y1618D02*
X1835Y1618D01*
X179Y1617D02*
X181Y1617D01*
X234Y1617D02*
X235Y1617D01*
X279Y1617D02*
X281Y1617D01*
X334Y1617D02*
X335Y1617D01*
X379Y1617D02*
X381Y1617D01*
X433Y1617D02*
X435Y1617D01*
X479Y1617D02*
X481Y1617D01*
X533Y1617D02*
X535Y1617D01*
X579Y1617D02*
X581Y1617D01*
X633Y1617D02*
X635Y1617D01*
X679Y1617D02*
X681Y1617D01*
X733Y1617D02*
X735Y1617D01*
X779Y1617D02*
X781Y1617D01*
X833Y1617D02*
X835Y1617D01*
X879Y1617D02*
X881Y1617D01*
X933Y1617D02*
X935Y1617D01*
X1079Y1617D02*
X1080Y1617D01*
X1133Y1617D02*
X1135Y1617D01*
X1179Y1617D02*
X1180Y1617D01*
X1233Y1617D02*
X1235Y1617D01*
X1279Y1617D02*
X1280Y1617D01*
X1333Y1617D02*
X1335Y1617D01*
X1379Y1617D02*
X1380Y1617D01*
X1433Y1617D02*
X1435Y1617D01*
X1479Y1617D02*
X1480Y1617D01*
X1533Y1617D02*
X1535Y1617D01*
X1579Y1617D02*
X1580Y1617D01*
X1633Y1617D02*
X1635Y1617D01*
X1679Y1617D02*
X1680Y1617D01*
X1733Y1617D02*
X1735Y1617D01*
X1779Y1617D02*
X1780Y1617D01*
X1833Y1617D02*
X1835Y1617D01*
X179Y1616D02*
X180Y1616D01*
X234Y1616D02*
X235Y1616D01*
X279Y1616D02*
X280Y1616D01*
X334Y1616D02*
X335Y1616D01*
X379Y1616D02*
X380Y1616D01*
X434Y1616D02*
X435Y1616D01*
X479Y1616D02*
X480Y1616D01*
X534Y1616D02*
X535Y1616D01*
X579Y1616D02*
X580Y1616D01*
X634Y1616D02*
X635Y1616D01*
X679Y1616D02*
X680Y1616D01*
X734Y1616D02*
X735Y1616D01*
X779Y1616D02*
X780Y1616D01*
X834Y1616D02*
X835Y1616D01*
X879Y1616D02*
X880Y1616D01*
X934Y1616D02*
X935Y1616D01*
X1079Y1616D02*
X1080Y1616D01*
X1134Y1616D02*
X1135Y1616D01*
X1179Y1616D02*
X1180Y1616D01*
X1234Y1616D02*
X1235Y1616D01*
X1279Y1616D02*
X1280Y1616D01*
X1334Y1616D02*
X1335Y1616D01*
X1379Y1616D02*
X1380Y1616D01*
X1434Y1616D02*
X1435Y1616D01*
X1479Y1616D02*
X1480Y1616D01*
X1534Y1616D02*
X1535Y1616D01*
X1579Y1616D02*
X1580Y1616D01*
X1634Y1616D02*
X1635Y1616D01*
X1679Y1616D02*
X1680Y1616D01*
X1734Y1616D02*
X1735Y1616D01*
X1779Y1616D02*
X1780Y1616D01*
X1834Y1616D02*
X1835Y1616D01*
X179Y1615D02*
X180Y1615D01*
X234Y1615D02*
X235Y1615D01*
X279Y1615D02*
X280Y1615D01*
X334Y1615D02*
X335Y1615D01*
X379Y1615D02*
X380Y1615D01*
X434Y1615D02*
X435Y1615D01*
X479Y1615D02*
X480Y1615D01*
X534Y1615D02*
X535Y1615D01*
X579Y1615D02*
X580Y1615D01*
X634Y1615D02*
X635Y1615D01*
X679Y1615D02*
X680Y1615D01*
X734Y1615D02*
X735Y1615D01*
X779Y1615D02*
X780Y1615D01*
X834Y1615D02*
X835Y1615D01*
X879Y1615D02*
X880Y1615D01*
X934Y1615D02*
X935Y1615D01*
X1079Y1615D02*
X1080Y1615D01*
X1134Y1615D02*
X1135Y1615D01*
X1179Y1615D02*
X1180Y1615D01*
X1234Y1615D02*
X1235Y1615D01*
X1279Y1615D02*
X1280Y1615D01*
X1334Y1615D02*
X1335Y1615D01*
X1379Y1615D02*
X1380Y1615D01*
X1434Y1615D02*
X1435Y1615D01*
X1479Y1615D02*
X1480Y1615D01*
X1534Y1615D02*
X1535Y1615D01*
X1579Y1615D02*
X1580Y1615D01*
X1634Y1615D02*
X1635Y1615D01*
X1679Y1615D02*
X1680Y1615D01*
X1734Y1615D02*
X1735Y1615D01*
X1779Y1615D02*
X1780Y1615D01*
X1834Y1615D02*
X1835Y1615D01*
X179Y1614D02*
X180Y1614D01*
X235Y1614D02*
X235Y1614D01*
X279Y1614D02*
X279Y1614D01*
X335Y1614D02*
X335Y1614D01*
X379Y1614D02*
X379Y1614D01*
X435Y1614D02*
X435Y1614D01*
X479Y1614D02*
X479Y1614D01*
X535Y1614D02*
X535Y1614D01*
X579Y1614D02*
X579Y1614D01*
X635Y1614D02*
X635Y1614D01*
X679Y1614D02*
X679Y1614D01*
X735Y1614D02*
X735Y1614D01*
X779Y1614D02*
X779Y1614D01*
X835Y1614D02*
X835Y1614D01*
X879Y1614D02*
X879Y1614D01*
X935Y1614D02*
X935Y1614D01*
X1079Y1614D02*
X1079Y1614D01*
X1134Y1614D02*
X1135Y1614D01*
X1179Y1614D02*
X1179Y1614D01*
X1234Y1614D02*
X1235Y1614D01*
X1279Y1614D02*
X1279Y1614D01*
X1334Y1614D02*
X1335Y1614D01*
X1379Y1614D02*
X1379Y1614D01*
X1434Y1614D02*
X1435Y1614D01*
X1479Y1614D02*
X1479Y1614D01*
X1534Y1614D02*
X1535Y1614D01*
X1579Y1614D02*
X1579Y1614D01*
X1634Y1614D02*
X1635Y1614D01*
X1679Y1614D02*
X1679Y1614D01*
X1734Y1614D02*
X1735Y1614D01*
X1779Y1614D02*
X1779Y1614D01*
X1834Y1614D02*
X1835Y1614D01*
X179Y1613D02*
X179Y1613D01*
X235Y1613D02*
X235Y1613D01*
X279Y1613D02*
X279Y1613D01*
X335Y1613D02*
X335Y1613D01*
X379Y1613D02*
X379Y1613D01*
X435Y1613D02*
X435Y1613D01*
X479Y1613D02*
X479Y1613D01*
X535Y1613D02*
X535Y1613D01*
X579Y1613D02*
X579Y1613D01*
X635Y1613D02*
X635Y1613D01*
X679Y1613D02*
X679Y1613D01*
X735Y1613D02*
X735Y1613D01*
X779Y1613D02*
X779Y1613D01*
X835Y1613D02*
X835Y1613D01*
X879Y1613D02*
X879Y1613D01*
X935Y1613D02*
X935Y1613D01*
X1079Y1613D02*
X1079Y1613D01*
X1135Y1613D02*
X1135Y1613D01*
X1179Y1613D02*
X1179Y1613D01*
X1235Y1613D02*
X1235Y1613D01*
X1279Y1613D02*
X1279Y1613D01*
X1335Y1613D02*
X1335Y1613D01*
X1379Y1613D02*
X1379Y1613D01*
X1435Y1613D02*
X1435Y1613D01*
X1479Y1613D02*
X1479Y1613D01*
X1535Y1613D02*
X1535Y1613D01*
X1579Y1613D02*
X1579Y1613D01*
X1635Y1613D02*
X1635Y1613D01*
X1679Y1613D02*
X1679Y1613D01*
X1735Y1613D02*
X1735Y1613D01*
X1779Y1613D02*
X1779Y1613D01*
X1835Y1613D02*
X1835Y1613D01*
X179Y1612D02*
X179Y1612D01*
X235Y1612D02*
X235Y1612D01*
X279Y1612D02*
X279Y1612D01*
X335Y1612D02*
X335Y1612D01*
X379Y1612D02*
X379Y1612D01*
X435Y1612D02*
X435Y1612D01*
X479Y1612D02*
X479Y1612D01*
X535Y1612D02*
X535Y1612D01*
X579Y1612D02*
X579Y1612D01*
X635Y1612D02*
X635Y1612D01*
X679Y1612D02*
X679Y1612D01*
X735Y1612D02*
X735Y1612D01*
X779Y1612D02*
X779Y1612D01*
X835Y1612D02*
X835Y1612D01*
X879Y1612D02*
X879Y1612D01*
X935Y1612D02*
X935Y1612D01*
X1079Y1612D02*
X1079Y1612D01*
X1135Y1612D02*
X1135Y1612D01*
X1179Y1612D02*
X1179Y1612D01*
X1235Y1612D02*
X1235Y1612D01*
X1279Y1612D02*
X1279Y1612D01*
X1335Y1612D02*
X1335Y1612D01*
X1379Y1612D02*
X1379Y1612D01*
X1435Y1612D02*
X1435Y1612D01*
X1479Y1612D02*
X1479Y1612D01*
X1535Y1612D02*
X1535Y1612D01*
X1579Y1612D02*
X1579Y1612D01*
X1635Y1612D02*
X1635Y1612D01*
X1679Y1612D02*
X1679Y1612D01*
X1735Y1612D02*
X1735Y1612D01*
X1779Y1612D02*
X1779Y1612D01*
X1835Y1612D02*
X1835Y1612D01*
X179Y1611D02*
X179Y1611D01*
X279Y1611D02*
X279Y1611D01*
X335Y1611D02*
X335Y1611D01*
X379Y1611D02*
X379Y1611D01*
X435Y1611D02*
X435Y1611D01*
X479Y1611D02*
X479Y1611D01*
X535Y1611D02*
X535Y1611D01*
X579Y1611D02*
X579Y1611D01*
X635Y1611D02*
X635Y1611D01*
X679Y1611D02*
X679Y1611D01*
X735Y1611D02*
X735Y1611D01*
X779Y1611D02*
X779Y1611D01*
X835Y1611D02*
X835Y1611D01*
X879Y1611D02*
X879Y1611D01*
X935Y1611D02*
X935Y1611D01*
X1079Y1611D02*
X1079Y1611D01*
X1135Y1611D02*
X1135Y1611D01*
X1235Y1611D02*
X1235Y1611D01*
X1335Y1611D02*
X1335Y1611D01*
X1435Y1611D02*
X1435Y1611D01*
X1535Y1611D02*
X1535Y1611D01*
X1635Y1611D02*
X1635Y1611D01*
X1735Y1611D02*
X1735Y1611D01*
X1835Y1611D02*
X1835Y1611D01*
X379Y1600D02*
X379Y1600D01*
X579Y1600D02*
X579Y1600D01*
X735Y1600D02*
X735Y1600D01*
X835Y1600D02*
X835Y1600D01*
X935Y1600D02*
X935Y1600D01*
X1135Y1600D02*
X1135Y1600D01*
X1235Y1600D02*
X1235Y1600D01*
X1335Y1600D02*
X1335Y1600D01*
X1435Y1600D02*
X1435Y1600D01*
X1535Y1600D02*
X1535Y1600D01*
X1635Y1600D02*
X1635Y1600D01*
X1735Y1600D02*
X1735Y1600D01*
X1835Y1600D02*
X1835Y1600D01*
X179Y1599D02*
X179Y1599D01*
X235Y1599D02*
X235Y1599D01*
X279Y1599D02*
X279Y1599D01*
X335Y1599D02*
X335Y1599D01*
X379Y1599D02*
X379Y1599D01*
X435Y1599D02*
X435Y1599D01*
X479Y1599D02*
X479Y1599D01*
X535Y1599D02*
X535Y1599D01*
X579Y1599D02*
X579Y1599D01*
X635Y1599D02*
X635Y1599D01*
X679Y1599D02*
X679Y1599D01*
X735Y1599D02*
X735Y1599D01*
X779Y1599D02*
X779Y1599D01*
X835Y1599D02*
X835Y1599D01*
X879Y1599D02*
X879Y1599D01*
X935Y1599D02*
X935Y1599D01*
X1079Y1599D02*
X1079Y1599D01*
X1135Y1599D02*
X1135Y1599D01*
X1179Y1599D02*
X1179Y1599D01*
X1235Y1599D02*
X1235Y1599D01*
X1279Y1599D02*
X1279Y1599D01*
X1335Y1599D02*
X1335Y1599D01*
X1379Y1599D02*
X1379Y1599D01*
X1435Y1599D02*
X1435Y1599D01*
X1479Y1599D02*
X1479Y1599D01*
X1535Y1599D02*
X1535Y1599D01*
X1635Y1599D02*
X1635Y1599D01*
X1735Y1599D02*
X1735Y1599D01*
X1835Y1599D02*
X1835Y1599D01*
X179Y1598D02*
X179Y1598D01*
X235Y1598D02*
X235Y1598D01*
X279Y1598D02*
X279Y1598D01*
X335Y1598D02*
X335Y1598D01*
X379Y1598D02*
X379Y1598D01*
X435Y1598D02*
X435Y1598D01*
X479Y1598D02*
X479Y1598D01*
X535Y1598D02*
X535Y1598D01*
X579Y1598D02*
X579Y1598D01*
X635Y1598D02*
X635Y1598D01*
X679Y1598D02*
X679Y1598D01*
X735Y1598D02*
X735Y1598D01*
X779Y1598D02*
X779Y1598D01*
X835Y1598D02*
X835Y1598D01*
X879Y1598D02*
X879Y1598D01*
X935Y1598D02*
X935Y1598D01*
X1079Y1598D02*
X1079Y1598D01*
X1135Y1598D02*
X1135Y1598D01*
X1179Y1598D02*
X1179Y1598D01*
X1235Y1598D02*
X1235Y1598D01*
X1279Y1598D02*
X1279Y1598D01*
X1335Y1598D02*
X1335Y1598D01*
X1379Y1598D02*
X1379Y1598D01*
X1435Y1598D02*
X1435Y1598D01*
X1479Y1598D02*
X1479Y1598D01*
X1535Y1598D02*
X1535Y1598D01*
X1579Y1598D02*
X1579Y1598D01*
X1635Y1598D02*
X1635Y1598D01*
X1679Y1598D02*
X1679Y1598D01*
X1735Y1598D02*
X1735Y1598D01*
X1779Y1598D02*
X1779Y1598D01*
X1835Y1598D02*
X1835Y1598D01*
X179Y1597D02*
X179Y1597D01*
X235Y1597D02*
X235Y1597D01*
X279Y1597D02*
X279Y1597D01*
X335Y1597D02*
X335Y1597D01*
X379Y1597D02*
X379Y1597D01*
X435Y1597D02*
X435Y1597D01*
X479Y1597D02*
X479Y1597D01*
X535Y1597D02*
X535Y1597D01*
X579Y1597D02*
X579Y1597D01*
X635Y1597D02*
X635Y1597D01*
X679Y1597D02*
X679Y1597D01*
X735Y1597D02*
X735Y1597D01*
X779Y1597D02*
X779Y1597D01*
X835Y1597D02*
X835Y1597D01*
X879Y1597D02*
X879Y1597D01*
X935Y1597D02*
X935Y1597D01*
X1079Y1597D02*
X1079Y1597D01*
X1135Y1597D02*
X1135Y1597D01*
X1179Y1597D02*
X1179Y1597D01*
X1235Y1597D02*
X1235Y1597D01*
X1279Y1597D02*
X1279Y1597D01*
X1335Y1597D02*
X1335Y1597D01*
X1379Y1597D02*
X1379Y1597D01*
X1435Y1597D02*
X1435Y1597D01*
X1479Y1597D02*
X1479Y1597D01*
X1535Y1597D02*
X1535Y1597D01*
X1579Y1597D02*
X1579Y1597D01*
X1635Y1597D02*
X1635Y1597D01*
X1679Y1597D02*
X1679Y1597D01*
X1735Y1597D02*
X1735Y1597D01*
X1779Y1597D02*
X1779Y1597D01*
X1835Y1597D02*
X1835Y1597D01*
X179Y1596D02*
X180Y1596D01*
X235Y1596D02*
X235Y1596D01*
X279Y1596D02*
X280Y1596D01*
X335Y1596D02*
X335Y1596D01*
X379Y1596D02*
X380Y1596D01*
X434Y1596D02*
X435Y1596D01*
X479Y1596D02*
X480Y1596D01*
X534Y1596D02*
X535Y1596D01*
X579Y1596D02*
X580Y1596D01*
X634Y1596D02*
X635Y1596D01*
X679Y1596D02*
X680Y1596D01*
X734Y1596D02*
X735Y1596D01*
X779Y1596D02*
X780Y1596D01*
X834Y1596D02*
X835Y1596D01*
X879Y1596D02*
X880Y1596D01*
X934Y1596D02*
X935Y1596D01*
X1079Y1596D02*
X1079Y1596D01*
X1134Y1596D02*
X1135Y1596D01*
X1179Y1596D02*
X1179Y1596D01*
X1234Y1596D02*
X1235Y1596D01*
X1279Y1596D02*
X1279Y1596D01*
X1334Y1596D02*
X1335Y1596D01*
X1379Y1596D02*
X1379Y1596D01*
X1434Y1596D02*
X1435Y1596D01*
X1479Y1596D02*
X1479Y1596D01*
X1534Y1596D02*
X1535Y1596D01*
X1579Y1596D02*
X1579Y1596D01*
X1634Y1596D02*
X1635Y1596D01*
X1679Y1596D02*
X1679Y1596D01*
X1734Y1596D02*
X1735Y1596D01*
X1779Y1596D02*
X1779Y1596D01*
X1834Y1596D02*
X1835Y1596D01*
X179Y1595D02*
X180Y1595D01*
X234Y1595D02*
X235Y1595D01*
X279Y1595D02*
X280Y1595D01*
X334Y1595D02*
X335Y1595D01*
X379Y1595D02*
X380Y1595D01*
X434Y1595D02*
X435Y1595D01*
X479Y1595D02*
X480Y1595D01*
X534Y1595D02*
X535Y1595D01*
X579Y1595D02*
X580Y1595D01*
X634Y1595D02*
X635Y1595D01*
X679Y1595D02*
X680Y1595D01*
X734Y1595D02*
X735Y1595D01*
X779Y1595D02*
X780Y1595D01*
X834Y1595D02*
X835Y1595D01*
X879Y1595D02*
X880Y1595D01*
X934Y1595D02*
X935Y1595D01*
X1079Y1595D02*
X1080Y1595D01*
X1134Y1595D02*
X1135Y1595D01*
X1179Y1595D02*
X1180Y1595D01*
X1234Y1595D02*
X1235Y1595D01*
X1279Y1595D02*
X1280Y1595D01*
X1334Y1595D02*
X1335Y1595D01*
X1379Y1595D02*
X1380Y1595D01*
X1434Y1595D02*
X1435Y1595D01*
X1479Y1595D02*
X1480Y1595D01*
X1534Y1595D02*
X1535Y1595D01*
X1579Y1595D02*
X1580Y1595D01*
X1634Y1595D02*
X1635Y1595D01*
X1679Y1595D02*
X1680Y1595D01*
X1734Y1595D02*
X1735Y1595D01*
X1779Y1595D02*
X1780Y1595D01*
X1834Y1595D02*
X1835Y1595D01*
X179Y1594D02*
X180Y1594D01*
X234Y1594D02*
X235Y1594D01*
X279Y1594D02*
X280Y1594D01*
X334Y1594D02*
X335Y1594D01*
X379Y1594D02*
X380Y1594D01*
X434Y1594D02*
X435Y1594D01*
X479Y1594D02*
X480Y1594D01*
X534Y1594D02*
X535Y1594D01*
X579Y1594D02*
X580Y1594D01*
X634Y1594D02*
X635Y1594D01*
X679Y1594D02*
X680Y1594D01*
X734Y1594D02*
X735Y1594D01*
X779Y1594D02*
X780Y1594D01*
X834Y1594D02*
X835Y1594D01*
X879Y1594D02*
X880Y1594D01*
X934Y1594D02*
X935Y1594D01*
X1079Y1594D02*
X1080Y1594D01*
X1134Y1594D02*
X1135Y1594D01*
X1179Y1594D02*
X1180Y1594D01*
X1234Y1594D02*
X1235Y1594D01*
X1279Y1594D02*
X1280Y1594D01*
X1334Y1594D02*
X1335Y1594D01*
X1379Y1594D02*
X1380Y1594D01*
X1434Y1594D02*
X1435Y1594D01*
X1479Y1594D02*
X1480Y1594D01*
X1533Y1594D02*
X1535Y1594D01*
X1579Y1594D02*
X1580Y1594D01*
X1633Y1594D02*
X1635Y1594D01*
X1679Y1594D02*
X1680Y1594D01*
X1733Y1594D02*
X1735Y1594D01*
X1779Y1594D02*
X1780Y1594D01*
X1833Y1594D02*
X1835Y1594D01*
X179Y1593D02*
X181Y1593D01*
X233Y1593D02*
X235Y1593D01*
X279Y1593D02*
X281Y1593D01*
X333Y1593D02*
X335Y1593D01*
X379Y1593D02*
X381Y1593D01*
X433Y1593D02*
X435Y1593D01*
X479Y1593D02*
X481Y1593D01*
X533Y1593D02*
X535Y1593D01*
X579Y1593D02*
X581Y1593D01*
X633Y1593D02*
X635Y1593D01*
X679Y1593D02*
X681Y1593D01*
X733Y1593D02*
X735Y1593D01*
X779Y1593D02*
X781Y1593D01*
X833Y1593D02*
X835Y1593D01*
X879Y1593D02*
X881Y1593D01*
X933Y1593D02*
X935Y1593D01*
X1079Y1593D02*
X1081Y1593D01*
X1133Y1593D02*
X1135Y1593D01*
X1179Y1593D02*
X1181Y1593D01*
X1233Y1593D02*
X1235Y1593D01*
X1279Y1593D02*
X1281Y1593D01*
X1333Y1593D02*
X1335Y1593D01*
X1379Y1593D02*
X1381Y1593D01*
X1433Y1593D02*
X1435Y1593D01*
X1479Y1593D02*
X1481Y1593D01*
X1533Y1593D02*
X1535Y1593D01*
X1579Y1593D02*
X1581Y1593D01*
X1633Y1593D02*
X1635Y1593D01*
X1679Y1593D02*
X1681Y1593D01*
X1733Y1593D02*
X1735Y1593D01*
X1779Y1593D02*
X1781Y1593D01*
X1833Y1593D02*
X1835Y1593D01*
X179Y1592D02*
X181Y1592D01*
X233Y1592D02*
X235Y1592D01*
X279Y1592D02*
X281Y1592D01*
X333Y1592D02*
X335Y1592D01*
X379Y1592D02*
X381Y1592D01*
X433Y1592D02*
X435Y1592D01*
X479Y1592D02*
X481Y1592D01*
X533Y1592D02*
X535Y1592D01*
X579Y1592D02*
X581Y1592D01*
X633Y1592D02*
X635Y1592D01*
X679Y1592D02*
X681Y1592D01*
X733Y1592D02*
X735Y1592D01*
X779Y1592D02*
X781Y1592D01*
X833Y1592D02*
X835Y1592D01*
X879Y1592D02*
X881Y1592D01*
X933Y1592D02*
X935Y1592D01*
X1079Y1592D02*
X1081Y1592D01*
X1133Y1592D02*
X1135Y1592D01*
X1179Y1592D02*
X1181Y1592D01*
X1233Y1592D02*
X1235Y1592D01*
X1279Y1592D02*
X1281Y1592D01*
X1333Y1592D02*
X1335Y1592D01*
X1379Y1592D02*
X1381Y1592D01*
X1433Y1592D02*
X1435Y1592D01*
X1479Y1592D02*
X1481Y1592D01*
X1533Y1592D02*
X1535Y1592D01*
X1579Y1592D02*
X1581Y1592D01*
X1633Y1592D02*
X1635Y1592D01*
X1679Y1592D02*
X1681Y1592D01*
X1732Y1592D02*
X1735Y1592D01*
X1779Y1592D02*
X1781Y1592D01*
X1832Y1592D02*
X1835Y1592D01*
X179Y1591D02*
X182Y1591D01*
X232Y1591D02*
X235Y1591D01*
X279Y1591D02*
X282Y1591D01*
X332Y1591D02*
X335Y1591D01*
X379Y1591D02*
X382Y1591D01*
X432Y1591D02*
X435Y1591D01*
X479Y1591D02*
X482Y1591D01*
X532Y1591D02*
X535Y1591D01*
X579Y1591D02*
X582Y1591D01*
X632Y1591D02*
X635Y1591D01*
X679Y1591D02*
X682Y1591D01*
X732Y1591D02*
X735Y1591D01*
X779Y1591D02*
X782Y1591D01*
X832Y1591D02*
X835Y1591D01*
X879Y1591D02*
X882Y1591D01*
X932Y1591D02*
X935Y1591D01*
X1079Y1591D02*
X1082Y1591D01*
X1132Y1591D02*
X1135Y1591D01*
X1179Y1591D02*
X1182Y1591D01*
X1232Y1591D02*
X1235Y1591D01*
X1279Y1591D02*
X1282Y1591D01*
X1332Y1591D02*
X1335Y1591D01*
X1379Y1591D02*
X1382Y1591D01*
X1432Y1591D02*
X1435Y1591D01*
X1479Y1591D02*
X1482Y1591D01*
X1532Y1591D02*
X1535Y1591D01*
X1579Y1591D02*
X1582Y1591D01*
X1632Y1591D02*
X1635Y1591D01*
X1679Y1591D02*
X1682Y1591D01*
X1732Y1591D02*
X1735Y1591D01*
X1779Y1591D02*
X1782Y1591D01*
X1832Y1591D02*
X1835Y1591D01*
X179Y1590D02*
X183Y1590D01*
X232Y1590D02*
X235Y1590D01*
X279Y1590D02*
X283Y1590D01*
X332Y1590D02*
X335Y1590D01*
X379Y1590D02*
X383Y1590D01*
X432Y1590D02*
X435Y1590D01*
X479Y1590D02*
X482Y1590D01*
X532Y1590D02*
X535Y1590D01*
X579Y1590D02*
X582Y1590D01*
X632Y1590D02*
X635Y1590D01*
X679Y1590D02*
X682Y1590D01*
X732Y1590D02*
X735Y1590D01*
X779Y1590D02*
X782Y1590D01*
X832Y1590D02*
X835Y1590D01*
X879Y1590D02*
X882Y1590D01*
X932Y1590D02*
X935Y1590D01*
X1079Y1590D02*
X1082Y1590D01*
X1131Y1590D02*
X1135Y1590D01*
X1179Y1590D02*
X1182Y1590D01*
X1231Y1590D02*
X1235Y1590D01*
X1279Y1590D02*
X1282Y1590D01*
X1331Y1590D02*
X1335Y1590D01*
X1379Y1590D02*
X1382Y1590D01*
X1431Y1590D02*
X1435Y1590D01*
X1479Y1590D02*
X1482Y1590D01*
X1531Y1590D02*
X1535Y1590D01*
X1579Y1590D02*
X1582Y1590D01*
X1631Y1590D02*
X1635Y1590D01*
X1679Y1590D02*
X1682Y1590D01*
X1731Y1590D02*
X1735Y1590D01*
X1779Y1590D02*
X1782Y1590D01*
X1831Y1590D02*
X1835Y1590D01*
X179Y1589D02*
X183Y1589D01*
X231Y1589D02*
X235Y1589D01*
X279Y1589D02*
X283Y1589D01*
X331Y1589D02*
X335Y1589D01*
X379Y1589D02*
X383Y1589D01*
X431Y1589D02*
X435Y1589D01*
X479Y1589D02*
X483Y1589D01*
X531Y1589D02*
X535Y1589D01*
X579Y1589D02*
X583Y1589D01*
X631Y1589D02*
X635Y1589D01*
X679Y1589D02*
X683Y1589D01*
X731Y1589D02*
X735Y1589D01*
X779Y1589D02*
X783Y1589D01*
X831Y1589D02*
X835Y1589D01*
X879Y1589D02*
X883Y1589D01*
X931Y1589D02*
X935Y1589D01*
X1079Y1589D02*
X1083Y1589D01*
X1131Y1589D02*
X1135Y1589D01*
X1179Y1589D02*
X1183Y1589D01*
X1231Y1589D02*
X1235Y1589D01*
X1279Y1589D02*
X1283Y1589D01*
X1331Y1589D02*
X1335Y1589D01*
X1379Y1589D02*
X1383Y1589D01*
X1431Y1589D02*
X1435Y1589D01*
X1479Y1589D02*
X1483Y1589D01*
X1531Y1589D02*
X1535Y1589D01*
X1579Y1589D02*
X1583Y1589D01*
X1631Y1589D02*
X1635Y1589D01*
X1679Y1589D02*
X1683Y1589D01*
X1731Y1589D02*
X1735Y1589D01*
X1779Y1589D02*
X1783Y1589D01*
X1831Y1589D02*
X1835Y1589D01*
X179Y1588D02*
X184Y1588D01*
X230Y1588D02*
X235Y1588D01*
X279Y1588D02*
X284Y1588D01*
X330Y1588D02*
X335Y1588D01*
X379Y1588D02*
X384Y1588D01*
X430Y1588D02*
X435Y1588D01*
X479Y1588D02*
X484Y1588D01*
X530Y1588D02*
X535Y1588D01*
X579Y1588D02*
X584Y1588D01*
X630Y1588D02*
X635Y1588D01*
X679Y1588D02*
X684Y1588D01*
X730Y1588D02*
X735Y1588D01*
X779Y1588D02*
X784Y1588D01*
X830Y1588D02*
X835Y1588D01*
X879Y1588D02*
X884Y1588D01*
X930Y1588D02*
X935Y1588D01*
X1079Y1588D02*
X1084Y1588D01*
X1130Y1588D02*
X1135Y1588D01*
X1179Y1588D02*
X1184Y1588D01*
X1230Y1588D02*
X1235Y1588D01*
X1279Y1588D02*
X1284Y1588D01*
X1330Y1588D02*
X1335Y1588D01*
X1379Y1588D02*
X1384Y1588D01*
X1430Y1588D02*
X1435Y1588D01*
X1479Y1588D02*
X1484Y1588D01*
X1530Y1588D02*
X1535Y1588D01*
X1579Y1588D02*
X1584Y1588D01*
X1630Y1588D02*
X1635Y1588D01*
X1679Y1588D02*
X1684Y1588D01*
X1730Y1588D02*
X1735Y1588D01*
X1779Y1588D02*
X1784Y1588D01*
X1830Y1588D02*
X1835Y1588D01*
X179Y1587D02*
X185Y1587D01*
X229Y1587D02*
X235Y1587D01*
X279Y1587D02*
X285Y1587D01*
X329Y1587D02*
X335Y1587D01*
X379Y1587D02*
X385Y1587D01*
X429Y1587D02*
X435Y1587D01*
X479Y1587D02*
X485Y1587D01*
X529Y1587D02*
X535Y1587D01*
X579Y1587D02*
X585Y1587D01*
X629Y1587D02*
X635Y1587D01*
X679Y1587D02*
X685Y1587D01*
X729Y1587D02*
X735Y1587D01*
X779Y1587D02*
X785Y1587D01*
X829Y1587D02*
X835Y1587D01*
X879Y1587D02*
X885Y1587D01*
X929Y1587D02*
X935Y1587D01*
X1079Y1587D02*
X1085Y1587D01*
X1129Y1587D02*
X1135Y1587D01*
X1179Y1587D02*
X1185Y1587D01*
X1229Y1587D02*
X1235Y1587D01*
X1279Y1587D02*
X1285Y1587D01*
X1329Y1587D02*
X1335Y1587D01*
X1379Y1587D02*
X1385Y1587D01*
X1429Y1587D02*
X1435Y1587D01*
X1479Y1587D02*
X1485Y1587D01*
X1529Y1587D02*
X1535Y1587D01*
X1579Y1587D02*
X1585Y1587D01*
X1629Y1587D02*
X1635Y1587D01*
X1679Y1587D02*
X1685Y1587D01*
X1729Y1587D02*
X1735Y1587D01*
X1779Y1587D02*
X1784Y1587D01*
X1829Y1587D02*
X1835Y1587D01*
X179Y1586D02*
X186Y1586D01*
X229Y1586D02*
X235Y1586D01*
X279Y1586D02*
X286Y1586D01*
X329Y1586D02*
X335Y1586D01*
X379Y1586D02*
X386Y1586D01*
X428Y1586D02*
X435Y1586D01*
X479Y1586D02*
X486Y1586D01*
X528Y1586D02*
X535Y1586D01*
X579Y1586D02*
X586Y1586D01*
X628Y1586D02*
X635Y1586D01*
X679Y1586D02*
X686Y1586D01*
X728Y1586D02*
X735Y1586D01*
X779Y1586D02*
X786Y1586D01*
X828Y1586D02*
X835Y1586D01*
X879Y1586D02*
X886Y1586D01*
X928Y1586D02*
X935Y1586D01*
X1079Y1586D02*
X1085Y1586D01*
X1128Y1586D02*
X1135Y1586D01*
X1179Y1586D02*
X1185Y1586D01*
X1228Y1586D02*
X1235Y1586D01*
X1279Y1586D02*
X1285Y1586D01*
X1328Y1586D02*
X1335Y1586D01*
X1379Y1586D02*
X1385Y1586D01*
X1428Y1586D02*
X1435Y1586D01*
X1479Y1586D02*
X1485Y1586D01*
X1528Y1586D02*
X1535Y1586D01*
X1579Y1586D02*
X1585Y1586D01*
X1628Y1586D02*
X1635Y1586D01*
X1679Y1586D02*
X1685Y1586D01*
X1728Y1586D02*
X1735Y1586D01*
X1779Y1586D02*
X1785Y1586D01*
X1828Y1586D02*
X1835Y1586D01*
X179Y1585D02*
X187Y1585D01*
X228Y1585D02*
X235Y1585D01*
X279Y1585D02*
X287Y1585D01*
X328Y1585D02*
X335Y1585D01*
X379Y1585D02*
X387Y1585D01*
X428Y1585D02*
X435Y1585D01*
X479Y1585D02*
X487Y1585D01*
X528Y1585D02*
X535Y1585D01*
X579Y1585D02*
X586Y1585D01*
X628Y1585D02*
X635Y1585D01*
X679Y1585D02*
X686Y1585D01*
X728Y1585D02*
X735Y1585D01*
X779Y1585D02*
X786Y1585D01*
X828Y1585D02*
X835Y1585D01*
X879Y1585D02*
X886Y1585D01*
X927Y1585D02*
X935Y1585D01*
X1079Y1585D02*
X1086Y1585D01*
X1127Y1585D02*
X1135Y1585D01*
X1179Y1585D02*
X1186Y1585D01*
X1227Y1585D02*
X1235Y1585D01*
X1279Y1585D02*
X1286Y1585D01*
X1327Y1585D02*
X1335Y1585D01*
X1379Y1585D02*
X1386Y1585D01*
X1427Y1585D02*
X1435Y1585D01*
X1479Y1585D02*
X1486Y1585D01*
X1527Y1585D02*
X1535Y1585D01*
X1579Y1585D02*
X1586Y1585D01*
X1627Y1585D02*
X1635Y1585D01*
X1679Y1585D02*
X1686Y1585D01*
X1727Y1585D02*
X1735Y1585D01*
X1779Y1585D02*
X1786Y1585D01*
X1827Y1585D02*
X1835Y1585D01*
X179Y1584D02*
X188Y1584D01*
X226Y1584D02*
X235Y1584D01*
X279Y1584D02*
X288Y1584D01*
X326Y1584D02*
X335Y1584D01*
X379Y1584D02*
X388Y1584D01*
X426Y1584D02*
X435Y1584D01*
X479Y1584D02*
X488Y1584D01*
X526Y1584D02*
X535Y1584D01*
X579Y1584D02*
X588Y1584D01*
X626Y1584D02*
X635Y1584D01*
X679Y1584D02*
X688Y1584D01*
X726Y1584D02*
X735Y1584D01*
X779Y1584D02*
X788Y1584D01*
X826Y1584D02*
X835Y1584D01*
X879Y1584D02*
X888Y1584D01*
X926Y1584D02*
X935Y1584D01*
X1079Y1584D02*
X1088Y1584D01*
X1126Y1584D02*
X1135Y1584D01*
X1179Y1584D02*
X1188Y1584D01*
X1226Y1584D02*
X1235Y1584D01*
X1279Y1584D02*
X1288Y1584D01*
X1326Y1584D02*
X1335Y1584D01*
X1379Y1584D02*
X1387Y1584D01*
X1426Y1584D02*
X1435Y1584D01*
X1479Y1584D02*
X1487Y1584D01*
X1526Y1584D02*
X1535Y1584D01*
X1579Y1584D02*
X1587Y1584D01*
X1626Y1584D02*
X1635Y1584D01*
X1679Y1584D02*
X1687Y1584D01*
X1726Y1584D02*
X1735Y1584D01*
X1779Y1584D02*
X1787Y1584D01*
X1826Y1584D02*
X1835Y1584D01*
X179Y1583D02*
X189Y1583D01*
X225Y1583D02*
X235Y1583D01*
X279Y1583D02*
X289Y1583D01*
X325Y1583D02*
X335Y1583D01*
X379Y1583D02*
X389Y1583D01*
X425Y1583D02*
X435Y1583D01*
X479Y1583D02*
X489Y1583D01*
X525Y1583D02*
X535Y1583D01*
X579Y1583D02*
X589Y1583D01*
X625Y1583D02*
X635Y1583D01*
X679Y1583D02*
X689Y1583D01*
X725Y1583D02*
X735Y1583D01*
X779Y1583D02*
X789Y1583D01*
X825Y1583D02*
X835Y1583D01*
X879Y1583D02*
X889Y1583D01*
X925Y1583D02*
X935Y1583D01*
X1079Y1583D02*
X1089Y1583D01*
X1125Y1583D02*
X1135Y1583D01*
X1179Y1583D02*
X1189Y1583D01*
X1225Y1583D02*
X1235Y1583D01*
X1279Y1583D02*
X1289Y1583D01*
X1325Y1583D02*
X1335Y1583D01*
X1379Y1583D02*
X1389Y1583D01*
X1425Y1583D02*
X1435Y1583D01*
X1479Y1583D02*
X1489Y1583D01*
X1525Y1583D02*
X1535Y1583D01*
X1579Y1583D02*
X1589Y1583D01*
X1625Y1583D02*
X1635Y1583D01*
X1679Y1583D02*
X1689Y1583D01*
X1725Y1583D02*
X1735Y1583D01*
X1779Y1583D02*
X1789Y1583D01*
X1825Y1583D02*
X1835Y1583D01*
X179Y1582D02*
X190Y1582D01*
X224Y1582D02*
X235Y1582D01*
X279Y1582D02*
X290Y1582D01*
X324Y1582D02*
X335Y1582D01*
X379Y1582D02*
X390Y1582D01*
X424Y1582D02*
X435Y1582D01*
X479Y1582D02*
X490Y1582D01*
X524Y1582D02*
X535Y1582D01*
X579Y1582D02*
X590Y1582D01*
X624Y1582D02*
X635Y1582D01*
X679Y1582D02*
X690Y1582D01*
X724Y1582D02*
X735Y1582D01*
X779Y1582D02*
X790Y1582D01*
X824Y1582D02*
X835Y1582D01*
X879Y1582D02*
X890Y1582D01*
X924Y1582D02*
X935Y1582D01*
X1079Y1582D02*
X1090Y1582D01*
X1124Y1582D02*
X1135Y1582D01*
X1179Y1582D02*
X1190Y1582D01*
X1224Y1582D02*
X1235Y1582D01*
X1279Y1582D02*
X1290Y1582D01*
X1324Y1582D02*
X1335Y1582D01*
X1379Y1582D02*
X1390Y1582D01*
X1424Y1582D02*
X1435Y1582D01*
X1479Y1582D02*
X1490Y1582D01*
X1524Y1582D02*
X1535Y1582D01*
X1579Y1582D02*
X1590Y1582D01*
X1624Y1582D02*
X1635Y1582D01*
X1679Y1582D02*
X1690Y1582D01*
X1724Y1582D02*
X1735Y1582D01*
X1779Y1582D02*
X1790Y1582D01*
X1824Y1582D02*
X1835Y1582D01*
X179Y1581D02*
X192Y1581D01*
X223Y1581D02*
X235Y1581D01*
X279Y1581D02*
X292Y1581D01*
X323Y1581D02*
X335Y1581D01*
X379Y1581D02*
X392Y1581D01*
X423Y1581D02*
X435Y1581D01*
X479Y1581D02*
X492Y1581D01*
X522Y1581D02*
X535Y1581D01*
X579Y1581D02*
X592Y1581D01*
X622Y1581D02*
X635Y1581D01*
X679Y1581D02*
X692Y1581D01*
X722Y1581D02*
X735Y1581D01*
X779Y1581D02*
X792Y1581D01*
X822Y1581D02*
X835Y1581D01*
X879Y1581D02*
X891Y1581D01*
X922Y1581D02*
X935Y1581D01*
X1079Y1581D02*
X1091Y1581D01*
X1122Y1581D02*
X1135Y1581D01*
X1179Y1581D02*
X1191Y1581D01*
X1222Y1581D02*
X1235Y1581D01*
X1279Y1581D02*
X1291Y1581D01*
X1322Y1581D02*
X1335Y1581D01*
X1379Y1581D02*
X1391Y1581D01*
X1422Y1581D02*
X1435Y1581D01*
X1479Y1581D02*
X1491Y1581D01*
X1522Y1581D02*
X1535Y1581D01*
X1579Y1581D02*
X1591Y1581D01*
X1622Y1581D02*
X1635Y1581D01*
X1679Y1581D02*
X1691Y1581D01*
X1722Y1581D02*
X1735Y1581D01*
X1779Y1581D02*
X1791Y1581D01*
X1822Y1581D02*
X1835Y1581D01*
X179Y1580D02*
X193Y1580D01*
X221Y1580D02*
X235Y1580D01*
X279Y1580D02*
X293Y1580D01*
X321Y1580D02*
X335Y1580D01*
X379Y1580D02*
X393Y1580D01*
X421Y1580D02*
X435Y1580D01*
X479Y1580D02*
X493Y1580D01*
X521Y1580D02*
X535Y1580D01*
X579Y1580D02*
X593Y1580D01*
X621Y1580D02*
X635Y1580D01*
X679Y1580D02*
X693Y1580D01*
X721Y1580D02*
X735Y1580D01*
X779Y1580D02*
X793Y1580D01*
X821Y1580D02*
X835Y1580D01*
X879Y1580D02*
X893Y1580D01*
X921Y1580D02*
X935Y1580D01*
X1079Y1580D02*
X1093Y1580D01*
X1121Y1580D02*
X1135Y1580D01*
X1179Y1580D02*
X1193Y1580D01*
X1221Y1580D02*
X1235Y1580D01*
X1279Y1580D02*
X1293Y1580D01*
X1321Y1580D02*
X1335Y1580D01*
X1379Y1580D02*
X1393Y1580D01*
X1421Y1580D02*
X1435Y1580D01*
X1479Y1580D02*
X1493Y1580D01*
X1521Y1580D02*
X1535Y1580D01*
X1579Y1580D02*
X1593Y1580D01*
X1621Y1580D02*
X1635Y1580D01*
X1679Y1580D02*
X1693Y1580D01*
X1721Y1580D02*
X1735Y1580D01*
X1779Y1580D02*
X1793Y1580D01*
X1820Y1580D02*
X1835Y1580D01*
X179Y1579D02*
X195Y1579D01*
X219Y1579D02*
X235Y1579D01*
X279Y1579D02*
X295Y1579D01*
X319Y1579D02*
X335Y1579D01*
X379Y1579D02*
X395Y1579D01*
X419Y1579D02*
X435Y1579D01*
X479Y1579D02*
X495Y1579D01*
X519Y1579D02*
X535Y1579D01*
X579Y1579D02*
X595Y1579D01*
X619Y1579D02*
X635Y1579D01*
X679Y1579D02*
X695Y1579D01*
X719Y1579D02*
X735Y1579D01*
X779Y1579D02*
X795Y1579D01*
X819Y1579D02*
X835Y1579D01*
X879Y1579D02*
X895Y1579D01*
X919Y1579D02*
X935Y1579D01*
X1079Y1579D02*
X1095Y1579D01*
X1119Y1579D02*
X1135Y1579D01*
X1179Y1579D02*
X1195Y1579D01*
X1219Y1579D02*
X1235Y1579D01*
X1279Y1579D02*
X1295Y1579D01*
X1319Y1579D02*
X1335Y1579D01*
X1379Y1579D02*
X1395Y1579D01*
X1418Y1579D02*
X1435Y1579D01*
X1479Y1579D02*
X1495Y1579D01*
X1518Y1579D02*
X1535Y1579D01*
X1579Y1579D02*
X1595Y1579D01*
X1618Y1579D02*
X1635Y1579D01*
X1679Y1579D02*
X1695Y1579D01*
X1718Y1579D02*
X1735Y1579D01*
X1779Y1579D02*
X1795Y1579D01*
X1818Y1579D02*
X1835Y1579D01*
X179Y1578D02*
X198Y1578D01*
X216Y1578D02*
X235Y1578D01*
X279Y1578D02*
X298Y1578D01*
X316Y1578D02*
X335Y1578D01*
X379Y1578D02*
X398Y1578D01*
X416Y1578D02*
X435Y1578D01*
X479Y1578D02*
X498Y1578D01*
X516Y1578D02*
X535Y1578D01*
X579Y1578D02*
X598Y1578D01*
X616Y1578D02*
X635Y1578D01*
X679Y1578D02*
X698Y1578D01*
X716Y1578D02*
X735Y1578D01*
X779Y1578D02*
X798Y1578D01*
X816Y1578D02*
X835Y1578D01*
X879Y1578D02*
X898Y1578D01*
X916Y1578D02*
X935Y1578D01*
X1079Y1578D02*
X1098Y1578D01*
X1116Y1578D02*
X1135Y1578D01*
X1179Y1578D02*
X1198Y1578D01*
X1216Y1578D02*
X1235Y1578D01*
X1279Y1578D02*
X1298Y1578D01*
X1316Y1578D02*
X1335Y1578D01*
X1379Y1578D02*
X1398Y1578D01*
X1416Y1578D02*
X1435Y1578D01*
X1479Y1578D02*
X1498Y1578D01*
X1516Y1578D02*
X1535Y1578D01*
X1579Y1578D02*
X1598Y1578D01*
X1616Y1578D02*
X1635Y1578D01*
X1679Y1578D02*
X1698Y1578D01*
X1716Y1578D02*
X1735Y1578D01*
X1779Y1578D02*
X1798Y1578D01*
X1816Y1578D02*
X1835Y1578D01*
X179Y1577D02*
X203Y1577D01*
X211Y1577D02*
X235Y1577D01*
X279Y1577D02*
X303Y1577D01*
X311Y1577D02*
X335Y1577D01*
X379Y1577D02*
X403Y1577D01*
X411Y1577D02*
X435Y1577D01*
X479Y1577D02*
X503Y1577D01*
X511Y1577D02*
X535Y1577D01*
X579Y1577D02*
X603Y1577D01*
X611Y1577D02*
X635Y1577D01*
X679Y1577D02*
X703Y1577D01*
X711Y1577D02*
X735Y1577D01*
X779Y1577D02*
X803Y1577D01*
X811Y1577D02*
X835Y1577D01*
X879Y1577D02*
X903Y1577D01*
X911Y1577D02*
X935Y1577D01*
X1079Y1577D02*
X1103Y1577D01*
X1111Y1577D02*
X1135Y1577D01*
X1179Y1577D02*
X1203Y1577D01*
X1211Y1577D02*
X1235Y1577D01*
X1279Y1577D02*
X1303Y1577D01*
X1311Y1577D02*
X1335Y1577D01*
X1379Y1577D02*
X1403Y1577D01*
X1411Y1577D02*
X1435Y1577D01*
X1479Y1577D02*
X1503Y1577D01*
X1511Y1577D02*
X1535Y1577D01*
X1579Y1577D02*
X1602Y1577D01*
X1611Y1577D02*
X1635Y1577D01*
X1679Y1577D02*
X1702Y1577D01*
X1711Y1577D02*
X1735Y1577D01*
X1779Y1577D02*
X1802Y1577D01*
X1811Y1577D02*
X1835Y1577D01*
X179Y1576D02*
X235Y1576D01*
X279Y1576D02*
X335Y1576D01*
X379Y1576D02*
X435Y1576D01*
X479Y1576D02*
X535Y1576D01*
X579Y1576D02*
X635Y1576D01*
X679Y1576D02*
X735Y1576D01*
X779Y1576D02*
X835Y1576D01*
X879Y1576D02*
X935Y1576D01*
X1079Y1576D02*
X1135Y1576D01*
X1179Y1576D02*
X1235Y1576D01*
X1279Y1576D02*
X1335Y1576D01*
X1379Y1576D02*
X1435Y1576D01*
X1479Y1576D02*
X1535Y1576D01*
X1579Y1576D02*
X1635Y1576D01*
X1679Y1576D02*
X1735Y1576D01*
X1779Y1576D02*
X1835Y1576D01*
X179Y1575D02*
X235Y1575D01*
X279Y1575D02*
X335Y1575D01*
X379Y1575D02*
X435Y1575D01*
X479Y1575D02*
X535Y1575D01*
X579Y1575D02*
X635Y1575D01*
X679Y1575D02*
X735Y1575D01*
X779Y1575D02*
X835Y1575D01*
X879Y1575D02*
X935Y1575D01*
X1079Y1575D02*
X1135Y1575D01*
X1179Y1575D02*
X1235Y1575D01*
X1279Y1575D02*
X1335Y1575D01*
X1379Y1575D02*
X1435Y1575D01*
X1479Y1575D02*
X1535Y1575D01*
X1579Y1575D02*
X1635Y1575D01*
X1679Y1575D02*
X1735Y1575D01*
X1779Y1575D02*
X1835Y1575D01*
X179Y1574D02*
X235Y1574D01*
X279Y1574D02*
X335Y1574D01*
X379Y1574D02*
X435Y1574D01*
X479Y1574D02*
X535Y1574D01*
X579Y1574D02*
X635Y1574D01*
X679Y1574D02*
X735Y1574D01*
X779Y1574D02*
X835Y1574D01*
X879Y1574D02*
X935Y1574D01*
X1079Y1574D02*
X1135Y1574D01*
X1179Y1574D02*
X1235Y1574D01*
X1279Y1574D02*
X1335Y1574D01*
X1379Y1574D02*
X1435Y1574D01*
X1479Y1574D02*
X1535Y1574D01*
X1579Y1574D02*
X1635Y1574D01*
X1679Y1574D02*
X1735Y1574D01*
X1779Y1574D02*
X1835Y1574D01*
X179Y1573D02*
X235Y1573D01*
X279Y1573D02*
X335Y1573D01*
X379Y1573D02*
X435Y1573D01*
X479Y1573D02*
X535Y1573D01*
X579Y1573D02*
X635Y1573D01*
X679Y1573D02*
X735Y1573D01*
X779Y1573D02*
X835Y1573D01*
X879Y1573D02*
X935Y1573D01*
X1079Y1573D02*
X1135Y1573D01*
X1179Y1573D02*
X1235Y1573D01*
X1279Y1573D02*
X1335Y1573D01*
X1379Y1573D02*
X1435Y1573D01*
X1479Y1573D02*
X1535Y1573D01*
X1579Y1573D02*
X1635Y1573D01*
X1679Y1573D02*
X1735Y1573D01*
X1779Y1573D02*
X1835Y1573D01*
X179Y1572D02*
X235Y1572D01*
X279Y1572D02*
X335Y1572D01*
X379Y1572D02*
X435Y1572D01*
X479Y1572D02*
X535Y1572D01*
X579Y1572D02*
X635Y1572D01*
X679Y1572D02*
X735Y1572D01*
X779Y1572D02*
X835Y1572D01*
X879Y1572D02*
X935Y1572D01*
X1079Y1572D02*
X1135Y1572D01*
X1179Y1572D02*
X1235Y1572D01*
X1279Y1572D02*
X1335Y1572D01*
X1379Y1572D02*
X1435Y1572D01*
X1479Y1572D02*
X1535Y1572D01*
X1579Y1572D02*
X1635Y1572D01*
X1679Y1572D02*
X1735Y1572D01*
X1779Y1572D02*
X1835Y1572D01*
X179Y1571D02*
X235Y1571D01*
X279Y1571D02*
X335Y1571D01*
X379Y1571D02*
X435Y1571D01*
X479Y1571D02*
X535Y1571D01*
X579Y1571D02*
X635Y1571D01*
X679Y1571D02*
X735Y1571D01*
X779Y1571D02*
X835Y1571D01*
X879Y1571D02*
X935Y1571D01*
X1079Y1571D02*
X1135Y1571D01*
X1179Y1571D02*
X1235Y1571D01*
X1279Y1571D02*
X1335Y1571D01*
X1379Y1571D02*
X1435Y1571D01*
X1479Y1571D02*
X1535Y1571D01*
X1579Y1571D02*
X1635Y1571D01*
X1679Y1571D02*
X1735Y1571D01*
X1779Y1571D02*
X1835Y1571D01*
X179Y1570D02*
X235Y1570D01*
X279Y1570D02*
X335Y1570D01*
X379Y1570D02*
X435Y1570D01*
X479Y1570D02*
X535Y1570D01*
X579Y1570D02*
X635Y1570D01*
X679Y1570D02*
X735Y1570D01*
X779Y1570D02*
X835Y1570D01*
X879Y1570D02*
X935Y1570D01*
X1079Y1570D02*
X1135Y1570D01*
X1179Y1570D02*
X1235Y1570D01*
X1279Y1570D02*
X1335Y1570D01*
X1379Y1570D02*
X1435Y1570D01*
X1479Y1570D02*
X1535Y1570D01*
X1579Y1570D02*
X1635Y1570D01*
X1679Y1570D02*
X1735Y1570D01*
X1779Y1570D02*
X1835Y1570D01*
X179Y1569D02*
X235Y1569D01*
X279Y1569D02*
X335Y1569D01*
X379Y1569D02*
X435Y1569D01*
X479Y1569D02*
X535Y1569D01*
X579Y1569D02*
X635Y1569D01*
X679Y1569D02*
X735Y1569D01*
X779Y1569D02*
X835Y1569D01*
X879Y1569D02*
X935Y1569D01*
X1079Y1569D02*
X1135Y1569D01*
X1179Y1569D02*
X1235Y1569D01*
X1279Y1569D02*
X1335Y1569D01*
X1379Y1569D02*
X1435Y1569D01*
X1479Y1569D02*
X1535Y1569D01*
X1579Y1569D02*
X1635Y1569D01*
X1679Y1569D02*
X1735Y1569D01*
X1779Y1569D02*
X1835Y1569D01*
X179Y1568D02*
X235Y1568D01*
X279Y1568D02*
X335Y1568D01*
X379Y1568D02*
X435Y1568D01*
X479Y1568D02*
X535Y1568D01*
X579Y1568D02*
X635Y1568D01*
X679Y1568D02*
X735Y1568D01*
X779Y1568D02*
X835Y1568D01*
X879Y1568D02*
X935Y1568D01*
X1079Y1568D02*
X1135Y1568D01*
X1179Y1568D02*
X1235Y1568D01*
X1279Y1568D02*
X1335Y1568D01*
X1379Y1568D02*
X1435Y1568D01*
X1479Y1568D02*
X1535Y1568D01*
X1579Y1568D02*
X1635Y1568D01*
X1679Y1568D02*
X1735Y1568D01*
X1779Y1568D02*
X1835Y1568D01*
X179Y1567D02*
X235Y1567D01*
X279Y1567D02*
X335Y1567D01*
X379Y1567D02*
X435Y1567D01*
X479Y1567D02*
X535Y1567D01*
X579Y1567D02*
X635Y1567D01*
X679Y1567D02*
X735Y1567D01*
X779Y1567D02*
X835Y1567D01*
X879Y1567D02*
X935Y1567D01*
X1079Y1567D02*
X1135Y1567D01*
X1179Y1567D02*
X1235Y1567D01*
X1279Y1567D02*
X1335Y1567D01*
X1379Y1567D02*
X1435Y1567D01*
X1479Y1567D02*
X1535Y1567D01*
X1579Y1567D02*
X1635Y1567D01*
X1679Y1567D02*
X1735Y1567D01*
X1779Y1567D02*
X1835Y1567D01*
X179Y1566D02*
X235Y1566D01*
X279Y1566D02*
X335Y1566D01*
X379Y1566D02*
X435Y1566D01*
X479Y1566D02*
X535Y1566D01*
X579Y1566D02*
X635Y1566D01*
X679Y1566D02*
X735Y1566D01*
X779Y1566D02*
X835Y1566D01*
X879Y1566D02*
X935Y1566D01*
X1079Y1566D02*
X1135Y1566D01*
X1179Y1566D02*
X1235Y1566D01*
X1279Y1566D02*
X1335Y1566D01*
X1379Y1566D02*
X1435Y1566D01*
X1479Y1566D02*
X1535Y1566D01*
X1579Y1566D02*
X1635Y1566D01*
X1679Y1566D02*
X1735Y1566D01*
X1779Y1566D02*
X1835Y1566D01*
X179Y1565D02*
X235Y1565D01*
X279Y1565D02*
X335Y1565D01*
X379Y1565D02*
X435Y1565D01*
X479Y1565D02*
X535Y1565D01*
X579Y1565D02*
X635Y1565D01*
X679Y1565D02*
X735Y1565D01*
X779Y1565D02*
X835Y1565D01*
X879Y1565D02*
X935Y1565D01*
X1079Y1565D02*
X1135Y1565D01*
X1179Y1565D02*
X1235Y1565D01*
X1279Y1565D02*
X1335Y1565D01*
X1379Y1565D02*
X1435Y1565D01*
X1479Y1565D02*
X1535Y1565D01*
X1579Y1565D02*
X1635Y1565D01*
X1679Y1565D02*
X1735Y1565D01*
X1779Y1565D02*
X1835Y1565D01*
X179Y1564D02*
X235Y1564D01*
X279Y1564D02*
X335Y1564D01*
X379Y1564D02*
X435Y1564D01*
X479Y1564D02*
X535Y1564D01*
X579Y1564D02*
X635Y1564D01*
X679Y1564D02*
X735Y1564D01*
X779Y1564D02*
X835Y1564D01*
X879Y1564D02*
X935Y1564D01*
X1079Y1564D02*
X1135Y1564D01*
X1179Y1564D02*
X1235Y1564D01*
X1279Y1564D02*
X1335Y1564D01*
X1379Y1564D02*
X1435Y1564D01*
X1479Y1564D02*
X1535Y1564D01*
X1579Y1564D02*
X1635Y1564D01*
X1679Y1564D02*
X1735Y1564D01*
X1779Y1564D02*
X1835Y1564D01*
X179Y1563D02*
X235Y1563D01*
X279Y1563D02*
X335Y1563D01*
X379Y1563D02*
X435Y1563D01*
X479Y1563D02*
X535Y1563D01*
X579Y1563D02*
X635Y1563D01*
X679Y1563D02*
X735Y1563D01*
X779Y1563D02*
X835Y1563D01*
X879Y1563D02*
X935Y1563D01*
X1079Y1563D02*
X1135Y1563D01*
X1179Y1563D02*
X1235Y1563D01*
X1279Y1563D02*
X1335Y1563D01*
X1379Y1563D02*
X1435Y1563D01*
X1479Y1563D02*
X1535Y1563D01*
X1579Y1563D02*
X1635Y1563D01*
X1679Y1563D02*
X1735Y1563D01*
X1779Y1563D02*
X1835Y1563D01*
X179Y1562D02*
X235Y1562D01*
X279Y1562D02*
X335Y1562D01*
X379Y1562D02*
X435Y1562D01*
X479Y1562D02*
X535Y1562D01*
X579Y1562D02*
X635Y1562D01*
X679Y1562D02*
X735Y1562D01*
X779Y1562D02*
X835Y1562D01*
X879Y1562D02*
X935Y1562D01*
X1079Y1562D02*
X1135Y1562D01*
X1179Y1562D02*
X1235Y1562D01*
X1279Y1562D02*
X1335Y1562D01*
X1379Y1562D02*
X1435Y1562D01*
X1479Y1562D02*
X1535Y1562D01*
X1579Y1562D02*
X1635Y1562D01*
X1679Y1562D02*
X1735Y1562D01*
X1779Y1562D02*
X1835Y1562D01*
X179Y1561D02*
X235Y1561D01*
X279Y1561D02*
X335Y1561D01*
X379Y1561D02*
X435Y1561D01*
X479Y1561D02*
X535Y1561D01*
X579Y1561D02*
X635Y1561D01*
X679Y1561D02*
X735Y1561D01*
X779Y1561D02*
X835Y1561D01*
X879Y1561D02*
X935Y1561D01*
X1079Y1561D02*
X1135Y1561D01*
X1179Y1561D02*
X1235Y1561D01*
X1279Y1561D02*
X1335Y1561D01*
X1379Y1561D02*
X1435Y1561D01*
X1479Y1561D02*
X1535Y1561D01*
X1579Y1561D02*
X1635Y1561D01*
X1679Y1561D02*
X1735Y1561D01*
X1779Y1561D02*
X1835Y1561D01*
X179Y1560D02*
X235Y1560D01*
X279Y1560D02*
X335Y1560D01*
X379Y1560D02*
X435Y1560D01*
X479Y1560D02*
X535Y1560D01*
X579Y1560D02*
X635Y1560D01*
X679Y1560D02*
X735Y1560D01*
X779Y1560D02*
X835Y1560D01*
X879Y1560D02*
X935Y1560D01*
X1079Y1560D02*
X1135Y1560D01*
X1179Y1560D02*
X1235Y1560D01*
X1279Y1560D02*
X1335Y1560D01*
X1379Y1560D02*
X1435Y1560D01*
X1479Y1560D02*
X1535Y1560D01*
X1579Y1560D02*
X1635Y1560D01*
X1679Y1560D02*
X1735Y1560D01*
X1779Y1560D02*
X1835Y1560D01*
X179Y1559D02*
X235Y1559D01*
X279Y1559D02*
X335Y1559D01*
X379Y1559D02*
X435Y1559D01*
X479Y1559D02*
X535Y1559D01*
X579Y1559D02*
X635Y1559D01*
X679Y1559D02*
X735Y1559D01*
X779Y1559D02*
X835Y1559D01*
X879Y1559D02*
X935Y1559D01*
X1079Y1559D02*
X1135Y1559D01*
X1179Y1559D02*
X1235Y1559D01*
X1279Y1559D02*
X1335Y1559D01*
X1379Y1559D02*
X1435Y1559D01*
X1479Y1559D02*
X1535Y1559D01*
X1579Y1559D02*
X1635Y1559D01*
X1679Y1559D02*
X1735Y1559D01*
X1779Y1559D02*
X1835Y1559D01*
X179Y1558D02*
X235Y1558D01*
X279Y1558D02*
X335Y1558D01*
X379Y1558D02*
X435Y1558D01*
X479Y1558D02*
X535Y1558D01*
X579Y1558D02*
X635Y1558D01*
X679Y1558D02*
X735Y1558D01*
X779Y1558D02*
X835Y1558D01*
X879Y1558D02*
X935Y1558D01*
X1079Y1558D02*
X1135Y1558D01*
X1179Y1558D02*
X1235Y1558D01*
X1279Y1558D02*
X1335Y1558D01*
X1379Y1558D02*
X1435Y1558D01*
X1479Y1558D02*
X1535Y1558D01*
X1579Y1558D02*
X1635Y1558D01*
X1679Y1558D02*
X1735Y1558D01*
X1779Y1558D02*
X1835Y1558D01*
X179Y1557D02*
X235Y1557D01*
X279Y1557D02*
X335Y1557D01*
X379Y1557D02*
X435Y1557D01*
X479Y1557D02*
X535Y1557D01*
X579Y1557D02*
X635Y1557D01*
X679Y1557D02*
X735Y1557D01*
X779Y1557D02*
X835Y1557D01*
X879Y1557D02*
X935Y1557D01*
X1079Y1557D02*
X1135Y1557D01*
X1179Y1557D02*
X1235Y1557D01*
X1279Y1557D02*
X1335Y1557D01*
X1379Y1557D02*
X1435Y1557D01*
X1479Y1557D02*
X1535Y1557D01*
X1579Y1557D02*
X1635Y1557D01*
X1679Y1557D02*
X1735Y1557D01*
X1779Y1557D02*
X1835Y1557D01*
X179Y1556D02*
X235Y1556D01*
X279Y1556D02*
X335Y1556D01*
X379Y1556D02*
X435Y1556D01*
X479Y1556D02*
X535Y1556D01*
X579Y1556D02*
X635Y1556D01*
X679Y1556D02*
X735Y1556D01*
X779Y1556D02*
X835Y1556D01*
X879Y1556D02*
X935Y1556D01*
X1079Y1556D02*
X1135Y1556D01*
X1179Y1556D02*
X1235Y1556D01*
X1279Y1556D02*
X1335Y1556D01*
X1379Y1556D02*
X1435Y1556D01*
X1479Y1556D02*
X1535Y1556D01*
X1579Y1556D02*
X1635Y1556D01*
X1679Y1556D02*
X1735Y1556D01*
X1779Y1556D02*
X1835Y1556D01*
X179Y1555D02*
X235Y1555D01*
X279Y1555D02*
X335Y1555D01*
X379Y1555D02*
X435Y1555D01*
X479Y1555D02*
X535Y1555D01*
X579Y1555D02*
X635Y1555D01*
X679Y1555D02*
X735Y1555D01*
X779Y1555D02*
X835Y1555D01*
X879Y1555D02*
X935Y1555D01*
X1079Y1555D02*
X1135Y1555D01*
X1179Y1555D02*
X1235Y1555D01*
X1279Y1555D02*
X1335Y1555D01*
X1379Y1555D02*
X1435Y1555D01*
X1479Y1555D02*
X1535Y1555D01*
X1579Y1555D02*
X1635Y1555D01*
X1679Y1555D02*
X1735Y1555D01*
X1779Y1555D02*
X1835Y1555D01*
X179Y1554D02*
X235Y1554D01*
X279Y1554D02*
X335Y1554D01*
X379Y1554D02*
X435Y1554D01*
X479Y1554D02*
X535Y1554D01*
X579Y1554D02*
X635Y1554D01*
X679Y1554D02*
X735Y1554D01*
X779Y1554D02*
X835Y1554D01*
X879Y1554D02*
X935Y1554D01*
X1079Y1554D02*
X1135Y1554D01*
X1179Y1554D02*
X1235Y1554D01*
X1279Y1554D02*
X1335Y1554D01*
X1379Y1554D02*
X1435Y1554D01*
X1479Y1554D02*
X1535Y1554D01*
X1579Y1554D02*
X1635Y1554D01*
X1679Y1554D02*
X1735Y1554D01*
X1779Y1554D02*
X1835Y1554D01*
X179Y1553D02*
X235Y1553D01*
X279Y1553D02*
X335Y1553D01*
X379Y1553D02*
X435Y1553D01*
X479Y1553D02*
X535Y1553D01*
X579Y1553D02*
X635Y1553D01*
X679Y1553D02*
X735Y1553D01*
X779Y1553D02*
X835Y1553D01*
X879Y1553D02*
X935Y1553D01*
X1079Y1553D02*
X1135Y1553D01*
X1179Y1553D02*
X1235Y1553D01*
X1279Y1553D02*
X1335Y1553D01*
X1379Y1553D02*
X1435Y1553D01*
X1479Y1553D02*
X1535Y1553D01*
X1579Y1553D02*
X1635Y1553D01*
X1679Y1553D02*
X1735Y1553D01*
X1779Y1553D02*
X1835Y1553D01*
X179Y1552D02*
X235Y1552D01*
X279Y1552D02*
X335Y1552D01*
X379Y1552D02*
X435Y1552D01*
X479Y1552D02*
X535Y1552D01*
X579Y1552D02*
X635Y1552D01*
X679Y1552D02*
X735Y1552D01*
X779Y1552D02*
X835Y1552D01*
X879Y1552D02*
X935Y1552D01*
X1079Y1552D02*
X1135Y1552D01*
X1179Y1552D02*
X1235Y1552D01*
X1279Y1552D02*
X1335Y1552D01*
X1379Y1552D02*
X1435Y1552D01*
X1479Y1552D02*
X1535Y1552D01*
X1579Y1552D02*
X1635Y1552D01*
X1679Y1552D02*
X1735Y1552D01*
X1779Y1552D02*
X1835Y1552D01*
X179Y1551D02*
X235Y1551D01*
X279Y1551D02*
X335Y1551D01*
X379Y1551D02*
X435Y1551D01*
X479Y1551D02*
X535Y1551D01*
X579Y1551D02*
X635Y1551D01*
X679Y1551D02*
X735Y1551D01*
X779Y1551D02*
X835Y1551D01*
X879Y1551D02*
X935Y1551D01*
X1079Y1551D02*
X1135Y1551D01*
X1179Y1551D02*
X1235Y1551D01*
X1279Y1551D02*
X1335Y1551D01*
X1379Y1551D02*
X1435Y1551D01*
X1479Y1551D02*
X1535Y1551D01*
X1579Y1551D02*
X1635Y1551D01*
X1679Y1551D02*
X1735Y1551D01*
X1779Y1551D02*
X1835Y1551D01*
X179Y1550D02*
X235Y1550D01*
X279Y1550D02*
X335Y1550D01*
X379Y1550D02*
X435Y1550D01*
X479Y1550D02*
X535Y1550D01*
X579Y1550D02*
X635Y1550D01*
X679Y1550D02*
X735Y1550D01*
X779Y1550D02*
X835Y1550D01*
X879Y1550D02*
X935Y1550D01*
X1079Y1550D02*
X1135Y1550D01*
X1179Y1550D02*
X1235Y1550D01*
X1279Y1550D02*
X1335Y1550D01*
X1379Y1550D02*
X1435Y1550D01*
X1479Y1550D02*
X1535Y1550D01*
X1579Y1550D02*
X1635Y1550D01*
X1679Y1550D02*
X1735Y1550D01*
X1779Y1550D02*
X1835Y1550D01*
X179Y1549D02*
X235Y1549D01*
X279Y1549D02*
X335Y1549D01*
X379Y1549D02*
X435Y1549D01*
X479Y1549D02*
X535Y1549D01*
X579Y1549D02*
X635Y1549D01*
X679Y1549D02*
X735Y1549D01*
X779Y1549D02*
X835Y1549D01*
X879Y1549D02*
X935Y1549D01*
X1079Y1549D02*
X1135Y1549D01*
X1179Y1549D02*
X1235Y1549D01*
X1279Y1549D02*
X1335Y1549D01*
X1379Y1549D02*
X1435Y1549D01*
X1479Y1549D02*
X1535Y1549D01*
X1579Y1549D02*
X1635Y1549D01*
X1679Y1549D02*
X1735Y1549D01*
X1779Y1549D02*
X1835Y1549D01*
X179Y1548D02*
X235Y1548D01*
X279Y1548D02*
X335Y1548D01*
X379Y1548D02*
X435Y1548D01*
X479Y1548D02*
X535Y1548D01*
X579Y1548D02*
X635Y1548D01*
X679Y1548D02*
X735Y1548D01*
X779Y1548D02*
X835Y1548D01*
X879Y1548D02*
X935Y1548D01*
X1079Y1548D02*
X1135Y1548D01*
X1179Y1548D02*
X1235Y1548D01*
X1279Y1548D02*
X1335Y1548D01*
X1379Y1548D02*
X1435Y1548D01*
X1479Y1548D02*
X1535Y1548D01*
X1579Y1548D02*
X1635Y1548D01*
X1679Y1548D02*
X1735Y1548D01*
X1779Y1548D02*
X1835Y1548D01*
X179Y1547D02*
X235Y1547D01*
X279Y1547D02*
X335Y1547D01*
X379Y1547D02*
X435Y1547D01*
X479Y1547D02*
X535Y1547D01*
X579Y1547D02*
X635Y1547D01*
X679Y1547D02*
X735Y1547D01*
X779Y1547D02*
X835Y1547D01*
X879Y1547D02*
X935Y1547D01*
X1079Y1547D02*
X1135Y1547D01*
X1179Y1547D02*
X1235Y1547D01*
X1279Y1547D02*
X1335Y1547D01*
X1379Y1547D02*
X1435Y1547D01*
X1479Y1547D02*
X1535Y1547D01*
X1579Y1547D02*
X1635Y1547D01*
X1679Y1547D02*
X1735Y1547D01*
X1779Y1547D02*
X1835Y1547D01*
X179Y1546D02*
X235Y1546D01*
X279Y1546D02*
X335Y1546D01*
X379Y1546D02*
X435Y1546D01*
X479Y1546D02*
X535Y1546D01*
X579Y1546D02*
X635Y1546D01*
X679Y1546D02*
X735Y1546D01*
X779Y1546D02*
X835Y1546D01*
X879Y1546D02*
X935Y1546D01*
X1079Y1546D02*
X1135Y1546D01*
X1179Y1546D02*
X1235Y1546D01*
X1279Y1546D02*
X1335Y1546D01*
X1379Y1546D02*
X1435Y1546D01*
X1479Y1546D02*
X1535Y1546D01*
X1579Y1546D02*
X1635Y1546D01*
X1679Y1546D02*
X1735Y1546D01*
X1779Y1546D02*
X1835Y1546D01*
X179Y1545D02*
X235Y1545D01*
X279Y1545D02*
X335Y1545D01*
X379Y1545D02*
X435Y1545D01*
X479Y1545D02*
X535Y1545D01*
X579Y1545D02*
X635Y1545D01*
X679Y1545D02*
X735Y1545D01*
X779Y1545D02*
X835Y1545D01*
X879Y1545D02*
X935Y1545D01*
X1079Y1545D02*
X1135Y1545D01*
X1179Y1545D02*
X1235Y1545D01*
X1279Y1545D02*
X1335Y1545D01*
X1379Y1545D02*
X1435Y1545D01*
X1479Y1545D02*
X1535Y1545D01*
X1579Y1545D02*
X1635Y1545D01*
X1679Y1545D02*
X1735Y1545D01*
X1779Y1545D02*
X1835Y1545D01*
X179Y1544D02*
X235Y1544D01*
X279Y1544D02*
X335Y1544D01*
X379Y1544D02*
X435Y1544D01*
X479Y1544D02*
X535Y1544D01*
X579Y1544D02*
X635Y1544D01*
X679Y1544D02*
X735Y1544D01*
X779Y1544D02*
X835Y1544D01*
X879Y1544D02*
X935Y1544D01*
X1079Y1544D02*
X1135Y1544D01*
X1179Y1544D02*
X1235Y1544D01*
X1279Y1544D02*
X1335Y1544D01*
X1379Y1544D02*
X1435Y1544D01*
X1479Y1544D02*
X1535Y1544D01*
X1579Y1544D02*
X1635Y1544D01*
X1679Y1544D02*
X1735Y1544D01*
X1779Y1544D02*
X1835Y1544D01*
X179Y1543D02*
X235Y1543D01*
X279Y1543D02*
X335Y1543D01*
X379Y1543D02*
X435Y1543D01*
X479Y1543D02*
X535Y1543D01*
X579Y1543D02*
X635Y1543D01*
X679Y1543D02*
X735Y1543D01*
X779Y1543D02*
X835Y1543D01*
X879Y1543D02*
X935Y1543D01*
X1079Y1543D02*
X1135Y1543D01*
X1179Y1543D02*
X1235Y1543D01*
X1279Y1543D02*
X1335Y1543D01*
X1379Y1543D02*
X1435Y1543D01*
X1479Y1543D02*
X1535Y1543D01*
X1579Y1543D02*
X1635Y1543D01*
X1679Y1543D02*
X1735Y1543D01*
X1779Y1543D02*
X1835Y1543D01*
X179Y1542D02*
X235Y1542D01*
X279Y1542D02*
X335Y1542D01*
X379Y1542D02*
X435Y1542D01*
X479Y1542D02*
X535Y1542D01*
X579Y1542D02*
X635Y1542D01*
X679Y1542D02*
X735Y1542D01*
X779Y1542D02*
X835Y1542D01*
X879Y1542D02*
X935Y1542D01*
X1079Y1542D02*
X1135Y1542D01*
X1179Y1542D02*
X1235Y1542D01*
X1279Y1542D02*
X1335Y1542D01*
X1379Y1542D02*
X1435Y1542D01*
X1479Y1542D02*
X1535Y1542D01*
X1579Y1542D02*
X1635Y1542D01*
X1679Y1542D02*
X1735Y1542D01*
X1779Y1542D02*
X1835Y1542D01*
X179Y1541D02*
X235Y1541D01*
X279Y1541D02*
X335Y1541D01*
X379Y1541D02*
X435Y1541D01*
X479Y1541D02*
X535Y1541D01*
X579Y1541D02*
X635Y1541D01*
X679Y1541D02*
X735Y1541D01*
X779Y1541D02*
X835Y1541D01*
X879Y1541D02*
X935Y1541D01*
X1079Y1541D02*
X1135Y1541D01*
X1179Y1541D02*
X1235Y1541D01*
X1279Y1541D02*
X1335Y1541D01*
X1379Y1541D02*
X1435Y1541D01*
X1479Y1541D02*
X1535Y1541D01*
X1579Y1541D02*
X1635Y1541D01*
X1679Y1541D02*
X1735Y1541D01*
X1779Y1541D02*
X1835Y1541D01*
X179Y1540D02*
X235Y1540D01*
X279Y1540D02*
X335Y1540D01*
X379Y1540D02*
X435Y1540D01*
X479Y1540D02*
X535Y1540D01*
X579Y1540D02*
X635Y1540D01*
X679Y1540D02*
X735Y1540D01*
X779Y1540D02*
X835Y1540D01*
X879Y1540D02*
X935Y1540D01*
X1079Y1540D02*
X1135Y1540D01*
X1179Y1540D02*
X1235Y1540D01*
X1279Y1540D02*
X1335Y1540D01*
X1379Y1540D02*
X1435Y1540D01*
X1479Y1540D02*
X1535Y1540D01*
X1579Y1540D02*
X1635Y1540D01*
X1679Y1540D02*
X1735Y1540D01*
X1779Y1540D02*
X1835Y1540D01*
X179Y1070D02*
X235Y1070D01*
X279Y1070D02*
X335Y1070D01*
X379Y1070D02*
X435Y1070D01*
X479Y1070D02*
X535Y1070D01*
X579Y1070D02*
X635Y1070D01*
X679Y1070D02*
X735Y1070D01*
X779Y1070D02*
X835Y1070D01*
X879Y1070D02*
X935Y1070D01*
X1079Y1070D02*
X1135Y1070D01*
X1179Y1070D02*
X1235Y1070D01*
X1279Y1070D02*
X1335Y1070D01*
X1379Y1070D02*
X1435Y1070D01*
X1479Y1070D02*
X1535Y1070D01*
X1579Y1070D02*
X1635Y1070D01*
X1679Y1070D02*
X1735Y1070D01*
X1779Y1070D02*
X1835Y1070D01*
X179Y1069D02*
X235Y1069D01*
X279Y1069D02*
X335Y1069D01*
X379Y1069D02*
X435Y1069D01*
X479Y1069D02*
X535Y1069D01*
X579Y1069D02*
X635Y1069D01*
X679Y1069D02*
X735Y1069D01*
X779Y1069D02*
X835Y1069D01*
X879Y1069D02*
X935Y1069D01*
X1079Y1069D02*
X1135Y1069D01*
X1179Y1069D02*
X1235Y1069D01*
X1279Y1069D02*
X1335Y1069D01*
X1379Y1069D02*
X1435Y1069D01*
X1479Y1069D02*
X1535Y1069D01*
X1579Y1069D02*
X1635Y1069D01*
X1679Y1069D02*
X1735Y1069D01*
X1779Y1069D02*
X1835Y1069D01*
X179Y1068D02*
X235Y1068D01*
X279Y1068D02*
X335Y1068D01*
X379Y1068D02*
X435Y1068D01*
X479Y1068D02*
X535Y1068D01*
X579Y1068D02*
X635Y1068D01*
X679Y1068D02*
X735Y1068D01*
X779Y1068D02*
X835Y1068D01*
X879Y1068D02*
X935Y1068D01*
X1079Y1068D02*
X1135Y1068D01*
X1179Y1068D02*
X1235Y1068D01*
X1279Y1068D02*
X1335Y1068D01*
X1379Y1068D02*
X1435Y1068D01*
X1479Y1068D02*
X1535Y1068D01*
X1579Y1068D02*
X1635Y1068D01*
X1679Y1068D02*
X1735Y1068D01*
X1779Y1068D02*
X1835Y1068D01*
X179Y1067D02*
X235Y1067D01*
X279Y1067D02*
X335Y1067D01*
X379Y1067D02*
X435Y1067D01*
X479Y1067D02*
X535Y1067D01*
X579Y1067D02*
X635Y1067D01*
X679Y1067D02*
X735Y1067D01*
X779Y1067D02*
X835Y1067D01*
X879Y1067D02*
X935Y1067D01*
X1079Y1067D02*
X1135Y1067D01*
X1179Y1067D02*
X1235Y1067D01*
X1279Y1067D02*
X1335Y1067D01*
X1379Y1067D02*
X1435Y1067D01*
X1479Y1067D02*
X1535Y1067D01*
X1579Y1067D02*
X1635Y1067D01*
X1679Y1067D02*
X1735Y1067D01*
X1779Y1067D02*
X1835Y1067D01*
X179Y1066D02*
X235Y1066D01*
X279Y1066D02*
X335Y1066D01*
X379Y1066D02*
X435Y1066D01*
X479Y1066D02*
X535Y1066D01*
X579Y1066D02*
X635Y1066D01*
X679Y1066D02*
X735Y1066D01*
X779Y1066D02*
X835Y1066D01*
X879Y1066D02*
X935Y1066D01*
X1079Y1066D02*
X1135Y1066D01*
X1179Y1066D02*
X1235Y1066D01*
X1279Y1066D02*
X1335Y1066D01*
X1379Y1066D02*
X1435Y1066D01*
X1479Y1066D02*
X1535Y1066D01*
X1579Y1066D02*
X1635Y1066D01*
X1679Y1066D02*
X1735Y1066D01*
X1779Y1066D02*
X1835Y1066D01*
X179Y1065D02*
X235Y1065D01*
X279Y1065D02*
X335Y1065D01*
X379Y1065D02*
X435Y1065D01*
X479Y1065D02*
X535Y1065D01*
X579Y1065D02*
X635Y1065D01*
X679Y1065D02*
X735Y1065D01*
X779Y1065D02*
X835Y1065D01*
X879Y1065D02*
X935Y1065D01*
X1079Y1065D02*
X1135Y1065D01*
X1179Y1065D02*
X1235Y1065D01*
X1279Y1065D02*
X1335Y1065D01*
X1379Y1065D02*
X1435Y1065D01*
X1479Y1065D02*
X1535Y1065D01*
X1579Y1065D02*
X1635Y1065D01*
X1679Y1065D02*
X1735Y1065D01*
X1779Y1065D02*
X1835Y1065D01*
X179Y1064D02*
X235Y1064D01*
X279Y1064D02*
X335Y1064D01*
X379Y1064D02*
X435Y1064D01*
X479Y1064D02*
X535Y1064D01*
X579Y1064D02*
X635Y1064D01*
X679Y1064D02*
X735Y1064D01*
X779Y1064D02*
X835Y1064D01*
X879Y1064D02*
X935Y1064D01*
X1079Y1064D02*
X1135Y1064D01*
X1179Y1064D02*
X1235Y1064D01*
X1279Y1064D02*
X1335Y1064D01*
X1379Y1064D02*
X1435Y1064D01*
X1479Y1064D02*
X1535Y1064D01*
X1579Y1064D02*
X1635Y1064D01*
X1679Y1064D02*
X1735Y1064D01*
X1779Y1064D02*
X1835Y1064D01*
X179Y1063D02*
X235Y1063D01*
X279Y1063D02*
X335Y1063D01*
X379Y1063D02*
X435Y1063D01*
X479Y1063D02*
X535Y1063D01*
X579Y1063D02*
X635Y1063D01*
X679Y1063D02*
X735Y1063D01*
X779Y1063D02*
X835Y1063D01*
X879Y1063D02*
X935Y1063D01*
X1079Y1063D02*
X1135Y1063D01*
X1179Y1063D02*
X1235Y1063D01*
X1279Y1063D02*
X1335Y1063D01*
X1379Y1063D02*
X1435Y1063D01*
X1479Y1063D02*
X1535Y1063D01*
X1579Y1063D02*
X1635Y1063D01*
X1679Y1063D02*
X1735Y1063D01*
X1779Y1063D02*
X1835Y1063D01*
X179Y1062D02*
X235Y1062D01*
X279Y1062D02*
X335Y1062D01*
X379Y1062D02*
X435Y1062D01*
X479Y1062D02*
X535Y1062D01*
X579Y1062D02*
X635Y1062D01*
X679Y1062D02*
X735Y1062D01*
X779Y1062D02*
X835Y1062D01*
X879Y1062D02*
X935Y1062D01*
X1079Y1062D02*
X1135Y1062D01*
X1179Y1062D02*
X1235Y1062D01*
X1279Y1062D02*
X1335Y1062D01*
X1379Y1062D02*
X1435Y1062D01*
X1479Y1062D02*
X1535Y1062D01*
X1579Y1062D02*
X1635Y1062D01*
X1679Y1062D02*
X1735Y1062D01*
X1779Y1062D02*
X1835Y1062D01*
X179Y1061D02*
X235Y1061D01*
X279Y1061D02*
X335Y1061D01*
X379Y1061D02*
X435Y1061D01*
X479Y1061D02*
X535Y1061D01*
X579Y1061D02*
X635Y1061D01*
X679Y1061D02*
X735Y1061D01*
X779Y1061D02*
X835Y1061D01*
X879Y1061D02*
X935Y1061D01*
X1079Y1061D02*
X1135Y1061D01*
X1179Y1061D02*
X1235Y1061D01*
X1279Y1061D02*
X1335Y1061D01*
X1379Y1061D02*
X1435Y1061D01*
X1479Y1061D02*
X1535Y1061D01*
X1579Y1061D02*
X1635Y1061D01*
X1679Y1061D02*
X1735Y1061D01*
X1779Y1061D02*
X1835Y1061D01*
X179Y1060D02*
X235Y1060D01*
X279Y1060D02*
X335Y1060D01*
X379Y1060D02*
X435Y1060D01*
X479Y1060D02*
X535Y1060D01*
X579Y1060D02*
X635Y1060D01*
X679Y1060D02*
X735Y1060D01*
X779Y1060D02*
X835Y1060D01*
X879Y1060D02*
X935Y1060D01*
X1079Y1060D02*
X1135Y1060D01*
X1179Y1060D02*
X1235Y1060D01*
X1279Y1060D02*
X1335Y1060D01*
X1379Y1060D02*
X1435Y1060D01*
X1479Y1060D02*
X1535Y1060D01*
X1579Y1060D02*
X1635Y1060D01*
X1679Y1060D02*
X1735Y1060D01*
X1779Y1060D02*
X1835Y1060D01*
X179Y1059D02*
X235Y1059D01*
X279Y1059D02*
X335Y1059D01*
X379Y1059D02*
X435Y1059D01*
X479Y1059D02*
X535Y1059D01*
X579Y1059D02*
X635Y1059D01*
X679Y1059D02*
X735Y1059D01*
X779Y1059D02*
X835Y1059D01*
X879Y1059D02*
X935Y1059D01*
X1079Y1059D02*
X1135Y1059D01*
X1179Y1059D02*
X1235Y1059D01*
X1279Y1059D02*
X1335Y1059D01*
X1379Y1059D02*
X1435Y1059D01*
X1479Y1059D02*
X1535Y1059D01*
X1579Y1059D02*
X1635Y1059D01*
X1679Y1059D02*
X1735Y1059D01*
X1779Y1059D02*
X1835Y1059D01*
X179Y1058D02*
X235Y1058D01*
X279Y1058D02*
X335Y1058D01*
X379Y1058D02*
X435Y1058D01*
X479Y1058D02*
X535Y1058D01*
X579Y1058D02*
X635Y1058D01*
X679Y1058D02*
X735Y1058D01*
X779Y1058D02*
X835Y1058D01*
X879Y1058D02*
X935Y1058D01*
X1079Y1058D02*
X1135Y1058D01*
X1179Y1058D02*
X1235Y1058D01*
X1279Y1058D02*
X1335Y1058D01*
X1379Y1058D02*
X1435Y1058D01*
X1479Y1058D02*
X1535Y1058D01*
X1579Y1058D02*
X1635Y1058D01*
X1679Y1058D02*
X1735Y1058D01*
X1779Y1058D02*
X1835Y1058D01*
X179Y1057D02*
X235Y1057D01*
X279Y1057D02*
X335Y1057D01*
X379Y1057D02*
X435Y1057D01*
X479Y1057D02*
X535Y1057D01*
X579Y1057D02*
X635Y1057D01*
X679Y1057D02*
X735Y1057D01*
X779Y1057D02*
X835Y1057D01*
X879Y1057D02*
X935Y1057D01*
X1079Y1057D02*
X1135Y1057D01*
X1179Y1057D02*
X1235Y1057D01*
X1279Y1057D02*
X1335Y1057D01*
X1379Y1057D02*
X1435Y1057D01*
X1479Y1057D02*
X1535Y1057D01*
X1579Y1057D02*
X1635Y1057D01*
X1679Y1057D02*
X1735Y1057D01*
X1779Y1057D02*
X1835Y1057D01*
X179Y1056D02*
X235Y1056D01*
X279Y1056D02*
X335Y1056D01*
X379Y1056D02*
X435Y1056D01*
X479Y1056D02*
X535Y1056D01*
X579Y1056D02*
X635Y1056D01*
X679Y1056D02*
X735Y1056D01*
X779Y1056D02*
X835Y1056D01*
X879Y1056D02*
X935Y1056D01*
X1079Y1056D02*
X1135Y1056D01*
X1179Y1056D02*
X1235Y1056D01*
X1279Y1056D02*
X1335Y1056D01*
X1379Y1056D02*
X1435Y1056D01*
X1479Y1056D02*
X1535Y1056D01*
X1579Y1056D02*
X1635Y1056D01*
X1679Y1056D02*
X1735Y1056D01*
X1779Y1056D02*
X1835Y1056D01*
X179Y1055D02*
X235Y1055D01*
X279Y1055D02*
X335Y1055D01*
X379Y1055D02*
X435Y1055D01*
X479Y1055D02*
X535Y1055D01*
X579Y1055D02*
X635Y1055D01*
X679Y1055D02*
X735Y1055D01*
X779Y1055D02*
X835Y1055D01*
X879Y1055D02*
X935Y1055D01*
X1079Y1055D02*
X1135Y1055D01*
X1179Y1055D02*
X1235Y1055D01*
X1279Y1055D02*
X1335Y1055D01*
X1379Y1055D02*
X1435Y1055D01*
X1479Y1055D02*
X1535Y1055D01*
X1579Y1055D02*
X1635Y1055D01*
X1679Y1055D02*
X1735Y1055D01*
X1779Y1055D02*
X1835Y1055D01*
X179Y1054D02*
X235Y1054D01*
X279Y1054D02*
X335Y1054D01*
X379Y1054D02*
X435Y1054D01*
X479Y1054D02*
X535Y1054D01*
X579Y1054D02*
X635Y1054D01*
X679Y1054D02*
X735Y1054D01*
X779Y1054D02*
X835Y1054D01*
X879Y1054D02*
X935Y1054D01*
X1079Y1054D02*
X1135Y1054D01*
X1179Y1054D02*
X1235Y1054D01*
X1279Y1054D02*
X1335Y1054D01*
X1379Y1054D02*
X1435Y1054D01*
X1479Y1054D02*
X1535Y1054D01*
X1579Y1054D02*
X1635Y1054D01*
X1679Y1054D02*
X1735Y1054D01*
X1779Y1054D02*
X1835Y1054D01*
X179Y1053D02*
X235Y1053D01*
X279Y1053D02*
X335Y1053D01*
X379Y1053D02*
X435Y1053D01*
X479Y1053D02*
X535Y1053D01*
X579Y1053D02*
X635Y1053D01*
X679Y1053D02*
X735Y1053D01*
X779Y1053D02*
X835Y1053D01*
X879Y1053D02*
X935Y1053D01*
X1079Y1053D02*
X1135Y1053D01*
X1179Y1053D02*
X1235Y1053D01*
X1279Y1053D02*
X1335Y1053D01*
X1379Y1053D02*
X1435Y1053D01*
X1479Y1053D02*
X1535Y1053D01*
X1579Y1053D02*
X1635Y1053D01*
X1679Y1053D02*
X1735Y1053D01*
X1779Y1053D02*
X1835Y1053D01*
X179Y1052D02*
X235Y1052D01*
X279Y1052D02*
X335Y1052D01*
X379Y1052D02*
X435Y1052D01*
X479Y1052D02*
X535Y1052D01*
X579Y1052D02*
X635Y1052D01*
X679Y1052D02*
X735Y1052D01*
X779Y1052D02*
X835Y1052D01*
X879Y1052D02*
X935Y1052D01*
X1079Y1052D02*
X1135Y1052D01*
X1179Y1052D02*
X1235Y1052D01*
X1279Y1052D02*
X1335Y1052D01*
X1379Y1052D02*
X1435Y1052D01*
X1479Y1052D02*
X1535Y1052D01*
X1579Y1052D02*
X1635Y1052D01*
X1679Y1052D02*
X1735Y1052D01*
X1779Y1052D02*
X1835Y1052D01*
X179Y1051D02*
X235Y1051D01*
X279Y1051D02*
X335Y1051D01*
X379Y1051D02*
X435Y1051D01*
X479Y1051D02*
X535Y1051D01*
X579Y1051D02*
X635Y1051D01*
X679Y1051D02*
X735Y1051D01*
X779Y1051D02*
X835Y1051D01*
X879Y1051D02*
X935Y1051D01*
X1079Y1051D02*
X1135Y1051D01*
X1179Y1051D02*
X1235Y1051D01*
X1279Y1051D02*
X1335Y1051D01*
X1379Y1051D02*
X1435Y1051D01*
X1479Y1051D02*
X1535Y1051D01*
X1579Y1051D02*
X1635Y1051D01*
X1679Y1051D02*
X1735Y1051D01*
X1779Y1051D02*
X1835Y1051D01*
X179Y1050D02*
X235Y1050D01*
X279Y1050D02*
X335Y1050D01*
X379Y1050D02*
X435Y1050D01*
X479Y1050D02*
X535Y1050D01*
X579Y1050D02*
X635Y1050D01*
X679Y1050D02*
X735Y1050D01*
X779Y1050D02*
X835Y1050D01*
X879Y1050D02*
X935Y1050D01*
X1079Y1050D02*
X1135Y1050D01*
X1179Y1050D02*
X1235Y1050D01*
X1279Y1050D02*
X1335Y1050D01*
X1379Y1050D02*
X1435Y1050D01*
X1479Y1050D02*
X1535Y1050D01*
X1579Y1050D02*
X1635Y1050D01*
X1679Y1050D02*
X1735Y1050D01*
X1779Y1050D02*
X1835Y1050D01*
X179Y1049D02*
X235Y1049D01*
X279Y1049D02*
X335Y1049D01*
X379Y1049D02*
X435Y1049D01*
X479Y1049D02*
X535Y1049D01*
X579Y1049D02*
X635Y1049D01*
X679Y1049D02*
X735Y1049D01*
X779Y1049D02*
X835Y1049D01*
X879Y1049D02*
X935Y1049D01*
X1079Y1049D02*
X1135Y1049D01*
X1179Y1049D02*
X1235Y1049D01*
X1279Y1049D02*
X1335Y1049D01*
X1379Y1049D02*
X1435Y1049D01*
X1479Y1049D02*
X1535Y1049D01*
X1579Y1049D02*
X1635Y1049D01*
X1679Y1049D02*
X1735Y1049D01*
X1779Y1049D02*
X1835Y1049D01*
X179Y1048D02*
X235Y1048D01*
X279Y1048D02*
X335Y1048D01*
X379Y1048D02*
X435Y1048D01*
X479Y1048D02*
X535Y1048D01*
X579Y1048D02*
X635Y1048D01*
X679Y1048D02*
X735Y1048D01*
X779Y1048D02*
X835Y1048D01*
X879Y1048D02*
X935Y1048D01*
X1079Y1048D02*
X1135Y1048D01*
X1179Y1048D02*
X1235Y1048D01*
X1279Y1048D02*
X1335Y1048D01*
X1379Y1048D02*
X1435Y1048D01*
X1479Y1048D02*
X1535Y1048D01*
X1579Y1048D02*
X1635Y1048D01*
X1679Y1048D02*
X1735Y1048D01*
X1779Y1048D02*
X1835Y1048D01*
X179Y1047D02*
X235Y1047D01*
X279Y1047D02*
X335Y1047D01*
X379Y1047D02*
X435Y1047D01*
X479Y1047D02*
X535Y1047D01*
X579Y1047D02*
X635Y1047D01*
X679Y1047D02*
X735Y1047D01*
X779Y1047D02*
X835Y1047D01*
X879Y1047D02*
X935Y1047D01*
X1079Y1047D02*
X1135Y1047D01*
X1179Y1047D02*
X1235Y1047D01*
X1279Y1047D02*
X1335Y1047D01*
X1379Y1047D02*
X1435Y1047D01*
X1479Y1047D02*
X1535Y1047D01*
X1579Y1047D02*
X1635Y1047D01*
X1679Y1047D02*
X1735Y1047D01*
X1779Y1047D02*
X1835Y1047D01*
X179Y1046D02*
X235Y1046D01*
X279Y1046D02*
X335Y1046D01*
X379Y1046D02*
X435Y1046D01*
X479Y1046D02*
X535Y1046D01*
X579Y1046D02*
X635Y1046D01*
X679Y1046D02*
X735Y1046D01*
X779Y1046D02*
X835Y1046D01*
X879Y1046D02*
X935Y1046D01*
X1079Y1046D02*
X1135Y1046D01*
X1179Y1046D02*
X1235Y1046D01*
X1279Y1046D02*
X1335Y1046D01*
X1379Y1046D02*
X1435Y1046D01*
X1479Y1046D02*
X1535Y1046D01*
X1579Y1046D02*
X1635Y1046D01*
X1679Y1046D02*
X1735Y1046D01*
X1779Y1046D02*
X1835Y1046D01*
X179Y1045D02*
X235Y1045D01*
X279Y1045D02*
X335Y1045D01*
X379Y1045D02*
X435Y1045D01*
X479Y1045D02*
X535Y1045D01*
X579Y1045D02*
X635Y1045D01*
X679Y1045D02*
X735Y1045D01*
X779Y1045D02*
X835Y1045D01*
X879Y1045D02*
X935Y1045D01*
X1079Y1045D02*
X1135Y1045D01*
X1179Y1045D02*
X1235Y1045D01*
X1279Y1045D02*
X1335Y1045D01*
X1379Y1045D02*
X1435Y1045D01*
X1479Y1045D02*
X1535Y1045D01*
X1579Y1045D02*
X1635Y1045D01*
X1679Y1045D02*
X1735Y1045D01*
X1779Y1045D02*
X1835Y1045D01*
X179Y1044D02*
X235Y1044D01*
X279Y1044D02*
X335Y1044D01*
X379Y1044D02*
X435Y1044D01*
X479Y1044D02*
X535Y1044D01*
X579Y1044D02*
X635Y1044D01*
X679Y1044D02*
X735Y1044D01*
X779Y1044D02*
X835Y1044D01*
X879Y1044D02*
X935Y1044D01*
X1079Y1044D02*
X1135Y1044D01*
X1179Y1044D02*
X1235Y1044D01*
X1279Y1044D02*
X1335Y1044D01*
X1379Y1044D02*
X1435Y1044D01*
X1479Y1044D02*
X1535Y1044D01*
X1579Y1044D02*
X1635Y1044D01*
X1679Y1044D02*
X1735Y1044D01*
X1779Y1044D02*
X1835Y1044D01*
X179Y1043D02*
X235Y1043D01*
X279Y1043D02*
X335Y1043D01*
X379Y1043D02*
X435Y1043D01*
X479Y1043D02*
X535Y1043D01*
X579Y1043D02*
X635Y1043D01*
X679Y1043D02*
X735Y1043D01*
X779Y1043D02*
X835Y1043D01*
X879Y1043D02*
X935Y1043D01*
X1079Y1043D02*
X1135Y1043D01*
X1179Y1043D02*
X1235Y1043D01*
X1279Y1043D02*
X1335Y1043D01*
X1379Y1043D02*
X1435Y1043D01*
X1479Y1043D02*
X1535Y1043D01*
X1579Y1043D02*
X1635Y1043D01*
X1679Y1043D02*
X1735Y1043D01*
X1779Y1043D02*
X1835Y1043D01*
X179Y1042D02*
X235Y1042D01*
X279Y1042D02*
X335Y1042D01*
X379Y1042D02*
X435Y1042D01*
X479Y1042D02*
X535Y1042D01*
X579Y1042D02*
X635Y1042D01*
X679Y1042D02*
X735Y1042D01*
X779Y1042D02*
X835Y1042D01*
X879Y1042D02*
X935Y1042D01*
X1079Y1042D02*
X1135Y1042D01*
X1179Y1042D02*
X1235Y1042D01*
X1279Y1042D02*
X1335Y1042D01*
X1379Y1042D02*
X1435Y1042D01*
X1479Y1042D02*
X1535Y1042D01*
X1579Y1042D02*
X1635Y1042D01*
X1679Y1042D02*
X1735Y1042D01*
X1779Y1042D02*
X1835Y1042D01*
X179Y1041D02*
X235Y1041D01*
X279Y1041D02*
X335Y1041D01*
X379Y1041D02*
X435Y1041D01*
X479Y1041D02*
X535Y1041D01*
X579Y1041D02*
X635Y1041D01*
X679Y1041D02*
X735Y1041D01*
X779Y1041D02*
X835Y1041D01*
X879Y1041D02*
X935Y1041D01*
X1079Y1041D02*
X1135Y1041D01*
X1179Y1041D02*
X1235Y1041D01*
X1279Y1041D02*
X1335Y1041D01*
X1379Y1041D02*
X1435Y1041D01*
X1479Y1041D02*
X1535Y1041D01*
X1579Y1041D02*
X1635Y1041D01*
X1679Y1041D02*
X1735Y1041D01*
X1779Y1041D02*
X1835Y1041D01*
X179Y1040D02*
X235Y1040D01*
X279Y1040D02*
X335Y1040D01*
X379Y1040D02*
X435Y1040D01*
X479Y1040D02*
X535Y1040D01*
X579Y1040D02*
X635Y1040D01*
X679Y1040D02*
X735Y1040D01*
X779Y1040D02*
X835Y1040D01*
X879Y1040D02*
X935Y1040D01*
X1079Y1040D02*
X1135Y1040D01*
X1179Y1040D02*
X1235Y1040D01*
X1279Y1040D02*
X1335Y1040D01*
X1379Y1040D02*
X1435Y1040D01*
X1479Y1040D02*
X1535Y1040D01*
X1579Y1040D02*
X1635Y1040D01*
X1679Y1040D02*
X1735Y1040D01*
X1779Y1040D02*
X1835Y1040D01*
X179Y1039D02*
X235Y1039D01*
X279Y1039D02*
X335Y1039D01*
X379Y1039D02*
X435Y1039D01*
X479Y1039D02*
X535Y1039D01*
X579Y1039D02*
X635Y1039D01*
X679Y1039D02*
X735Y1039D01*
X779Y1039D02*
X835Y1039D01*
X879Y1039D02*
X935Y1039D01*
X1079Y1039D02*
X1135Y1039D01*
X1179Y1039D02*
X1235Y1039D01*
X1279Y1039D02*
X1335Y1039D01*
X1379Y1039D02*
X1435Y1039D01*
X1479Y1039D02*
X1535Y1039D01*
X1579Y1039D02*
X1635Y1039D01*
X1679Y1039D02*
X1735Y1039D01*
X1779Y1039D02*
X1835Y1039D01*
X179Y1038D02*
X235Y1038D01*
X279Y1038D02*
X335Y1038D01*
X379Y1038D02*
X435Y1038D01*
X479Y1038D02*
X535Y1038D01*
X579Y1038D02*
X635Y1038D01*
X679Y1038D02*
X735Y1038D01*
X779Y1038D02*
X835Y1038D01*
X879Y1038D02*
X935Y1038D01*
X1079Y1038D02*
X1135Y1038D01*
X1179Y1038D02*
X1235Y1038D01*
X1279Y1038D02*
X1335Y1038D01*
X1379Y1038D02*
X1435Y1038D01*
X1479Y1038D02*
X1535Y1038D01*
X1579Y1038D02*
X1635Y1038D01*
X1679Y1038D02*
X1735Y1038D01*
X1779Y1038D02*
X1835Y1038D01*
X179Y1037D02*
X235Y1037D01*
X279Y1037D02*
X335Y1037D01*
X379Y1037D02*
X435Y1037D01*
X479Y1037D02*
X535Y1037D01*
X579Y1037D02*
X635Y1037D01*
X679Y1037D02*
X735Y1037D01*
X779Y1037D02*
X835Y1037D01*
X879Y1037D02*
X935Y1037D01*
X1079Y1037D02*
X1135Y1037D01*
X1179Y1037D02*
X1235Y1037D01*
X1279Y1037D02*
X1335Y1037D01*
X1379Y1037D02*
X1435Y1037D01*
X1479Y1037D02*
X1535Y1037D01*
X1579Y1037D02*
X1635Y1037D01*
X1679Y1037D02*
X1735Y1037D01*
X1779Y1037D02*
X1835Y1037D01*
X179Y1036D02*
X235Y1036D01*
X279Y1036D02*
X335Y1036D01*
X379Y1036D02*
X435Y1036D01*
X479Y1036D02*
X535Y1036D01*
X579Y1036D02*
X635Y1036D01*
X679Y1036D02*
X735Y1036D01*
X779Y1036D02*
X835Y1036D01*
X879Y1036D02*
X935Y1036D01*
X1079Y1036D02*
X1135Y1036D01*
X1179Y1036D02*
X1235Y1036D01*
X1279Y1036D02*
X1335Y1036D01*
X1379Y1036D02*
X1435Y1036D01*
X1479Y1036D02*
X1535Y1036D01*
X1579Y1036D02*
X1635Y1036D01*
X1679Y1036D02*
X1735Y1036D01*
X1779Y1036D02*
X1835Y1036D01*
X179Y1035D02*
X235Y1035D01*
X279Y1035D02*
X335Y1035D01*
X379Y1035D02*
X435Y1035D01*
X479Y1035D02*
X535Y1035D01*
X579Y1035D02*
X635Y1035D01*
X679Y1035D02*
X735Y1035D01*
X779Y1035D02*
X835Y1035D01*
X879Y1035D02*
X935Y1035D01*
X1079Y1035D02*
X1135Y1035D01*
X1179Y1035D02*
X1235Y1035D01*
X1279Y1035D02*
X1335Y1035D01*
X1379Y1035D02*
X1435Y1035D01*
X1479Y1035D02*
X1535Y1035D01*
X1579Y1035D02*
X1635Y1035D01*
X1679Y1035D02*
X1735Y1035D01*
X1779Y1035D02*
X1835Y1035D01*
X179Y1034D02*
X235Y1034D01*
X279Y1034D02*
X335Y1034D01*
X379Y1034D02*
X435Y1034D01*
X479Y1034D02*
X535Y1034D01*
X579Y1034D02*
X635Y1034D01*
X679Y1034D02*
X735Y1034D01*
X779Y1034D02*
X835Y1034D01*
X879Y1034D02*
X935Y1034D01*
X1079Y1034D02*
X1135Y1034D01*
X1179Y1034D02*
X1235Y1034D01*
X1279Y1034D02*
X1335Y1034D01*
X1379Y1034D02*
X1435Y1034D01*
X1479Y1034D02*
X1535Y1034D01*
X1579Y1034D02*
X1635Y1034D01*
X1679Y1034D02*
X1735Y1034D01*
X1779Y1034D02*
X1835Y1034D01*
X179Y1033D02*
X200Y1033D01*
X214Y1033D02*
X235Y1033D01*
X279Y1033D02*
X300Y1033D01*
X314Y1033D02*
X335Y1033D01*
X379Y1033D02*
X400Y1033D01*
X414Y1033D02*
X435Y1033D01*
X479Y1033D02*
X500Y1033D01*
X514Y1033D02*
X535Y1033D01*
X579Y1033D02*
X600Y1033D01*
X614Y1033D02*
X635Y1033D01*
X679Y1033D02*
X700Y1033D01*
X714Y1033D02*
X735Y1033D01*
X779Y1033D02*
X800Y1033D01*
X814Y1033D02*
X835Y1033D01*
X879Y1033D02*
X900Y1033D01*
X914Y1033D02*
X935Y1033D01*
X1079Y1033D02*
X1100Y1033D01*
X1114Y1033D02*
X1135Y1033D01*
X1179Y1033D02*
X1200Y1033D01*
X1214Y1033D02*
X1235Y1033D01*
X1279Y1033D02*
X1300Y1033D01*
X1314Y1033D02*
X1335Y1033D01*
X1379Y1033D02*
X1400Y1033D01*
X1414Y1033D02*
X1435Y1033D01*
X1479Y1033D02*
X1500Y1033D01*
X1514Y1033D02*
X1535Y1033D01*
X1579Y1033D02*
X1600Y1033D01*
X1614Y1033D02*
X1635Y1033D01*
X1679Y1033D02*
X1700Y1033D01*
X1714Y1033D02*
X1735Y1033D01*
X1779Y1033D02*
X1800Y1033D01*
X1814Y1033D02*
X1835Y1033D01*
X179Y1032D02*
X197Y1032D01*
X217Y1032D02*
X235Y1032D01*
X279Y1032D02*
X297Y1032D01*
X317Y1032D02*
X335Y1032D01*
X379Y1032D02*
X397Y1032D01*
X417Y1032D02*
X435Y1032D01*
X479Y1032D02*
X497Y1032D01*
X517Y1032D02*
X535Y1032D01*
X579Y1032D02*
X597Y1032D01*
X617Y1032D02*
X635Y1032D01*
X679Y1032D02*
X697Y1032D01*
X717Y1032D02*
X735Y1032D01*
X779Y1032D02*
X797Y1032D01*
X817Y1032D02*
X835Y1032D01*
X879Y1032D02*
X897Y1032D01*
X917Y1032D02*
X935Y1032D01*
X1079Y1032D02*
X1097Y1032D01*
X1117Y1032D02*
X1135Y1032D01*
X1179Y1032D02*
X1197Y1032D01*
X1217Y1032D02*
X1235Y1032D01*
X1279Y1032D02*
X1297Y1032D01*
X1317Y1032D02*
X1335Y1032D01*
X1379Y1032D02*
X1397Y1032D01*
X1417Y1032D02*
X1435Y1032D01*
X1479Y1032D02*
X1497Y1032D01*
X1517Y1032D02*
X1535Y1032D01*
X1579Y1032D02*
X1597Y1032D01*
X1617Y1032D02*
X1635Y1032D01*
X1679Y1032D02*
X1697Y1032D01*
X1717Y1032D02*
X1735Y1032D01*
X1779Y1032D02*
X1797Y1032D01*
X1817Y1032D02*
X1835Y1032D01*
X179Y1031D02*
X195Y1031D01*
X220Y1031D02*
X235Y1031D01*
X279Y1031D02*
X294Y1031D01*
X320Y1031D02*
X335Y1031D01*
X379Y1031D02*
X394Y1031D01*
X420Y1031D02*
X435Y1031D01*
X479Y1031D02*
X494Y1031D01*
X520Y1031D02*
X535Y1031D01*
X579Y1031D02*
X594Y1031D01*
X620Y1031D02*
X635Y1031D01*
X679Y1031D02*
X694Y1031D01*
X720Y1031D02*
X735Y1031D01*
X779Y1031D02*
X794Y1031D01*
X820Y1031D02*
X835Y1031D01*
X879Y1031D02*
X894Y1031D01*
X920Y1031D02*
X935Y1031D01*
X1079Y1031D02*
X1094Y1031D01*
X1119Y1031D02*
X1135Y1031D01*
X1179Y1031D02*
X1194Y1031D01*
X1219Y1031D02*
X1235Y1031D01*
X1279Y1031D02*
X1294Y1031D01*
X1319Y1031D02*
X1335Y1031D01*
X1379Y1031D02*
X1394Y1031D01*
X1419Y1031D02*
X1435Y1031D01*
X1479Y1031D02*
X1494Y1031D01*
X1519Y1031D02*
X1535Y1031D01*
X1579Y1031D02*
X1594Y1031D01*
X1619Y1031D02*
X1635Y1031D01*
X1679Y1031D02*
X1694Y1031D01*
X1719Y1031D02*
X1735Y1031D01*
X1779Y1031D02*
X1794Y1031D01*
X1819Y1031D02*
X1835Y1031D01*
X179Y1030D02*
X193Y1030D01*
X222Y1030D02*
X235Y1030D01*
X279Y1030D02*
X293Y1030D01*
X322Y1030D02*
X335Y1030D01*
X379Y1030D02*
X393Y1030D01*
X422Y1030D02*
X435Y1030D01*
X479Y1030D02*
X492Y1030D01*
X522Y1030D02*
X535Y1030D01*
X579Y1030D02*
X592Y1030D01*
X622Y1030D02*
X635Y1030D01*
X679Y1030D02*
X692Y1030D01*
X722Y1030D02*
X735Y1030D01*
X779Y1030D02*
X792Y1030D01*
X822Y1030D02*
X835Y1030D01*
X879Y1030D02*
X892Y1030D01*
X921Y1030D02*
X935Y1030D01*
X1079Y1030D02*
X1092Y1030D01*
X1121Y1030D02*
X1135Y1030D01*
X1179Y1030D02*
X1192Y1030D01*
X1221Y1030D02*
X1235Y1030D01*
X1279Y1030D02*
X1292Y1030D01*
X1321Y1030D02*
X1335Y1030D01*
X1379Y1030D02*
X1392Y1030D01*
X1421Y1030D02*
X1435Y1030D01*
X1479Y1030D02*
X1492Y1030D01*
X1521Y1030D02*
X1535Y1030D01*
X1579Y1030D02*
X1592Y1030D01*
X1621Y1030D02*
X1635Y1030D01*
X1679Y1030D02*
X1692Y1030D01*
X1721Y1030D02*
X1735Y1030D01*
X1779Y1030D02*
X1792Y1030D01*
X1821Y1030D02*
X1835Y1030D01*
X179Y1029D02*
X191Y1029D01*
X223Y1029D02*
X235Y1029D01*
X279Y1029D02*
X291Y1029D01*
X323Y1029D02*
X335Y1029D01*
X379Y1029D02*
X391Y1029D01*
X423Y1029D02*
X435Y1029D01*
X479Y1029D02*
X491Y1029D01*
X523Y1029D02*
X535Y1029D01*
X579Y1029D02*
X591Y1029D01*
X623Y1029D02*
X635Y1029D01*
X679Y1029D02*
X691Y1029D01*
X723Y1029D02*
X735Y1029D01*
X779Y1029D02*
X791Y1029D01*
X823Y1029D02*
X835Y1029D01*
X879Y1029D02*
X891Y1029D01*
X923Y1029D02*
X935Y1029D01*
X1079Y1029D02*
X1091Y1029D01*
X1123Y1029D02*
X1135Y1029D01*
X1179Y1029D02*
X1191Y1029D01*
X1223Y1029D02*
X1235Y1029D01*
X1279Y1029D02*
X1291Y1029D01*
X1323Y1029D02*
X1335Y1029D01*
X1379Y1029D02*
X1391Y1029D01*
X1423Y1029D02*
X1435Y1029D01*
X1479Y1029D02*
X1491Y1029D01*
X1523Y1029D02*
X1535Y1029D01*
X1579Y1029D02*
X1591Y1029D01*
X1623Y1029D02*
X1635Y1029D01*
X1679Y1029D02*
X1691Y1029D01*
X1723Y1029D02*
X1735Y1029D01*
X1779Y1029D02*
X1791Y1029D01*
X1823Y1029D02*
X1835Y1029D01*
X179Y1028D02*
X190Y1028D01*
X225Y1028D02*
X235Y1028D01*
X279Y1028D02*
X290Y1028D01*
X325Y1028D02*
X335Y1028D01*
X379Y1028D02*
X390Y1028D01*
X425Y1028D02*
X435Y1028D01*
X479Y1028D02*
X490Y1028D01*
X525Y1028D02*
X535Y1028D01*
X579Y1028D02*
X590Y1028D01*
X624Y1028D02*
X635Y1028D01*
X679Y1028D02*
X690Y1028D01*
X724Y1028D02*
X735Y1028D01*
X779Y1028D02*
X789Y1028D01*
X824Y1028D02*
X835Y1028D01*
X879Y1028D02*
X889Y1028D01*
X924Y1028D02*
X935Y1028D01*
X1079Y1028D02*
X1089Y1028D01*
X1124Y1028D02*
X1135Y1028D01*
X1179Y1028D02*
X1189Y1028D01*
X1224Y1028D02*
X1235Y1028D01*
X1279Y1028D02*
X1289Y1028D01*
X1324Y1028D02*
X1335Y1028D01*
X1379Y1028D02*
X1389Y1028D01*
X1424Y1028D02*
X1435Y1028D01*
X1479Y1028D02*
X1489Y1028D01*
X1524Y1028D02*
X1535Y1028D01*
X1579Y1028D02*
X1589Y1028D01*
X1624Y1028D02*
X1635Y1028D01*
X1679Y1028D02*
X1689Y1028D01*
X1724Y1028D02*
X1735Y1028D01*
X1779Y1028D02*
X1789Y1028D01*
X1824Y1028D02*
X1835Y1028D01*
X179Y1027D02*
X188Y1027D01*
X226Y1027D02*
X235Y1027D01*
X279Y1027D02*
X288Y1027D01*
X326Y1027D02*
X335Y1027D01*
X379Y1027D02*
X388Y1027D01*
X426Y1027D02*
X435Y1027D01*
X479Y1027D02*
X488Y1027D01*
X526Y1027D02*
X535Y1027D01*
X579Y1027D02*
X588Y1027D01*
X626Y1027D02*
X635Y1027D01*
X679Y1027D02*
X688Y1027D01*
X726Y1027D02*
X735Y1027D01*
X779Y1027D02*
X788Y1027D01*
X826Y1027D02*
X835Y1027D01*
X879Y1027D02*
X888Y1027D01*
X926Y1027D02*
X935Y1027D01*
X1079Y1027D02*
X1088Y1027D01*
X1126Y1027D02*
X1135Y1027D01*
X1179Y1027D02*
X1188Y1027D01*
X1226Y1027D02*
X1235Y1027D01*
X1279Y1027D02*
X1288Y1027D01*
X1326Y1027D02*
X1335Y1027D01*
X1379Y1027D02*
X1388Y1027D01*
X1426Y1027D02*
X1435Y1027D01*
X1479Y1027D02*
X1488Y1027D01*
X1525Y1027D02*
X1535Y1027D01*
X1579Y1027D02*
X1588Y1027D01*
X1625Y1027D02*
X1635Y1027D01*
X1679Y1027D02*
X1688Y1027D01*
X1725Y1027D02*
X1735Y1027D01*
X1779Y1027D02*
X1788Y1027D01*
X1825Y1027D02*
X1835Y1027D01*
X179Y1026D02*
X187Y1026D01*
X227Y1026D02*
X235Y1026D01*
X279Y1026D02*
X287Y1026D01*
X327Y1026D02*
X335Y1026D01*
X379Y1026D02*
X387Y1026D01*
X427Y1026D02*
X435Y1026D01*
X479Y1026D02*
X487Y1026D01*
X527Y1026D02*
X535Y1026D01*
X579Y1026D02*
X587Y1026D01*
X627Y1026D02*
X635Y1026D01*
X679Y1026D02*
X687Y1026D01*
X727Y1026D02*
X735Y1026D01*
X779Y1026D02*
X787Y1026D01*
X827Y1026D02*
X835Y1026D01*
X879Y1026D02*
X887Y1026D01*
X927Y1026D02*
X935Y1026D01*
X1079Y1026D02*
X1087Y1026D01*
X1127Y1026D02*
X1135Y1026D01*
X1179Y1026D02*
X1187Y1026D01*
X1227Y1026D02*
X1235Y1026D01*
X1279Y1026D02*
X1287Y1026D01*
X1327Y1026D02*
X1335Y1026D01*
X1379Y1026D02*
X1387Y1026D01*
X1427Y1026D02*
X1435Y1026D01*
X1479Y1026D02*
X1487Y1026D01*
X1527Y1026D02*
X1535Y1026D01*
X1579Y1026D02*
X1587Y1026D01*
X1627Y1026D02*
X1635Y1026D01*
X1679Y1026D02*
X1687Y1026D01*
X1727Y1026D02*
X1735Y1026D01*
X1779Y1026D02*
X1787Y1026D01*
X1827Y1026D02*
X1835Y1026D01*
X179Y1025D02*
X186Y1025D01*
X228Y1025D02*
X235Y1025D01*
X279Y1025D02*
X286Y1025D01*
X328Y1025D02*
X335Y1025D01*
X379Y1025D02*
X386Y1025D01*
X428Y1025D02*
X435Y1025D01*
X479Y1025D02*
X486Y1025D01*
X528Y1025D02*
X535Y1025D01*
X579Y1025D02*
X586Y1025D01*
X628Y1025D02*
X635Y1025D01*
X679Y1025D02*
X686Y1025D01*
X728Y1025D02*
X735Y1025D01*
X779Y1025D02*
X786Y1025D01*
X828Y1025D02*
X835Y1025D01*
X879Y1025D02*
X886Y1025D01*
X928Y1025D02*
X935Y1025D01*
X1079Y1025D02*
X1086Y1025D01*
X1128Y1025D02*
X1135Y1025D01*
X1179Y1025D02*
X1186Y1025D01*
X1228Y1025D02*
X1235Y1025D01*
X1279Y1025D02*
X1286Y1025D01*
X1328Y1025D02*
X1335Y1025D01*
X1379Y1025D02*
X1386Y1025D01*
X1428Y1025D02*
X1435Y1025D01*
X1479Y1025D02*
X1486Y1025D01*
X1528Y1025D02*
X1535Y1025D01*
X1579Y1025D02*
X1586Y1025D01*
X1628Y1025D02*
X1635Y1025D01*
X1679Y1025D02*
X1686Y1025D01*
X1728Y1025D02*
X1735Y1025D01*
X1779Y1025D02*
X1786Y1025D01*
X1828Y1025D02*
X1835Y1025D01*
X179Y1024D02*
X185Y1024D01*
X229Y1024D02*
X235Y1024D01*
X279Y1024D02*
X285Y1024D01*
X329Y1024D02*
X335Y1024D01*
X379Y1024D02*
X385Y1024D01*
X429Y1024D02*
X435Y1024D01*
X479Y1024D02*
X485Y1024D01*
X529Y1024D02*
X535Y1024D01*
X579Y1024D02*
X585Y1024D01*
X629Y1024D02*
X635Y1024D01*
X679Y1024D02*
X685Y1024D01*
X729Y1024D02*
X735Y1024D01*
X779Y1024D02*
X785Y1024D01*
X829Y1024D02*
X835Y1024D01*
X879Y1024D02*
X885Y1024D01*
X929Y1024D02*
X935Y1024D01*
X1079Y1024D02*
X1085Y1024D01*
X1129Y1024D02*
X1135Y1024D01*
X1179Y1024D02*
X1185Y1024D01*
X1229Y1024D02*
X1235Y1024D01*
X1279Y1024D02*
X1285Y1024D01*
X1329Y1024D02*
X1335Y1024D01*
X1379Y1024D02*
X1385Y1024D01*
X1429Y1024D02*
X1435Y1024D01*
X1479Y1024D02*
X1485Y1024D01*
X1529Y1024D02*
X1535Y1024D01*
X1579Y1024D02*
X1585Y1024D01*
X1629Y1024D02*
X1635Y1024D01*
X1679Y1024D02*
X1685Y1024D01*
X1729Y1024D02*
X1735Y1024D01*
X1779Y1024D02*
X1785Y1024D01*
X1829Y1024D02*
X1835Y1024D01*
X179Y1023D02*
X185Y1023D01*
X230Y1023D02*
X235Y1023D01*
X279Y1023D02*
X284Y1023D01*
X330Y1023D02*
X335Y1023D01*
X379Y1023D02*
X384Y1023D01*
X430Y1023D02*
X435Y1023D01*
X479Y1023D02*
X484Y1023D01*
X530Y1023D02*
X535Y1023D01*
X579Y1023D02*
X584Y1023D01*
X630Y1023D02*
X635Y1023D01*
X679Y1023D02*
X684Y1023D01*
X730Y1023D02*
X735Y1023D01*
X779Y1023D02*
X784Y1023D01*
X830Y1023D02*
X835Y1023D01*
X879Y1023D02*
X884Y1023D01*
X930Y1023D02*
X935Y1023D01*
X1079Y1023D02*
X1084Y1023D01*
X1130Y1023D02*
X1135Y1023D01*
X1179Y1023D02*
X1184Y1023D01*
X1229Y1023D02*
X1235Y1023D01*
X1279Y1023D02*
X1284Y1023D01*
X1329Y1023D02*
X1335Y1023D01*
X1379Y1023D02*
X1384Y1023D01*
X1429Y1023D02*
X1435Y1023D01*
X1479Y1023D02*
X1484Y1023D01*
X1529Y1023D02*
X1535Y1023D01*
X1579Y1023D02*
X1584Y1023D01*
X1629Y1023D02*
X1635Y1023D01*
X1679Y1023D02*
X1684Y1023D01*
X1729Y1023D02*
X1735Y1023D01*
X1779Y1023D02*
X1784Y1023D01*
X1829Y1023D02*
X1835Y1023D01*
X179Y1022D02*
X184Y1022D01*
X231Y1022D02*
X235Y1022D01*
X279Y1022D02*
X284Y1022D01*
X331Y1022D02*
X335Y1022D01*
X379Y1022D02*
X384Y1022D01*
X430Y1022D02*
X435Y1022D01*
X479Y1022D02*
X484Y1022D01*
X530Y1022D02*
X535Y1022D01*
X579Y1022D02*
X584Y1022D01*
X630Y1022D02*
X635Y1022D01*
X679Y1022D02*
X684Y1022D01*
X730Y1022D02*
X735Y1022D01*
X779Y1022D02*
X784Y1022D01*
X830Y1022D02*
X835Y1022D01*
X879Y1022D02*
X884Y1022D01*
X930Y1022D02*
X935Y1022D01*
X1079Y1022D02*
X1083Y1022D01*
X1130Y1022D02*
X1135Y1022D01*
X1179Y1022D02*
X1183Y1022D01*
X1230Y1022D02*
X1235Y1022D01*
X1279Y1022D02*
X1283Y1022D01*
X1330Y1022D02*
X1335Y1022D01*
X1379Y1022D02*
X1383Y1022D01*
X1430Y1022D02*
X1435Y1022D01*
X1479Y1022D02*
X1483Y1022D01*
X1530Y1022D02*
X1535Y1022D01*
X1579Y1022D02*
X1583Y1022D01*
X1630Y1022D02*
X1635Y1022D01*
X1679Y1022D02*
X1683Y1022D01*
X1730Y1022D02*
X1735Y1022D01*
X1779Y1022D02*
X1783Y1022D01*
X1830Y1022D02*
X1835Y1022D01*
X179Y1021D02*
X183Y1021D01*
X231Y1021D02*
X235Y1021D01*
X279Y1021D02*
X283Y1021D01*
X331Y1021D02*
X335Y1021D01*
X379Y1021D02*
X383Y1021D01*
X431Y1021D02*
X435Y1021D01*
X479Y1021D02*
X483Y1021D01*
X531Y1021D02*
X535Y1021D01*
X579Y1021D02*
X583Y1021D01*
X631Y1021D02*
X635Y1021D01*
X679Y1021D02*
X683Y1021D01*
X731Y1021D02*
X735Y1021D01*
X779Y1021D02*
X783Y1021D01*
X831Y1021D02*
X835Y1021D01*
X879Y1021D02*
X883Y1021D01*
X931Y1021D02*
X935Y1021D01*
X1079Y1021D02*
X1083Y1021D01*
X1131Y1021D02*
X1135Y1021D01*
X1179Y1021D02*
X1183Y1021D01*
X1231Y1021D02*
X1235Y1021D01*
X1279Y1021D02*
X1283Y1021D01*
X1331Y1021D02*
X1335Y1021D01*
X1379Y1021D02*
X1383Y1021D01*
X1431Y1021D02*
X1435Y1021D01*
X1479Y1021D02*
X1483Y1021D01*
X1531Y1021D02*
X1535Y1021D01*
X1579Y1021D02*
X1583Y1021D01*
X1631Y1021D02*
X1635Y1021D01*
X1679Y1021D02*
X1683Y1021D01*
X1731Y1021D02*
X1735Y1021D01*
X1779Y1021D02*
X1783Y1021D01*
X1831Y1021D02*
X1835Y1021D01*
X179Y1020D02*
X182Y1020D01*
X232Y1020D02*
X235Y1020D01*
X279Y1020D02*
X282Y1020D01*
X332Y1020D02*
X335Y1020D01*
X379Y1020D02*
X382Y1020D01*
X432Y1020D02*
X435Y1020D01*
X479Y1020D02*
X482Y1020D01*
X532Y1020D02*
X535Y1020D01*
X579Y1020D02*
X582Y1020D01*
X632Y1020D02*
X635Y1020D01*
X679Y1020D02*
X682Y1020D01*
X732Y1020D02*
X735Y1020D01*
X779Y1020D02*
X782Y1020D01*
X832Y1020D02*
X835Y1020D01*
X879Y1020D02*
X882Y1020D01*
X932Y1020D02*
X935Y1020D01*
X1079Y1020D02*
X1082Y1020D01*
X1132Y1020D02*
X1135Y1020D01*
X1179Y1020D02*
X1182Y1020D01*
X1232Y1020D02*
X1235Y1020D01*
X1279Y1020D02*
X1282Y1020D01*
X1332Y1020D02*
X1335Y1020D01*
X1379Y1020D02*
X1382Y1020D01*
X1432Y1020D02*
X1435Y1020D01*
X1479Y1020D02*
X1482Y1020D01*
X1532Y1020D02*
X1535Y1020D01*
X1579Y1020D02*
X1582Y1020D01*
X1632Y1020D02*
X1635Y1020D01*
X1679Y1020D02*
X1682Y1020D01*
X1732Y1020D02*
X1735Y1020D01*
X1779Y1020D02*
X1782Y1020D01*
X1832Y1020D02*
X1835Y1020D01*
X179Y1019D02*
X182Y1019D01*
X233Y1019D02*
X235Y1019D01*
X279Y1019D02*
X282Y1019D01*
X333Y1019D02*
X335Y1019D01*
X379Y1019D02*
X382Y1019D01*
X432Y1019D02*
X435Y1019D01*
X479Y1019D02*
X482Y1019D01*
X532Y1019D02*
X535Y1019D01*
X579Y1019D02*
X582Y1019D01*
X632Y1019D02*
X635Y1019D01*
X679Y1019D02*
X682Y1019D01*
X732Y1019D02*
X735Y1019D01*
X779Y1019D02*
X782Y1019D01*
X832Y1019D02*
X835Y1019D01*
X879Y1019D02*
X882Y1019D01*
X932Y1019D02*
X935Y1019D01*
X1079Y1019D02*
X1081Y1019D01*
X1132Y1019D02*
X1135Y1019D01*
X1179Y1019D02*
X1181Y1019D01*
X1232Y1019D02*
X1235Y1019D01*
X1279Y1019D02*
X1281Y1019D01*
X1332Y1019D02*
X1335Y1019D01*
X1379Y1019D02*
X1381Y1019D01*
X1432Y1019D02*
X1435Y1019D01*
X1479Y1019D02*
X1481Y1019D01*
X1532Y1019D02*
X1535Y1019D01*
X1579Y1019D02*
X1581Y1019D01*
X1632Y1019D02*
X1635Y1019D01*
X1679Y1019D02*
X1681Y1019D01*
X1732Y1019D02*
X1735Y1019D01*
X1779Y1019D02*
X1781Y1019D01*
X1832Y1019D02*
X1835Y1019D01*
X179Y1018D02*
X181Y1018D01*
X233Y1018D02*
X235Y1018D01*
X279Y1018D02*
X281Y1018D01*
X333Y1018D02*
X335Y1018D01*
X379Y1018D02*
X381Y1018D01*
X433Y1018D02*
X435Y1018D01*
X479Y1018D02*
X481Y1018D01*
X533Y1018D02*
X535Y1018D01*
X579Y1018D02*
X581Y1018D01*
X633Y1018D02*
X635Y1018D01*
X679Y1018D02*
X681Y1018D01*
X733Y1018D02*
X735Y1018D01*
X779Y1018D02*
X781Y1018D01*
X833Y1018D02*
X835Y1018D01*
X879Y1018D02*
X881Y1018D01*
X933Y1018D02*
X935Y1018D01*
X1079Y1018D02*
X1081Y1018D01*
X1133Y1018D02*
X1135Y1018D01*
X1179Y1018D02*
X1181Y1018D01*
X1233Y1018D02*
X1235Y1018D01*
X1279Y1018D02*
X1281Y1018D01*
X1333Y1018D02*
X1335Y1018D01*
X1379Y1018D02*
X1381Y1018D01*
X1433Y1018D02*
X1435Y1018D01*
X1479Y1018D02*
X1481Y1018D01*
X1533Y1018D02*
X1535Y1018D01*
X1579Y1018D02*
X1581Y1018D01*
X1633Y1018D02*
X1635Y1018D01*
X1679Y1018D02*
X1681Y1018D01*
X1733Y1018D02*
X1735Y1018D01*
X1779Y1018D02*
X1781Y1018D01*
X1833Y1018D02*
X1835Y1018D01*
X179Y1017D02*
X181Y1017D01*
X234Y1017D02*
X235Y1017D01*
X279Y1017D02*
X281Y1017D01*
X334Y1017D02*
X335Y1017D01*
X379Y1017D02*
X381Y1017D01*
X433Y1017D02*
X435Y1017D01*
X479Y1017D02*
X481Y1017D01*
X533Y1017D02*
X535Y1017D01*
X579Y1017D02*
X581Y1017D01*
X633Y1017D02*
X635Y1017D01*
X679Y1017D02*
X681Y1017D01*
X733Y1017D02*
X735Y1017D01*
X779Y1017D02*
X781Y1017D01*
X833Y1017D02*
X835Y1017D01*
X879Y1017D02*
X881Y1017D01*
X933Y1017D02*
X935Y1017D01*
X1079Y1017D02*
X1080Y1017D01*
X1133Y1017D02*
X1135Y1017D01*
X1179Y1017D02*
X1180Y1017D01*
X1233Y1017D02*
X1235Y1017D01*
X1279Y1017D02*
X1280Y1017D01*
X1333Y1017D02*
X1335Y1017D01*
X1379Y1017D02*
X1380Y1017D01*
X1433Y1017D02*
X1435Y1017D01*
X1479Y1017D02*
X1480Y1017D01*
X1533Y1017D02*
X1535Y1017D01*
X1579Y1017D02*
X1580Y1017D01*
X1633Y1017D02*
X1635Y1017D01*
X1679Y1017D02*
X1680Y1017D01*
X1733Y1017D02*
X1735Y1017D01*
X1779Y1017D02*
X1780Y1017D01*
X1833Y1017D02*
X1835Y1017D01*
X179Y1016D02*
X180Y1016D01*
X234Y1016D02*
X235Y1016D01*
X279Y1016D02*
X280Y1016D01*
X334Y1016D02*
X335Y1016D01*
X379Y1016D02*
X380Y1016D01*
X434Y1016D02*
X435Y1016D01*
X479Y1016D02*
X480Y1016D01*
X534Y1016D02*
X535Y1016D01*
X579Y1016D02*
X580Y1016D01*
X634Y1016D02*
X635Y1016D01*
X679Y1016D02*
X680Y1016D01*
X734Y1016D02*
X735Y1016D01*
X779Y1016D02*
X780Y1016D01*
X834Y1016D02*
X835Y1016D01*
X879Y1016D02*
X880Y1016D01*
X934Y1016D02*
X935Y1016D01*
X1079Y1016D02*
X1080Y1016D01*
X1134Y1016D02*
X1135Y1016D01*
X1179Y1016D02*
X1180Y1016D01*
X1234Y1016D02*
X1235Y1016D01*
X1279Y1016D02*
X1280Y1016D01*
X1334Y1016D02*
X1335Y1016D01*
X1379Y1016D02*
X1380Y1016D01*
X1434Y1016D02*
X1435Y1016D01*
X1479Y1016D02*
X1480Y1016D01*
X1534Y1016D02*
X1535Y1016D01*
X1579Y1016D02*
X1580Y1016D01*
X1634Y1016D02*
X1635Y1016D01*
X1679Y1016D02*
X1680Y1016D01*
X1734Y1016D02*
X1735Y1016D01*
X1779Y1016D02*
X1780Y1016D01*
X1834Y1016D02*
X1835Y1016D01*
X179Y1015D02*
X180Y1015D01*
X234Y1015D02*
X235Y1015D01*
X279Y1015D02*
X280Y1015D01*
X334Y1015D02*
X335Y1015D01*
X379Y1015D02*
X380Y1015D01*
X434Y1015D02*
X435Y1015D01*
X479Y1015D02*
X480Y1015D01*
X534Y1015D02*
X535Y1015D01*
X579Y1015D02*
X580Y1015D01*
X634Y1015D02*
X635Y1015D01*
X679Y1015D02*
X680Y1015D01*
X734Y1015D02*
X735Y1015D01*
X779Y1015D02*
X780Y1015D01*
X834Y1015D02*
X835Y1015D01*
X879Y1015D02*
X880Y1015D01*
X934Y1015D02*
X935Y1015D01*
X1079Y1015D02*
X1080Y1015D01*
X1134Y1015D02*
X1135Y1015D01*
X1179Y1015D02*
X1180Y1015D01*
X1234Y1015D02*
X1235Y1015D01*
X1279Y1015D02*
X1280Y1015D01*
X1334Y1015D02*
X1335Y1015D01*
X1379Y1015D02*
X1380Y1015D01*
X1434Y1015D02*
X1435Y1015D01*
X1479Y1015D02*
X1480Y1015D01*
X1534Y1015D02*
X1535Y1015D01*
X1579Y1015D02*
X1580Y1015D01*
X1634Y1015D02*
X1635Y1015D01*
X1679Y1015D02*
X1680Y1015D01*
X1734Y1015D02*
X1735Y1015D01*
X1779Y1015D02*
X1780Y1015D01*
X1834Y1015D02*
X1835Y1015D01*
X179Y1014D02*
X180Y1014D01*
X235Y1014D02*
X235Y1014D01*
X279Y1014D02*
X279Y1014D01*
X335Y1014D02*
X335Y1014D01*
X379Y1014D02*
X379Y1014D01*
X435Y1014D02*
X435Y1014D01*
X479Y1014D02*
X479Y1014D01*
X535Y1014D02*
X535Y1014D01*
X579Y1014D02*
X579Y1014D01*
X635Y1014D02*
X635Y1014D01*
X679Y1014D02*
X679Y1014D01*
X735Y1014D02*
X735Y1014D01*
X779Y1014D02*
X779Y1014D01*
X835Y1014D02*
X835Y1014D01*
X879Y1014D02*
X879Y1014D01*
X935Y1014D02*
X935Y1014D01*
X1079Y1014D02*
X1079Y1014D01*
X1134Y1014D02*
X1135Y1014D01*
X1179Y1014D02*
X1179Y1014D01*
X1234Y1014D02*
X1235Y1014D01*
X1279Y1014D02*
X1279Y1014D01*
X1334Y1014D02*
X1335Y1014D01*
X1379Y1014D02*
X1379Y1014D01*
X1434Y1014D02*
X1435Y1014D01*
X1479Y1014D02*
X1479Y1014D01*
X1534Y1014D02*
X1535Y1014D01*
X1579Y1014D02*
X1579Y1014D01*
X1634Y1014D02*
X1635Y1014D01*
X1679Y1014D02*
X1679Y1014D01*
X1734Y1014D02*
X1735Y1014D01*
X1779Y1014D02*
X1779Y1014D01*
X1834Y1014D02*
X1835Y1014D01*
X179Y1013D02*
X179Y1013D01*
X235Y1013D02*
X235Y1013D01*
X279Y1013D02*
X279Y1013D01*
X335Y1013D02*
X335Y1013D01*
X379Y1013D02*
X379Y1013D01*
X435Y1013D02*
X435Y1013D01*
X479Y1013D02*
X479Y1013D01*
X535Y1013D02*
X535Y1013D01*
X579Y1013D02*
X579Y1013D01*
X635Y1013D02*
X635Y1013D01*
X679Y1013D02*
X679Y1013D01*
X735Y1013D02*
X735Y1013D01*
X779Y1013D02*
X779Y1013D01*
X835Y1013D02*
X835Y1013D01*
X879Y1013D02*
X879Y1013D01*
X935Y1013D02*
X935Y1013D01*
X1079Y1013D02*
X1079Y1013D01*
X1135Y1013D02*
X1135Y1013D01*
X1179Y1013D02*
X1179Y1013D01*
X1235Y1013D02*
X1235Y1013D01*
X1279Y1013D02*
X1279Y1013D01*
X1335Y1013D02*
X1335Y1013D01*
X1379Y1013D02*
X1379Y1013D01*
X1435Y1013D02*
X1435Y1013D01*
X1479Y1013D02*
X1479Y1013D01*
X1535Y1013D02*
X1535Y1013D01*
X1579Y1013D02*
X1579Y1013D01*
X1635Y1013D02*
X1635Y1013D01*
X1679Y1013D02*
X1679Y1013D01*
X1735Y1013D02*
X1735Y1013D01*
X1779Y1013D02*
X1779Y1013D01*
X1835Y1013D02*
X1835Y1013D01*
X179Y1012D02*
X179Y1012D01*
X235Y1012D02*
X235Y1012D01*
X279Y1012D02*
X279Y1012D01*
X335Y1012D02*
X335Y1012D01*
X379Y1012D02*
X379Y1012D01*
X435Y1012D02*
X435Y1012D01*
X479Y1012D02*
X479Y1012D01*
X535Y1012D02*
X535Y1012D01*
X579Y1012D02*
X579Y1012D01*
X635Y1012D02*
X635Y1012D01*
X679Y1012D02*
X679Y1012D01*
X735Y1012D02*
X735Y1012D01*
X779Y1012D02*
X779Y1012D01*
X835Y1012D02*
X835Y1012D01*
X879Y1012D02*
X879Y1012D01*
X935Y1012D02*
X935Y1012D01*
X1079Y1012D02*
X1079Y1012D01*
X1135Y1012D02*
X1135Y1012D01*
X1179Y1012D02*
X1179Y1012D01*
X1235Y1012D02*
X1235Y1012D01*
X1279Y1012D02*
X1279Y1012D01*
X1335Y1012D02*
X1335Y1012D01*
X1379Y1012D02*
X1379Y1012D01*
X1435Y1012D02*
X1435Y1012D01*
X1479Y1012D02*
X1479Y1012D01*
X1535Y1012D02*
X1535Y1012D01*
X1579Y1012D02*
X1579Y1012D01*
X1635Y1012D02*
X1635Y1012D01*
X1679Y1012D02*
X1679Y1012D01*
X1735Y1012D02*
X1735Y1012D01*
X1779Y1012D02*
X1779Y1012D01*
X1835Y1012D02*
X1835Y1012D01*
X179Y1011D02*
X179Y1011D01*
X279Y1011D02*
X279Y1011D01*
X335Y1011D02*
X335Y1011D01*
X379Y1011D02*
X379Y1011D01*
X435Y1011D02*
X435Y1011D01*
X479Y1011D02*
X479Y1011D01*
X535Y1011D02*
X535Y1011D01*
X579Y1011D02*
X579Y1011D01*
X635Y1011D02*
X635Y1011D01*
X679Y1011D02*
X679Y1011D01*
X735Y1011D02*
X735Y1011D01*
X779Y1011D02*
X779Y1011D01*
X835Y1011D02*
X835Y1011D01*
X879Y1011D02*
X879Y1011D01*
X935Y1011D02*
X935Y1011D01*
X1079Y1011D02*
X1079Y1011D01*
X1135Y1011D02*
X1135Y1011D01*
X1235Y1011D02*
X1235Y1011D01*
X1335Y1011D02*
X1335Y1011D01*
X1435Y1011D02*
X1435Y1011D01*
X1535Y1011D02*
X1535Y1011D01*
X1635Y1011D02*
X1635Y1011D01*
X1735Y1011D02*
X1735Y1011D01*
X1835Y1011D02*
X1835Y1011D01*
X379Y1000D02*
X379Y1000D01*
X579Y1000D02*
X579Y1000D01*
X735Y1000D02*
X735Y1000D01*
X835Y1000D02*
X835Y1000D01*
X935Y1000D02*
X935Y1000D01*
X1135Y1000D02*
X1135Y1000D01*
X1235Y1000D02*
X1235Y1000D01*
X1335Y1000D02*
X1335Y1000D01*
X1435Y1000D02*
X1435Y1000D01*
X1535Y1000D02*
X1535Y1000D01*
X1635Y1000D02*
X1635Y1000D01*
X1735Y1000D02*
X1735Y1000D01*
X1835Y1000D02*
X1835Y1000D01*
X179Y999D02*
X179Y999D01*
X235Y999D02*
X235Y999D01*
X279Y999D02*
X279Y999D01*
X335Y999D02*
X335Y999D01*
X379Y999D02*
X379Y999D01*
X435Y999D02*
X435Y999D01*
X479Y999D02*
X479Y999D01*
X535Y999D02*
X535Y999D01*
X579Y999D02*
X579Y999D01*
X635Y999D02*
X635Y999D01*
X679Y999D02*
X679Y999D01*
X735Y999D02*
X735Y999D01*
X779Y999D02*
X779Y999D01*
X835Y999D02*
X835Y999D01*
X879Y999D02*
X879Y999D01*
X935Y999D02*
X935Y999D01*
X1079Y999D02*
X1079Y999D01*
X1135Y999D02*
X1135Y999D01*
X1179Y999D02*
X1179Y999D01*
X1235Y999D02*
X1235Y999D01*
X1279Y999D02*
X1279Y999D01*
X1335Y999D02*
X1335Y999D01*
X1379Y999D02*
X1379Y999D01*
X1435Y999D02*
X1435Y999D01*
X1479Y999D02*
X1479Y999D01*
X1535Y999D02*
X1535Y999D01*
X1635Y999D02*
X1635Y999D01*
X1735Y999D02*
X1735Y999D01*
X1835Y999D02*
X1835Y999D01*
X179Y998D02*
X179Y998D01*
X235Y998D02*
X235Y998D01*
X279Y998D02*
X279Y998D01*
X335Y998D02*
X335Y998D01*
X379Y998D02*
X379Y998D01*
X435Y998D02*
X435Y998D01*
X479Y998D02*
X479Y998D01*
X535Y998D02*
X535Y998D01*
X579Y998D02*
X579Y998D01*
X635Y998D02*
X635Y998D01*
X679Y998D02*
X679Y998D01*
X735Y998D02*
X735Y998D01*
X779Y998D02*
X779Y998D01*
X835Y998D02*
X835Y998D01*
X879Y998D02*
X879Y998D01*
X935Y998D02*
X935Y998D01*
X1079Y998D02*
X1079Y998D01*
X1135Y998D02*
X1135Y998D01*
X1179Y998D02*
X1179Y998D01*
X1235Y998D02*
X1235Y998D01*
X1279Y998D02*
X1279Y998D01*
X1335Y998D02*
X1335Y998D01*
X1379Y998D02*
X1379Y998D01*
X1435Y998D02*
X1435Y998D01*
X1479Y998D02*
X1479Y998D01*
X1535Y998D02*
X1535Y998D01*
X1579Y998D02*
X1579Y998D01*
X1635Y998D02*
X1635Y998D01*
X1679Y998D02*
X1679Y998D01*
X1735Y998D02*
X1735Y998D01*
X1779Y998D02*
X1779Y998D01*
X1835Y998D02*
X1835Y998D01*
X179Y997D02*
X179Y997D01*
X235Y997D02*
X235Y997D01*
X279Y997D02*
X279Y997D01*
X335Y997D02*
X335Y997D01*
X379Y997D02*
X379Y997D01*
X435Y997D02*
X435Y997D01*
X479Y997D02*
X479Y997D01*
X535Y997D02*
X535Y997D01*
X579Y997D02*
X579Y997D01*
X635Y997D02*
X635Y997D01*
X679Y997D02*
X679Y997D01*
X735Y997D02*
X735Y997D01*
X779Y997D02*
X779Y997D01*
X835Y997D02*
X835Y997D01*
X879Y997D02*
X879Y997D01*
X935Y997D02*
X935Y997D01*
X1079Y997D02*
X1079Y997D01*
X1135Y997D02*
X1135Y997D01*
X1179Y997D02*
X1179Y997D01*
X1235Y997D02*
X1235Y997D01*
X1279Y997D02*
X1279Y997D01*
X1335Y997D02*
X1335Y997D01*
X1379Y997D02*
X1379Y997D01*
X1435Y997D02*
X1435Y997D01*
X1479Y997D02*
X1479Y997D01*
X1535Y997D02*
X1535Y997D01*
X1579Y997D02*
X1579Y997D01*
X1635Y997D02*
X1635Y997D01*
X1679Y997D02*
X1679Y997D01*
X1735Y997D02*
X1735Y997D01*
X1779Y997D02*
X1779Y997D01*
X1835Y997D02*
X1835Y997D01*
X179Y996D02*
X180Y996D01*
X235Y996D02*
X235Y996D01*
X279Y996D02*
X280Y996D01*
X335Y996D02*
X335Y996D01*
X379Y996D02*
X380Y996D01*
X434Y996D02*
X435Y996D01*
X479Y996D02*
X480Y996D01*
X534Y996D02*
X535Y996D01*
X579Y996D02*
X580Y996D01*
X634Y996D02*
X635Y996D01*
X679Y996D02*
X680Y996D01*
X734Y996D02*
X735Y996D01*
X779Y996D02*
X780Y996D01*
X834Y996D02*
X835Y996D01*
X879Y996D02*
X880Y996D01*
X934Y996D02*
X935Y996D01*
X1079Y996D02*
X1079Y996D01*
X1134Y996D02*
X1135Y996D01*
X1179Y996D02*
X1179Y996D01*
X1234Y996D02*
X1235Y996D01*
X1279Y996D02*
X1279Y996D01*
X1334Y996D02*
X1335Y996D01*
X1379Y996D02*
X1379Y996D01*
X1434Y996D02*
X1435Y996D01*
X1479Y996D02*
X1479Y996D01*
X1534Y996D02*
X1535Y996D01*
X1579Y996D02*
X1579Y996D01*
X1634Y996D02*
X1635Y996D01*
X1679Y996D02*
X1679Y996D01*
X1734Y996D02*
X1735Y996D01*
X1779Y996D02*
X1779Y996D01*
X1834Y996D02*
X1835Y996D01*
X179Y995D02*
X180Y995D01*
X234Y995D02*
X235Y995D01*
X279Y995D02*
X280Y995D01*
X334Y995D02*
X335Y995D01*
X379Y995D02*
X380Y995D01*
X434Y995D02*
X435Y995D01*
X479Y995D02*
X480Y995D01*
X534Y995D02*
X535Y995D01*
X579Y995D02*
X580Y995D01*
X634Y995D02*
X635Y995D01*
X679Y995D02*
X680Y995D01*
X734Y995D02*
X735Y995D01*
X779Y995D02*
X780Y995D01*
X834Y995D02*
X835Y995D01*
X879Y995D02*
X880Y995D01*
X934Y995D02*
X935Y995D01*
X1079Y995D02*
X1080Y995D01*
X1134Y995D02*
X1135Y995D01*
X1179Y995D02*
X1180Y995D01*
X1234Y995D02*
X1235Y995D01*
X1279Y995D02*
X1280Y995D01*
X1334Y995D02*
X1335Y995D01*
X1379Y995D02*
X1380Y995D01*
X1434Y995D02*
X1435Y995D01*
X1479Y995D02*
X1480Y995D01*
X1534Y995D02*
X1535Y995D01*
X1579Y995D02*
X1580Y995D01*
X1634Y995D02*
X1635Y995D01*
X1679Y995D02*
X1680Y995D01*
X1734Y995D02*
X1735Y995D01*
X1779Y995D02*
X1780Y995D01*
X1834Y995D02*
X1835Y995D01*
X179Y994D02*
X180Y994D01*
X234Y994D02*
X235Y994D01*
X279Y994D02*
X280Y994D01*
X334Y994D02*
X335Y994D01*
X379Y994D02*
X380Y994D01*
X434Y994D02*
X435Y994D01*
X479Y994D02*
X480Y994D01*
X534Y994D02*
X535Y994D01*
X579Y994D02*
X580Y994D01*
X634Y994D02*
X635Y994D01*
X679Y994D02*
X680Y994D01*
X734Y994D02*
X735Y994D01*
X779Y994D02*
X780Y994D01*
X834Y994D02*
X835Y994D01*
X879Y994D02*
X880Y994D01*
X934Y994D02*
X935Y994D01*
X1079Y994D02*
X1080Y994D01*
X1134Y994D02*
X1135Y994D01*
X1179Y994D02*
X1180Y994D01*
X1234Y994D02*
X1235Y994D01*
X1279Y994D02*
X1280Y994D01*
X1334Y994D02*
X1335Y994D01*
X1379Y994D02*
X1380Y994D01*
X1434Y994D02*
X1435Y994D01*
X1479Y994D02*
X1480Y994D01*
X1533Y994D02*
X1535Y994D01*
X1579Y994D02*
X1580Y994D01*
X1633Y994D02*
X1635Y994D01*
X1679Y994D02*
X1680Y994D01*
X1733Y994D02*
X1735Y994D01*
X1779Y994D02*
X1780Y994D01*
X1833Y994D02*
X1835Y994D01*
X179Y993D02*
X181Y993D01*
X233Y993D02*
X235Y993D01*
X279Y993D02*
X281Y993D01*
X333Y993D02*
X335Y993D01*
X379Y993D02*
X381Y993D01*
X433Y993D02*
X435Y993D01*
X479Y993D02*
X481Y993D01*
X533Y993D02*
X535Y993D01*
X579Y993D02*
X581Y993D01*
X633Y993D02*
X635Y993D01*
X679Y993D02*
X681Y993D01*
X733Y993D02*
X735Y993D01*
X779Y993D02*
X781Y993D01*
X833Y993D02*
X835Y993D01*
X879Y993D02*
X881Y993D01*
X933Y993D02*
X935Y993D01*
X1079Y993D02*
X1081Y993D01*
X1133Y993D02*
X1135Y993D01*
X1179Y993D02*
X1181Y993D01*
X1233Y993D02*
X1235Y993D01*
X1279Y993D02*
X1281Y993D01*
X1333Y993D02*
X1335Y993D01*
X1379Y993D02*
X1381Y993D01*
X1433Y993D02*
X1435Y993D01*
X1479Y993D02*
X1481Y993D01*
X1533Y993D02*
X1535Y993D01*
X1579Y993D02*
X1581Y993D01*
X1633Y993D02*
X1635Y993D01*
X1679Y993D02*
X1681Y993D01*
X1733Y993D02*
X1735Y993D01*
X1779Y993D02*
X1781Y993D01*
X1833Y993D02*
X1835Y993D01*
X179Y992D02*
X181Y992D01*
X233Y992D02*
X235Y992D01*
X279Y992D02*
X281Y992D01*
X333Y992D02*
X335Y992D01*
X379Y992D02*
X381Y992D01*
X433Y992D02*
X435Y992D01*
X479Y992D02*
X481Y992D01*
X533Y992D02*
X535Y992D01*
X579Y992D02*
X581Y992D01*
X633Y992D02*
X635Y992D01*
X679Y992D02*
X681Y992D01*
X733Y992D02*
X735Y992D01*
X779Y992D02*
X781Y992D01*
X833Y992D02*
X835Y992D01*
X879Y992D02*
X881Y992D01*
X933Y992D02*
X935Y992D01*
X1079Y992D02*
X1081Y992D01*
X1133Y992D02*
X1135Y992D01*
X1179Y992D02*
X1181Y992D01*
X1233Y992D02*
X1235Y992D01*
X1279Y992D02*
X1281Y992D01*
X1333Y992D02*
X1335Y992D01*
X1379Y992D02*
X1381Y992D01*
X1433Y992D02*
X1435Y992D01*
X1479Y992D02*
X1481Y992D01*
X1533Y992D02*
X1535Y992D01*
X1579Y992D02*
X1581Y992D01*
X1633Y992D02*
X1635Y992D01*
X1679Y992D02*
X1681Y992D01*
X1732Y992D02*
X1735Y992D01*
X1779Y992D02*
X1781Y992D01*
X1832Y992D02*
X1835Y992D01*
X179Y991D02*
X182Y991D01*
X232Y991D02*
X235Y991D01*
X279Y991D02*
X282Y991D01*
X332Y991D02*
X335Y991D01*
X379Y991D02*
X382Y991D01*
X432Y991D02*
X435Y991D01*
X479Y991D02*
X482Y991D01*
X532Y991D02*
X535Y991D01*
X579Y991D02*
X582Y991D01*
X632Y991D02*
X635Y991D01*
X679Y991D02*
X682Y991D01*
X732Y991D02*
X735Y991D01*
X779Y991D02*
X782Y991D01*
X832Y991D02*
X835Y991D01*
X879Y991D02*
X882Y991D01*
X932Y991D02*
X935Y991D01*
X1079Y991D02*
X1082Y991D01*
X1132Y991D02*
X1135Y991D01*
X1179Y991D02*
X1182Y991D01*
X1232Y991D02*
X1235Y991D01*
X1279Y991D02*
X1282Y991D01*
X1332Y991D02*
X1335Y991D01*
X1379Y991D02*
X1382Y991D01*
X1432Y991D02*
X1435Y991D01*
X1479Y991D02*
X1482Y991D01*
X1532Y991D02*
X1535Y991D01*
X1579Y991D02*
X1582Y991D01*
X1632Y991D02*
X1635Y991D01*
X1679Y991D02*
X1682Y991D01*
X1732Y991D02*
X1735Y991D01*
X1779Y991D02*
X1782Y991D01*
X1832Y991D02*
X1835Y991D01*
X179Y990D02*
X183Y990D01*
X232Y990D02*
X235Y990D01*
X279Y990D02*
X283Y990D01*
X332Y990D02*
X335Y990D01*
X379Y990D02*
X383Y990D01*
X432Y990D02*
X435Y990D01*
X479Y990D02*
X482Y990D01*
X532Y990D02*
X535Y990D01*
X579Y990D02*
X582Y990D01*
X632Y990D02*
X635Y990D01*
X679Y990D02*
X682Y990D01*
X732Y990D02*
X735Y990D01*
X779Y990D02*
X782Y990D01*
X832Y990D02*
X835Y990D01*
X879Y990D02*
X882Y990D01*
X932Y990D02*
X935Y990D01*
X1079Y990D02*
X1082Y990D01*
X1131Y990D02*
X1135Y990D01*
X1179Y990D02*
X1182Y990D01*
X1231Y990D02*
X1235Y990D01*
X1279Y990D02*
X1282Y990D01*
X1331Y990D02*
X1335Y990D01*
X1379Y990D02*
X1382Y990D01*
X1431Y990D02*
X1435Y990D01*
X1479Y990D02*
X1482Y990D01*
X1531Y990D02*
X1535Y990D01*
X1579Y990D02*
X1582Y990D01*
X1631Y990D02*
X1635Y990D01*
X1679Y990D02*
X1682Y990D01*
X1731Y990D02*
X1735Y990D01*
X1779Y990D02*
X1782Y990D01*
X1831Y990D02*
X1835Y990D01*
X179Y989D02*
X183Y989D01*
X231Y989D02*
X235Y989D01*
X279Y989D02*
X283Y989D01*
X331Y989D02*
X335Y989D01*
X379Y989D02*
X383Y989D01*
X431Y989D02*
X435Y989D01*
X479Y989D02*
X483Y989D01*
X531Y989D02*
X535Y989D01*
X579Y989D02*
X583Y989D01*
X631Y989D02*
X635Y989D01*
X679Y989D02*
X683Y989D01*
X731Y989D02*
X735Y989D01*
X779Y989D02*
X783Y989D01*
X831Y989D02*
X835Y989D01*
X879Y989D02*
X883Y989D01*
X931Y989D02*
X935Y989D01*
X1079Y989D02*
X1083Y989D01*
X1131Y989D02*
X1135Y989D01*
X1179Y989D02*
X1183Y989D01*
X1231Y989D02*
X1235Y989D01*
X1279Y989D02*
X1283Y989D01*
X1331Y989D02*
X1335Y989D01*
X1379Y989D02*
X1383Y989D01*
X1431Y989D02*
X1435Y989D01*
X1479Y989D02*
X1483Y989D01*
X1531Y989D02*
X1535Y989D01*
X1579Y989D02*
X1583Y989D01*
X1631Y989D02*
X1635Y989D01*
X1679Y989D02*
X1683Y989D01*
X1731Y989D02*
X1735Y989D01*
X1779Y989D02*
X1783Y989D01*
X1831Y989D02*
X1835Y989D01*
X179Y988D02*
X184Y988D01*
X230Y988D02*
X235Y988D01*
X279Y988D02*
X284Y988D01*
X330Y988D02*
X335Y988D01*
X379Y988D02*
X384Y988D01*
X430Y988D02*
X435Y988D01*
X479Y988D02*
X484Y988D01*
X530Y988D02*
X535Y988D01*
X579Y988D02*
X584Y988D01*
X630Y988D02*
X635Y988D01*
X679Y988D02*
X684Y988D01*
X730Y988D02*
X735Y988D01*
X779Y988D02*
X784Y988D01*
X830Y988D02*
X835Y988D01*
X879Y988D02*
X884Y988D01*
X930Y988D02*
X935Y988D01*
X1079Y988D02*
X1084Y988D01*
X1130Y988D02*
X1135Y988D01*
X1179Y988D02*
X1184Y988D01*
X1230Y988D02*
X1235Y988D01*
X1279Y988D02*
X1284Y988D01*
X1330Y988D02*
X1335Y988D01*
X1379Y988D02*
X1384Y988D01*
X1430Y988D02*
X1435Y988D01*
X1479Y988D02*
X1484Y988D01*
X1530Y988D02*
X1535Y988D01*
X1579Y988D02*
X1584Y988D01*
X1630Y988D02*
X1635Y988D01*
X1679Y988D02*
X1684Y988D01*
X1730Y988D02*
X1735Y988D01*
X1779Y988D02*
X1784Y988D01*
X1830Y988D02*
X1835Y988D01*
X179Y987D02*
X185Y987D01*
X229Y987D02*
X235Y987D01*
X279Y987D02*
X285Y987D01*
X329Y987D02*
X335Y987D01*
X379Y987D02*
X385Y987D01*
X429Y987D02*
X435Y987D01*
X479Y987D02*
X485Y987D01*
X529Y987D02*
X535Y987D01*
X579Y987D02*
X585Y987D01*
X629Y987D02*
X635Y987D01*
X679Y987D02*
X685Y987D01*
X729Y987D02*
X735Y987D01*
X779Y987D02*
X785Y987D01*
X829Y987D02*
X835Y987D01*
X879Y987D02*
X885Y987D01*
X929Y987D02*
X935Y987D01*
X1079Y987D02*
X1085Y987D01*
X1129Y987D02*
X1135Y987D01*
X1179Y987D02*
X1185Y987D01*
X1229Y987D02*
X1235Y987D01*
X1279Y987D02*
X1285Y987D01*
X1329Y987D02*
X1335Y987D01*
X1379Y987D02*
X1385Y987D01*
X1429Y987D02*
X1435Y987D01*
X1479Y987D02*
X1485Y987D01*
X1529Y987D02*
X1535Y987D01*
X1579Y987D02*
X1585Y987D01*
X1629Y987D02*
X1635Y987D01*
X1679Y987D02*
X1685Y987D01*
X1729Y987D02*
X1735Y987D01*
X1779Y987D02*
X1784Y987D01*
X1829Y987D02*
X1835Y987D01*
X179Y986D02*
X186Y986D01*
X229Y986D02*
X235Y986D01*
X279Y986D02*
X286Y986D01*
X329Y986D02*
X335Y986D01*
X379Y986D02*
X386Y986D01*
X428Y986D02*
X435Y986D01*
X479Y986D02*
X486Y986D01*
X528Y986D02*
X535Y986D01*
X579Y986D02*
X586Y986D01*
X628Y986D02*
X635Y986D01*
X679Y986D02*
X686Y986D01*
X728Y986D02*
X735Y986D01*
X779Y986D02*
X786Y986D01*
X828Y986D02*
X835Y986D01*
X879Y986D02*
X886Y986D01*
X928Y986D02*
X935Y986D01*
X1079Y986D02*
X1085Y986D01*
X1128Y986D02*
X1135Y986D01*
X1179Y986D02*
X1185Y986D01*
X1228Y986D02*
X1235Y986D01*
X1279Y986D02*
X1285Y986D01*
X1328Y986D02*
X1335Y986D01*
X1379Y986D02*
X1385Y986D01*
X1428Y986D02*
X1435Y986D01*
X1479Y986D02*
X1485Y986D01*
X1528Y986D02*
X1535Y986D01*
X1579Y986D02*
X1585Y986D01*
X1628Y986D02*
X1635Y986D01*
X1679Y986D02*
X1685Y986D01*
X1728Y986D02*
X1735Y986D01*
X1779Y986D02*
X1785Y986D01*
X1828Y986D02*
X1835Y986D01*
X179Y985D02*
X187Y985D01*
X228Y985D02*
X235Y985D01*
X279Y985D02*
X287Y985D01*
X328Y985D02*
X335Y985D01*
X379Y985D02*
X387Y985D01*
X428Y985D02*
X435Y985D01*
X479Y985D02*
X487Y985D01*
X528Y985D02*
X535Y985D01*
X579Y985D02*
X586Y985D01*
X628Y985D02*
X635Y985D01*
X679Y985D02*
X686Y985D01*
X728Y985D02*
X735Y985D01*
X779Y985D02*
X786Y985D01*
X828Y985D02*
X835Y985D01*
X879Y985D02*
X886Y985D01*
X927Y985D02*
X935Y985D01*
X1079Y985D02*
X1086Y985D01*
X1127Y985D02*
X1135Y985D01*
X1179Y985D02*
X1186Y985D01*
X1227Y985D02*
X1235Y985D01*
X1279Y985D02*
X1286Y985D01*
X1327Y985D02*
X1335Y985D01*
X1379Y985D02*
X1386Y985D01*
X1427Y985D02*
X1435Y985D01*
X1479Y985D02*
X1486Y985D01*
X1527Y985D02*
X1535Y985D01*
X1579Y985D02*
X1586Y985D01*
X1627Y985D02*
X1635Y985D01*
X1679Y985D02*
X1686Y985D01*
X1727Y985D02*
X1735Y985D01*
X1779Y985D02*
X1786Y985D01*
X1827Y985D02*
X1835Y985D01*
X179Y984D02*
X188Y984D01*
X226Y984D02*
X235Y984D01*
X279Y984D02*
X288Y984D01*
X326Y984D02*
X335Y984D01*
X379Y984D02*
X388Y984D01*
X426Y984D02*
X435Y984D01*
X479Y984D02*
X488Y984D01*
X526Y984D02*
X535Y984D01*
X579Y984D02*
X588Y984D01*
X626Y984D02*
X635Y984D01*
X679Y984D02*
X688Y984D01*
X726Y984D02*
X735Y984D01*
X779Y984D02*
X788Y984D01*
X826Y984D02*
X835Y984D01*
X879Y984D02*
X888Y984D01*
X926Y984D02*
X935Y984D01*
X1079Y984D02*
X1088Y984D01*
X1126Y984D02*
X1135Y984D01*
X1179Y984D02*
X1188Y984D01*
X1226Y984D02*
X1235Y984D01*
X1279Y984D02*
X1288Y984D01*
X1326Y984D02*
X1335Y984D01*
X1379Y984D02*
X1387Y984D01*
X1426Y984D02*
X1435Y984D01*
X1479Y984D02*
X1487Y984D01*
X1526Y984D02*
X1535Y984D01*
X1579Y984D02*
X1587Y984D01*
X1626Y984D02*
X1635Y984D01*
X1679Y984D02*
X1687Y984D01*
X1726Y984D02*
X1735Y984D01*
X1779Y984D02*
X1787Y984D01*
X1826Y984D02*
X1835Y984D01*
X179Y983D02*
X189Y983D01*
X225Y983D02*
X235Y983D01*
X279Y983D02*
X289Y983D01*
X325Y983D02*
X335Y983D01*
X379Y983D02*
X389Y983D01*
X425Y983D02*
X435Y983D01*
X479Y983D02*
X489Y983D01*
X525Y983D02*
X535Y983D01*
X579Y983D02*
X589Y983D01*
X625Y983D02*
X635Y983D01*
X679Y983D02*
X689Y983D01*
X725Y983D02*
X735Y983D01*
X779Y983D02*
X789Y983D01*
X825Y983D02*
X835Y983D01*
X879Y983D02*
X889Y983D01*
X925Y983D02*
X935Y983D01*
X1079Y983D02*
X1089Y983D01*
X1125Y983D02*
X1135Y983D01*
X1179Y983D02*
X1189Y983D01*
X1225Y983D02*
X1235Y983D01*
X1279Y983D02*
X1289Y983D01*
X1325Y983D02*
X1335Y983D01*
X1379Y983D02*
X1389Y983D01*
X1425Y983D02*
X1435Y983D01*
X1479Y983D02*
X1489Y983D01*
X1525Y983D02*
X1535Y983D01*
X1579Y983D02*
X1589Y983D01*
X1625Y983D02*
X1635Y983D01*
X1679Y983D02*
X1689Y983D01*
X1725Y983D02*
X1735Y983D01*
X1779Y983D02*
X1789Y983D01*
X1825Y983D02*
X1835Y983D01*
X179Y982D02*
X190Y982D01*
X224Y982D02*
X235Y982D01*
X279Y982D02*
X290Y982D01*
X324Y982D02*
X335Y982D01*
X379Y982D02*
X390Y982D01*
X424Y982D02*
X435Y982D01*
X479Y982D02*
X490Y982D01*
X524Y982D02*
X535Y982D01*
X579Y982D02*
X590Y982D01*
X624Y982D02*
X635Y982D01*
X679Y982D02*
X690Y982D01*
X724Y982D02*
X735Y982D01*
X779Y982D02*
X790Y982D01*
X824Y982D02*
X835Y982D01*
X879Y982D02*
X890Y982D01*
X924Y982D02*
X935Y982D01*
X1079Y982D02*
X1090Y982D01*
X1124Y982D02*
X1135Y982D01*
X1179Y982D02*
X1190Y982D01*
X1224Y982D02*
X1235Y982D01*
X1279Y982D02*
X1290Y982D01*
X1324Y982D02*
X1335Y982D01*
X1379Y982D02*
X1390Y982D01*
X1424Y982D02*
X1435Y982D01*
X1479Y982D02*
X1490Y982D01*
X1524Y982D02*
X1535Y982D01*
X1579Y982D02*
X1590Y982D01*
X1624Y982D02*
X1635Y982D01*
X1679Y982D02*
X1690Y982D01*
X1724Y982D02*
X1735Y982D01*
X1779Y982D02*
X1790Y982D01*
X1824Y982D02*
X1835Y982D01*
X179Y981D02*
X192Y981D01*
X223Y981D02*
X235Y981D01*
X279Y981D02*
X292Y981D01*
X323Y981D02*
X335Y981D01*
X379Y981D02*
X392Y981D01*
X423Y981D02*
X435Y981D01*
X479Y981D02*
X492Y981D01*
X522Y981D02*
X535Y981D01*
X579Y981D02*
X592Y981D01*
X622Y981D02*
X635Y981D01*
X679Y981D02*
X692Y981D01*
X722Y981D02*
X735Y981D01*
X779Y981D02*
X792Y981D01*
X822Y981D02*
X835Y981D01*
X879Y981D02*
X891Y981D01*
X922Y981D02*
X935Y981D01*
X1079Y981D02*
X1091Y981D01*
X1122Y981D02*
X1135Y981D01*
X1179Y981D02*
X1191Y981D01*
X1222Y981D02*
X1235Y981D01*
X1279Y981D02*
X1291Y981D01*
X1322Y981D02*
X1335Y981D01*
X1379Y981D02*
X1391Y981D01*
X1422Y981D02*
X1435Y981D01*
X1479Y981D02*
X1491Y981D01*
X1522Y981D02*
X1535Y981D01*
X1579Y981D02*
X1591Y981D01*
X1622Y981D02*
X1635Y981D01*
X1679Y981D02*
X1691Y981D01*
X1722Y981D02*
X1735Y981D01*
X1779Y981D02*
X1791Y981D01*
X1822Y981D02*
X1835Y981D01*
X179Y980D02*
X193Y980D01*
X221Y980D02*
X235Y980D01*
X279Y980D02*
X293Y980D01*
X321Y980D02*
X335Y980D01*
X379Y980D02*
X393Y980D01*
X421Y980D02*
X435Y980D01*
X479Y980D02*
X493Y980D01*
X521Y980D02*
X535Y980D01*
X579Y980D02*
X593Y980D01*
X621Y980D02*
X635Y980D01*
X679Y980D02*
X693Y980D01*
X721Y980D02*
X735Y980D01*
X779Y980D02*
X793Y980D01*
X821Y980D02*
X835Y980D01*
X879Y980D02*
X893Y980D01*
X921Y980D02*
X935Y980D01*
X1079Y980D02*
X1093Y980D01*
X1121Y980D02*
X1135Y980D01*
X1179Y980D02*
X1193Y980D01*
X1221Y980D02*
X1235Y980D01*
X1279Y980D02*
X1293Y980D01*
X1321Y980D02*
X1335Y980D01*
X1379Y980D02*
X1393Y980D01*
X1421Y980D02*
X1435Y980D01*
X1479Y980D02*
X1493Y980D01*
X1521Y980D02*
X1535Y980D01*
X1579Y980D02*
X1593Y980D01*
X1621Y980D02*
X1635Y980D01*
X1679Y980D02*
X1693Y980D01*
X1721Y980D02*
X1735Y980D01*
X1779Y980D02*
X1793Y980D01*
X1820Y980D02*
X1835Y980D01*
X179Y979D02*
X195Y979D01*
X219Y979D02*
X235Y979D01*
X279Y979D02*
X295Y979D01*
X319Y979D02*
X335Y979D01*
X379Y979D02*
X395Y979D01*
X419Y979D02*
X435Y979D01*
X479Y979D02*
X495Y979D01*
X519Y979D02*
X535Y979D01*
X579Y979D02*
X595Y979D01*
X619Y979D02*
X635Y979D01*
X679Y979D02*
X695Y979D01*
X719Y979D02*
X735Y979D01*
X779Y979D02*
X795Y979D01*
X819Y979D02*
X835Y979D01*
X879Y979D02*
X895Y979D01*
X919Y979D02*
X935Y979D01*
X1079Y979D02*
X1095Y979D01*
X1119Y979D02*
X1135Y979D01*
X1179Y979D02*
X1195Y979D01*
X1219Y979D02*
X1235Y979D01*
X1279Y979D02*
X1295Y979D01*
X1319Y979D02*
X1335Y979D01*
X1379Y979D02*
X1395Y979D01*
X1418Y979D02*
X1435Y979D01*
X1479Y979D02*
X1495Y979D01*
X1518Y979D02*
X1535Y979D01*
X1579Y979D02*
X1595Y979D01*
X1618Y979D02*
X1635Y979D01*
X1679Y979D02*
X1695Y979D01*
X1718Y979D02*
X1735Y979D01*
X1779Y979D02*
X1795Y979D01*
X1818Y979D02*
X1835Y979D01*
X179Y978D02*
X198Y978D01*
X216Y978D02*
X235Y978D01*
X279Y978D02*
X298Y978D01*
X316Y978D02*
X335Y978D01*
X379Y978D02*
X398Y978D01*
X416Y978D02*
X435Y978D01*
X479Y978D02*
X498Y978D01*
X516Y978D02*
X535Y978D01*
X579Y978D02*
X598Y978D01*
X616Y978D02*
X635Y978D01*
X679Y978D02*
X698Y978D01*
X716Y978D02*
X735Y978D01*
X779Y978D02*
X798Y978D01*
X816Y978D02*
X835Y978D01*
X879Y978D02*
X898Y978D01*
X916Y978D02*
X935Y978D01*
X1079Y978D02*
X1098Y978D01*
X1116Y978D02*
X1135Y978D01*
X1179Y978D02*
X1198Y978D01*
X1216Y978D02*
X1235Y978D01*
X1279Y978D02*
X1298Y978D01*
X1316Y978D02*
X1335Y978D01*
X1379Y978D02*
X1398Y978D01*
X1416Y978D02*
X1435Y978D01*
X1479Y978D02*
X1498Y978D01*
X1516Y978D02*
X1535Y978D01*
X1579Y978D02*
X1598Y978D01*
X1616Y978D02*
X1635Y978D01*
X1679Y978D02*
X1698Y978D01*
X1716Y978D02*
X1735Y978D01*
X1779Y978D02*
X1798Y978D01*
X1816Y978D02*
X1835Y978D01*
X179Y977D02*
X203Y977D01*
X211Y977D02*
X235Y977D01*
X279Y977D02*
X303Y977D01*
X311Y977D02*
X335Y977D01*
X379Y977D02*
X403Y977D01*
X411Y977D02*
X435Y977D01*
X479Y977D02*
X503Y977D01*
X511Y977D02*
X535Y977D01*
X579Y977D02*
X603Y977D01*
X611Y977D02*
X635Y977D01*
X679Y977D02*
X703Y977D01*
X711Y977D02*
X735Y977D01*
X779Y977D02*
X803Y977D01*
X811Y977D02*
X835Y977D01*
X879Y977D02*
X903Y977D01*
X911Y977D02*
X935Y977D01*
X1079Y977D02*
X1103Y977D01*
X1111Y977D02*
X1135Y977D01*
X1179Y977D02*
X1203Y977D01*
X1211Y977D02*
X1235Y977D01*
X1279Y977D02*
X1303Y977D01*
X1311Y977D02*
X1335Y977D01*
X1379Y977D02*
X1403Y977D01*
X1411Y977D02*
X1435Y977D01*
X1479Y977D02*
X1503Y977D01*
X1511Y977D02*
X1535Y977D01*
X1579Y977D02*
X1602Y977D01*
X1611Y977D02*
X1635Y977D01*
X1679Y977D02*
X1702Y977D01*
X1711Y977D02*
X1735Y977D01*
X1779Y977D02*
X1802Y977D01*
X1811Y977D02*
X1835Y977D01*
X179Y976D02*
X235Y976D01*
X279Y976D02*
X335Y976D01*
X379Y976D02*
X435Y976D01*
X479Y976D02*
X535Y976D01*
X579Y976D02*
X635Y976D01*
X679Y976D02*
X735Y976D01*
X779Y976D02*
X835Y976D01*
X879Y976D02*
X935Y976D01*
X1079Y976D02*
X1135Y976D01*
X1179Y976D02*
X1235Y976D01*
X1279Y976D02*
X1335Y976D01*
X1379Y976D02*
X1435Y976D01*
X1479Y976D02*
X1535Y976D01*
X1579Y976D02*
X1635Y976D01*
X1679Y976D02*
X1735Y976D01*
X1779Y976D02*
X1835Y976D01*
X179Y975D02*
X235Y975D01*
X279Y975D02*
X335Y975D01*
X379Y975D02*
X435Y975D01*
X479Y975D02*
X535Y975D01*
X579Y975D02*
X635Y975D01*
X679Y975D02*
X735Y975D01*
X779Y975D02*
X835Y975D01*
X879Y975D02*
X935Y975D01*
X1079Y975D02*
X1135Y975D01*
X1179Y975D02*
X1235Y975D01*
X1279Y975D02*
X1335Y975D01*
X1379Y975D02*
X1435Y975D01*
X1479Y975D02*
X1535Y975D01*
X1579Y975D02*
X1635Y975D01*
X1679Y975D02*
X1735Y975D01*
X1779Y975D02*
X1835Y975D01*
X179Y974D02*
X235Y974D01*
X279Y974D02*
X335Y974D01*
X379Y974D02*
X435Y974D01*
X479Y974D02*
X535Y974D01*
X579Y974D02*
X635Y974D01*
X679Y974D02*
X735Y974D01*
X779Y974D02*
X835Y974D01*
X879Y974D02*
X935Y974D01*
X1079Y974D02*
X1135Y974D01*
X1179Y974D02*
X1235Y974D01*
X1279Y974D02*
X1335Y974D01*
X1379Y974D02*
X1435Y974D01*
X1479Y974D02*
X1535Y974D01*
X1579Y974D02*
X1635Y974D01*
X1679Y974D02*
X1735Y974D01*
X1779Y974D02*
X1835Y974D01*
X179Y973D02*
X235Y973D01*
X279Y973D02*
X335Y973D01*
X379Y973D02*
X435Y973D01*
X479Y973D02*
X535Y973D01*
X579Y973D02*
X635Y973D01*
X679Y973D02*
X735Y973D01*
X779Y973D02*
X835Y973D01*
X879Y973D02*
X935Y973D01*
X1079Y973D02*
X1135Y973D01*
X1179Y973D02*
X1235Y973D01*
X1279Y973D02*
X1335Y973D01*
X1379Y973D02*
X1435Y973D01*
X1479Y973D02*
X1535Y973D01*
X1579Y973D02*
X1635Y973D01*
X1679Y973D02*
X1735Y973D01*
X1779Y973D02*
X1835Y973D01*
X179Y972D02*
X235Y972D01*
X279Y972D02*
X335Y972D01*
X379Y972D02*
X435Y972D01*
X479Y972D02*
X535Y972D01*
X579Y972D02*
X635Y972D01*
X679Y972D02*
X735Y972D01*
X779Y972D02*
X835Y972D01*
X879Y972D02*
X935Y972D01*
X1079Y972D02*
X1135Y972D01*
X1179Y972D02*
X1235Y972D01*
X1279Y972D02*
X1335Y972D01*
X1379Y972D02*
X1435Y972D01*
X1479Y972D02*
X1535Y972D01*
X1579Y972D02*
X1635Y972D01*
X1679Y972D02*
X1735Y972D01*
X1779Y972D02*
X1835Y972D01*
X179Y971D02*
X235Y971D01*
X279Y971D02*
X335Y971D01*
X379Y971D02*
X435Y971D01*
X479Y971D02*
X535Y971D01*
X579Y971D02*
X635Y971D01*
X679Y971D02*
X735Y971D01*
X779Y971D02*
X835Y971D01*
X879Y971D02*
X935Y971D01*
X1079Y971D02*
X1135Y971D01*
X1179Y971D02*
X1235Y971D01*
X1279Y971D02*
X1335Y971D01*
X1379Y971D02*
X1435Y971D01*
X1479Y971D02*
X1535Y971D01*
X1579Y971D02*
X1635Y971D01*
X1679Y971D02*
X1735Y971D01*
X1779Y971D02*
X1835Y971D01*
X179Y970D02*
X235Y970D01*
X279Y970D02*
X335Y970D01*
X379Y970D02*
X435Y970D01*
X479Y970D02*
X535Y970D01*
X579Y970D02*
X635Y970D01*
X679Y970D02*
X735Y970D01*
X779Y970D02*
X835Y970D01*
X879Y970D02*
X935Y970D01*
X1079Y970D02*
X1135Y970D01*
X1179Y970D02*
X1235Y970D01*
X1279Y970D02*
X1335Y970D01*
X1379Y970D02*
X1435Y970D01*
X1479Y970D02*
X1535Y970D01*
X1579Y970D02*
X1635Y970D01*
X1679Y970D02*
X1735Y970D01*
X1779Y970D02*
X1835Y970D01*
X179Y969D02*
X235Y969D01*
X279Y969D02*
X335Y969D01*
X379Y969D02*
X435Y969D01*
X479Y969D02*
X535Y969D01*
X579Y969D02*
X635Y969D01*
X679Y969D02*
X735Y969D01*
X779Y969D02*
X835Y969D01*
X879Y969D02*
X935Y969D01*
X1079Y969D02*
X1135Y969D01*
X1179Y969D02*
X1235Y969D01*
X1279Y969D02*
X1335Y969D01*
X1379Y969D02*
X1435Y969D01*
X1479Y969D02*
X1535Y969D01*
X1579Y969D02*
X1635Y969D01*
X1679Y969D02*
X1735Y969D01*
X1779Y969D02*
X1835Y969D01*
X179Y968D02*
X235Y968D01*
X279Y968D02*
X335Y968D01*
X379Y968D02*
X435Y968D01*
X479Y968D02*
X535Y968D01*
X579Y968D02*
X635Y968D01*
X679Y968D02*
X735Y968D01*
X779Y968D02*
X835Y968D01*
X879Y968D02*
X935Y968D01*
X1079Y968D02*
X1135Y968D01*
X1179Y968D02*
X1235Y968D01*
X1279Y968D02*
X1335Y968D01*
X1379Y968D02*
X1435Y968D01*
X1479Y968D02*
X1535Y968D01*
X1579Y968D02*
X1635Y968D01*
X1679Y968D02*
X1735Y968D01*
X1779Y968D02*
X1835Y968D01*
X179Y967D02*
X235Y967D01*
X279Y967D02*
X335Y967D01*
X379Y967D02*
X435Y967D01*
X479Y967D02*
X535Y967D01*
X579Y967D02*
X635Y967D01*
X679Y967D02*
X735Y967D01*
X779Y967D02*
X835Y967D01*
X879Y967D02*
X935Y967D01*
X1079Y967D02*
X1135Y967D01*
X1179Y967D02*
X1235Y967D01*
X1279Y967D02*
X1335Y967D01*
X1379Y967D02*
X1435Y967D01*
X1479Y967D02*
X1535Y967D01*
X1579Y967D02*
X1635Y967D01*
X1679Y967D02*
X1735Y967D01*
X1779Y967D02*
X1835Y967D01*
X179Y966D02*
X235Y966D01*
X279Y966D02*
X335Y966D01*
X379Y966D02*
X435Y966D01*
X479Y966D02*
X535Y966D01*
X579Y966D02*
X635Y966D01*
X679Y966D02*
X735Y966D01*
X779Y966D02*
X835Y966D01*
X879Y966D02*
X935Y966D01*
X1079Y966D02*
X1135Y966D01*
X1179Y966D02*
X1235Y966D01*
X1279Y966D02*
X1335Y966D01*
X1379Y966D02*
X1435Y966D01*
X1479Y966D02*
X1535Y966D01*
X1579Y966D02*
X1635Y966D01*
X1679Y966D02*
X1735Y966D01*
X1779Y966D02*
X1835Y966D01*
X179Y965D02*
X235Y965D01*
X279Y965D02*
X335Y965D01*
X379Y965D02*
X435Y965D01*
X479Y965D02*
X535Y965D01*
X579Y965D02*
X635Y965D01*
X679Y965D02*
X735Y965D01*
X779Y965D02*
X835Y965D01*
X879Y965D02*
X935Y965D01*
X1079Y965D02*
X1135Y965D01*
X1179Y965D02*
X1235Y965D01*
X1279Y965D02*
X1335Y965D01*
X1379Y965D02*
X1435Y965D01*
X1479Y965D02*
X1535Y965D01*
X1579Y965D02*
X1635Y965D01*
X1679Y965D02*
X1735Y965D01*
X1779Y965D02*
X1835Y965D01*
X179Y964D02*
X235Y964D01*
X279Y964D02*
X335Y964D01*
X379Y964D02*
X435Y964D01*
X479Y964D02*
X535Y964D01*
X579Y964D02*
X635Y964D01*
X679Y964D02*
X735Y964D01*
X779Y964D02*
X835Y964D01*
X879Y964D02*
X935Y964D01*
X1079Y964D02*
X1135Y964D01*
X1179Y964D02*
X1235Y964D01*
X1279Y964D02*
X1335Y964D01*
X1379Y964D02*
X1435Y964D01*
X1479Y964D02*
X1535Y964D01*
X1579Y964D02*
X1635Y964D01*
X1679Y964D02*
X1735Y964D01*
X1779Y964D02*
X1835Y964D01*
X179Y963D02*
X235Y963D01*
X279Y963D02*
X335Y963D01*
X379Y963D02*
X435Y963D01*
X479Y963D02*
X535Y963D01*
X579Y963D02*
X635Y963D01*
X679Y963D02*
X735Y963D01*
X779Y963D02*
X835Y963D01*
X879Y963D02*
X935Y963D01*
X1079Y963D02*
X1135Y963D01*
X1179Y963D02*
X1235Y963D01*
X1279Y963D02*
X1335Y963D01*
X1379Y963D02*
X1435Y963D01*
X1479Y963D02*
X1535Y963D01*
X1579Y963D02*
X1635Y963D01*
X1679Y963D02*
X1735Y963D01*
X1779Y963D02*
X1835Y963D01*
X179Y962D02*
X235Y962D01*
X279Y962D02*
X335Y962D01*
X379Y962D02*
X435Y962D01*
X479Y962D02*
X535Y962D01*
X579Y962D02*
X635Y962D01*
X679Y962D02*
X735Y962D01*
X779Y962D02*
X835Y962D01*
X879Y962D02*
X935Y962D01*
X1079Y962D02*
X1135Y962D01*
X1179Y962D02*
X1235Y962D01*
X1279Y962D02*
X1335Y962D01*
X1379Y962D02*
X1435Y962D01*
X1479Y962D02*
X1535Y962D01*
X1579Y962D02*
X1635Y962D01*
X1679Y962D02*
X1735Y962D01*
X1779Y962D02*
X1835Y962D01*
X179Y961D02*
X235Y961D01*
X279Y961D02*
X335Y961D01*
X379Y961D02*
X435Y961D01*
X479Y961D02*
X535Y961D01*
X579Y961D02*
X635Y961D01*
X679Y961D02*
X735Y961D01*
X779Y961D02*
X835Y961D01*
X879Y961D02*
X935Y961D01*
X1079Y961D02*
X1135Y961D01*
X1179Y961D02*
X1235Y961D01*
X1279Y961D02*
X1335Y961D01*
X1379Y961D02*
X1435Y961D01*
X1479Y961D02*
X1535Y961D01*
X1579Y961D02*
X1635Y961D01*
X1679Y961D02*
X1735Y961D01*
X1779Y961D02*
X1835Y961D01*
X179Y960D02*
X235Y960D01*
X279Y960D02*
X335Y960D01*
X379Y960D02*
X435Y960D01*
X479Y960D02*
X535Y960D01*
X579Y960D02*
X635Y960D01*
X679Y960D02*
X735Y960D01*
X779Y960D02*
X835Y960D01*
X879Y960D02*
X935Y960D01*
X1079Y960D02*
X1135Y960D01*
X1179Y960D02*
X1235Y960D01*
X1279Y960D02*
X1335Y960D01*
X1379Y960D02*
X1435Y960D01*
X1479Y960D02*
X1535Y960D01*
X1579Y960D02*
X1635Y960D01*
X1679Y960D02*
X1735Y960D01*
X1779Y960D02*
X1835Y960D01*
X179Y959D02*
X235Y959D01*
X279Y959D02*
X335Y959D01*
X379Y959D02*
X435Y959D01*
X479Y959D02*
X535Y959D01*
X579Y959D02*
X635Y959D01*
X679Y959D02*
X735Y959D01*
X779Y959D02*
X835Y959D01*
X879Y959D02*
X935Y959D01*
X1079Y959D02*
X1135Y959D01*
X1179Y959D02*
X1235Y959D01*
X1279Y959D02*
X1335Y959D01*
X1379Y959D02*
X1435Y959D01*
X1479Y959D02*
X1535Y959D01*
X1579Y959D02*
X1635Y959D01*
X1679Y959D02*
X1735Y959D01*
X1779Y959D02*
X1835Y959D01*
X179Y958D02*
X235Y958D01*
X279Y958D02*
X335Y958D01*
X379Y958D02*
X435Y958D01*
X479Y958D02*
X535Y958D01*
X579Y958D02*
X635Y958D01*
X679Y958D02*
X735Y958D01*
X779Y958D02*
X835Y958D01*
X879Y958D02*
X935Y958D01*
X1079Y958D02*
X1135Y958D01*
X1179Y958D02*
X1235Y958D01*
X1279Y958D02*
X1335Y958D01*
X1379Y958D02*
X1435Y958D01*
X1479Y958D02*
X1535Y958D01*
X1579Y958D02*
X1635Y958D01*
X1679Y958D02*
X1735Y958D01*
X1779Y958D02*
X1835Y958D01*
X179Y957D02*
X235Y957D01*
X279Y957D02*
X335Y957D01*
X379Y957D02*
X435Y957D01*
X479Y957D02*
X535Y957D01*
X579Y957D02*
X635Y957D01*
X679Y957D02*
X735Y957D01*
X779Y957D02*
X835Y957D01*
X879Y957D02*
X935Y957D01*
X1079Y957D02*
X1135Y957D01*
X1179Y957D02*
X1235Y957D01*
X1279Y957D02*
X1335Y957D01*
X1379Y957D02*
X1435Y957D01*
X1479Y957D02*
X1535Y957D01*
X1579Y957D02*
X1635Y957D01*
X1679Y957D02*
X1735Y957D01*
X1779Y957D02*
X1835Y957D01*
X179Y956D02*
X235Y956D01*
X279Y956D02*
X335Y956D01*
X379Y956D02*
X435Y956D01*
X479Y956D02*
X535Y956D01*
X579Y956D02*
X635Y956D01*
X679Y956D02*
X735Y956D01*
X779Y956D02*
X835Y956D01*
X879Y956D02*
X935Y956D01*
X1079Y956D02*
X1135Y956D01*
X1179Y956D02*
X1235Y956D01*
X1279Y956D02*
X1335Y956D01*
X1379Y956D02*
X1435Y956D01*
X1479Y956D02*
X1535Y956D01*
X1579Y956D02*
X1635Y956D01*
X1679Y956D02*
X1735Y956D01*
X1779Y956D02*
X1835Y956D01*
X179Y955D02*
X235Y955D01*
X279Y955D02*
X335Y955D01*
X379Y955D02*
X435Y955D01*
X479Y955D02*
X535Y955D01*
X579Y955D02*
X635Y955D01*
X679Y955D02*
X735Y955D01*
X779Y955D02*
X835Y955D01*
X879Y955D02*
X935Y955D01*
X1079Y955D02*
X1135Y955D01*
X1179Y955D02*
X1235Y955D01*
X1279Y955D02*
X1335Y955D01*
X1379Y955D02*
X1435Y955D01*
X1479Y955D02*
X1535Y955D01*
X1579Y955D02*
X1635Y955D01*
X1679Y955D02*
X1735Y955D01*
X1779Y955D02*
X1835Y955D01*
X179Y954D02*
X235Y954D01*
X279Y954D02*
X335Y954D01*
X379Y954D02*
X435Y954D01*
X479Y954D02*
X535Y954D01*
X579Y954D02*
X635Y954D01*
X679Y954D02*
X735Y954D01*
X779Y954D02*
X835Y954D01*
X879Y954D02*
X935Y954D01*
X1079Y954D02*
X1135Y954D01*
X1179Y954D02*
X1235Y954D01*
X1279Y954D02*
X1335Y954D01*
X1379Y954D02*
X1435Y954D01*
X1479Y954D02*
X1535Y954D01*
X1579Y954D02*
X1635Y954D01*
X1679Y954D02*
X1735Y954D01*
X1779Y954D02*
X1835Y954D01*
X179Y953D02*
X235Y953D01*
X279Y953D02*
X335Y953D01*
X379Y953D02*
X435Y953D01*
X479Y953D02*
X535Y953D01*
X579Y953D02*
X635Y953D01*
X679Y953D02*
X735Y953D01*
X779Y953D02*
X835Y953D01*
X879Y953D02*
X935Y953D01*
X1079Y953D02*
X1135Y953D01*
X1179Y953D02*
X1235Y953D01*
X1279Y953D02*
X1335Y953D01*
X1379Y953D02*
X1435Y953D01*
X1479Y953D02*
X1535Y953D01*
X1579Y953D02*
X1635Y953D01*
X1679Y953D02*
X1735Y953D01*
X1779Y953D02*
X1835Y953D01*
X179Y952D02*
X235Y952D01*
X279Y952D02*
X335Y952D01*
X379Y952D02*
X435Y952D01*
X479Y952D02*
X535Y952D01*
X579Y952D02*
X635Y952D01*
X679Y952D02*
X735Y952D01*
X779Y952D02*
X835Y952D01*
X879Y952D02*
X935Y952D01*
X1079Y952D02*
X1135Y952D01*
X1179Y952D02*
X1235Y952D01*
X1279Y952D02*
X1335Y952D01*
X1379Y952D02*
X1435Y952D01*
X1479Y952D02*
X1535Y952D01*
X1579Y952D02*
X1635Y952D01*
X1679Y952D02*
X1735Y952D01*
X1779Y952D02*
X1835Y952D01*
X179Y951D02*
X235Y951D01*
X279Y951D02*
X335Y951D01*
X379Y951D02*
X435Y951D01*
X479Y951D02*
X535Y951D01*
X579Y951D02*
X635Y951D01*
X679Y951D02*
X735Y951D01*
X779Y951D02*
X835Y951D01*
X879Y951D02*
X935Y951D01*
X1079Y951D02*
X1135Y951D01*
X1179Y951D02*
X1235Y951D01*
X1279Y951D02*
X1335Y951D01*
X1379Y951D02*
X1435Y951D01*
X1479Y951D02*
X1535Y951D01*
X1579Y951D02*
X1635Y951D01*
X1679Y951D02*
X1735Y951D01*
X1779Y951D02*
X1835Y951D01*
X179Y950D02*
X235Y950D01*
X279Y950D02*
X335Y950D01*
X379Y950D02*
X435Y950D01*
X479Y950D02*
X535Y950D01*
X579Y950D02*
X635Y950D01*
X679Y950D02*
X735Y950D01*
X779Y950D02*
X835Y950D01*
X879Y950D02*
X935Y950D01*
X1079Y950D02*
X1135Y950D01*
X1179Y950D02*
X1235Y950D01*
X1279Y950D02*
X1335Y950D01*
X1379Y950D02*
X1435Y950D01*
X1479Y950D02*
X1535Y950D01*
X1579Y950D02*
X1635Y950D01*
X1679Y950D02*
X1735Y950D01*
X1779Y950D02*
X1835Y950D01*
X179Y949D02*
X235Y949D01*
X279Y949D02*
X335Y949D01*
X379Y949D02*
X435Y949D01*
X479Y949D02*
X535Y949D01*
X579Y949D02*
X635Y949D01*
X679Y949D02*
X735Y949D01*
X779Y949D02*
X835Y949D01*
X879Y949D02*
X935Y949D01*
X1079Y949D02*
X1135Y949D01*
X1179Y949D02*
X1235Y949D01*
X1279Y949D02*
X1335Y949D01*
X1379Y949D02*
X1435Y949D01*
X1479Y949D02*
X1535Y949D01*
X1579Y949D02*
X1635Y949D01*
X1679Y949D02*
X1735Y949D01*
X1779Y949D02*
X1835Y949D01*
X179Y948D02*
X235Y948D01*
X279Y948D02*
X335Y948D01*
X379Y948D02*
X435Y948D01*
X479Y948D02*
X535Y948D01*
X579Y948D02*
X635Y948D01*
X679Y948D02*
X735Y948D01*
X779Y948D02*
X835Y948D01*
X879Y948D02*
X935Y948D01*
X1079Y948D02*
X1135Y948D01*
X1179Y948D02*
X1235Y948D01*
X1279Y948D02*
X1335Y948D01*
X1379Y948D02*
X1435Y948D01*
X1479Y948D02*
X1535Y948D01*
X1579Y948D02*
X1635Y948D01*
X1679Y948D02*
X1735Y948D01*
X1779Y948D02*
X1835Y948D01*
X179Y947D02*
X235Y947D01*
X279Y947D02*
X335Y947D01*
X379Y947D02*
X435Y947D01*
X479Y947D02*
X535Y947D01*
X579Y947D02*
X635Y947D01*
X679Y947D02*
X735Y947D01*
X779Y947D02*
X835Y947D01*
X879Y947D02*
X935Y947D01*
X1079Y947D02*
X1135Y947D01*
X1179Y947D02*
X1235Y947D01*
X1279Y947D02*
X1335Y947D01*
X1379Y947D02*
X1435Y947D01*
X1479Y947D02*
X1535Y947D01*
X1579Y947D02*
X1635Y947D01*
X1679Y947D02*
X1735Y947D01*
X1779Y947D02*
X1835Y947D01*
X179Y946D02*
X235Y946D01*
X279Y946D02*
X335Y946D01*
X379Y946D02*
X435Y946D01*
X479Y946D02*
X535Y946D01*
X579Y946D02*
X635Y946D01*
X679Y946D02*
X735Y946D01*
X779Y946D02*
X835Y946D01*
X879Y946D02*
X935Y946D01*
X1079Y946D02*
X1135Y946D01*
X1179Y946D02*
X1235Y946D01*
X1279Y946D02*
X1335Y946D01*
X1379Y946D02*
X1435Y946D01*
X1479Y946D02*
X1535Y946D01*
X1579Y946D02*
X1635Y946D01*
X1679Y946D02*
X1735Y946D01*
X1779Y946D02*
X1835Y946D01*
X179Y945D02*
X235Y945D01*
X279Y945D02*
X335Y945D01*
X379Y945D02*
X435Y945D01*
X479Y945D02*
X535Y945D01*
X579Y945D02*
X635Y945D01*
X679Y945D02*
X735Y945D01*
X779Y945D02*
X835Y945D01*
X879Y945D02*
X935Y945D01*
X1079Y945D02*
X1135Y945D01*
X1179Y945D02*
X1235Y945D01*
X1279Y945D02*
X1335Y945D01*
X1379Y945D02*
X1435Y945D01*
X1479Y945D02*
X1535Y945D01*
X1579Y945D02*
X1635Y945D01*
X1679Y945D02*
X1735Y945D01*
X1779Y945D02*
X1835Y945D01*
X179Y944D02*
X235Y944D01*
X279Y944D02*
X335Y944D01*
X379Y944D02*
X435Y944D01*
X479Y944D02*
X535Y944D01*
X579Y944D02*
X635Y944D01*
X679Y944D02*
X735Y944D01*
X779Y944D02*
X835Y944D01*
X879Y944D02*
X935Y944D01*
X1079Y944D02*
X1135Y944D01*
X1179Y944D02*
X1235Y944D01*
X1279Y944D02*
X1335Y944D01*
X1379Y944D02*
X1435Y944D01*
X1479Y944D02*
X1535Y944D01*
X1579Y944D02*
X1635Y944D01*
X1679Y944D02*
X1735Y944D01*
X1779Y944D02*
X1835Y944D01*
X179Y943D02*
X235Y943D01*
X279Y943D02*
X335Y943D01*
X379Y943D02*
X435Y943D01*
X479Y943D02*
X535Y943D01*
X579Y943D02*
X635Y943D01*
X679Y943D02*
X735Y943D01*
X779Y943D02*
X835Y943D01*
X879Y943D02*
X935Y943D01*
X1079Y943D02*
X1135Y943D01*
X1179Y943D02*
X1235Y943D01*
X1279Y943D02*
X1335Y943D01*
X1379Y943D02*
X1435Y943D01*
X1479Y943D02*
X1535Y943D01*
X1579Y943D02*
X1635Y943D01*
X1679Y943D02*
X1735Y943D01*
X1779Y943D02*
X1835Y943D01*
X179Y942D02*
X235Y942D01*
X279Y942D02*
X335Y942D01*
X379Y942D02*
X435Y942D01*
X479Y942D02*
X535Y942D01*
X579Y942D02*
X635Y942D01*
X679Y942D02*
X735Y942D01*
X779Y942D02*
X835Y942D01*
X879Y942D02*
X935Y942D01*
X1079Y942D02*
X1135Y942D01*
X1179Y942D02*
X1235Y942D01*
X1279Y942D02*
X1335Y942D01*
X1379Y942D02*
X1435Y942D01*
X1479Y942D02*
X1535Y942D01*
X1579Y942D02*
X1635Y942D01*
X1679Y942D02*
X1735Y942D01*
X1779Y942D02*
X1835Y942D01*
X179Y941D02*
X235Y941D01*
X279Y941D02*
X335Y941D01*
X379Y941D02*
X435Y941D01*
X479Y941D02*
X535Y941D01*
X579Y941D02*
X635Y941D01*
X679Y941D02*
X735Y941D01*
X779Y941D02*
X835Y941D01*
X879Y941D02*
X935Y941D01*
X1079Y941D02*
X1135Y941D01*
X1179Y941D02*
X1235Y941D01*
X1279Y941D02*
X1335Y941D01*
X1379Y941D02*
X1435Y941D01*
X1479Y941D02*
X1535Y941D01*
X1579Y941D02*
X1635Y941D01*
X1679Y941D02*
X1735Y941D01*
X1779Y941D02*
X1835Y941D01*
X179Y940D02*
X235Y940D01*
X279Y940D02*
X335Y940D01*
X379Y940D02*
X435Y940D01*
X479Y940D02*
X535Y940D01*
X579Y940D02*
X635Y940D01*
X679Y940D02*
X735Y940D01*
X779Y940D02*
X835Y940D01*
X879Y940D02*
X935Y940D01*
X1079Y940D02*
X1135Y940D01*
X1179Y940D02*
X1235Y940D01*
X1279Y940D02*
X1335Y940D01*
X1379Y940D02*
X1435Y940D01*
X1479Y940D02*
X1535Y940D01*
X1579Y940D02*
X1635Y940D01*
X1679Y940D02*
X1735Y940D01*
X1779Y940D02*
X1835Y940D01*
D02*
G04 End of Copper0*
M02*